<svg xmlns="http://www.w3.org/2000/svg" viewBox="0 0 540 370" role="img" aria-label="classic measured top view"><rect width="540" height="370" fill="#fff7e8"/><g font-family="Arial,sans-serif" fill="#29201b"><text x="24" y="30" font-size="18" font-weight="bold">18 × 14 studs · clear height 11</text><rect x="135.0" y="65" width="270" height="210" fill="#f5e1c6" stroke="#29201b" stroke-width="3"/><rect x="154.5" y="71.0" width="231.0" height="45" fill="#362c25" stroke="#29201b" stroke-width=".5"/><rect x="154.5" y="115.39999999999999" width="231.0" height="1.7999999999999998" fill="#a46031" stroke="#29201b" stroke-width=".5"/><rect x="149.25" y="75.87500000000003" width="4.5" height="6.75" fill="#a46031" stroke="#29201b" stroke-width=".5"/><rect x="386.25" y="75.87500000000003" width="4.5" height="6.75" fill="#a46031" stroke="#29201b" stroke-width=".5"/><rect x="149.25" y="66.95000000000002" width="241.50000000000003" height="3.3" fill="#362c25" stroke="#29201b" stroke-width=".5"/><rect x="212.25" y="70.77499999999999" width="55.5" height="3.75" fill="#a46031" stroke="#29201b" stroke-width=".5"/><rect x="214.5" y="74.74999999999997" width="51.0" height="1.5" fill="#f5e1c6" stroke="#29201b" stroke-width=".5"/><rect x="272.25" y="70.77499999999999" width="55.5" height="3.75" fill="#a46031" stroke="#29201b" stroke-width=".5"/><rect x="274.5" y="74.74999999999997" width="51.0" height="1.5" fill="#f5e1c6" stroke="#29201b" stroke-width=".5"/><rect x="140.99999999999997" y="197.0" width="66.0" height="66.0" fill="#a46031" stroke="#29201b" stroke-width=".5"/><rect x="147.75" y="203.75" width="52.5" height="52.5" fill="#362c25" stroke="#29201b" stroke-width=".5"/><rect x="140.99999999999997" y="197.0" width="66.0" height="66.0" fill="#a46031" stroke="#29201b" stroke-width=".5"/><rect x="334.5" y="210.5" width="63.0" height="39.0" fill="#362c25" stroke="#29201b" stroke-width=".5"/><rect x="339.0" y="218.375" width="4.5" height="5.25" fill="#a46031" stroke="#29201b" stroke-width=".5"/><rect x="388.5" y="218.375" width="4.5" height="5.25" fill="#a46031" stroke="#29201b" stroke-width=".5"/><rect x="345.75" y="215.75" width="40.5" height="28.5" fill="#a46031" stroke="#29201b" stroke-width=".5"/><rect x="347.25" y="216.875" width="37.5" height="26.25" fill="#f5e1c6" stroke="#29201b" stroke-width=".5"/><rect x="365.25" y="216.5" width="1.5" height="27.0" fill="#362c25" stroke="#29201b" stroke-width=".5"/><rect x="399.67499999999995" y="146.0" width="3.75" height="48.0" fill="#a46031" stroke="#29201b" stroke-width=".5"/><rect x="397.8" y="149.0" width="1.5" height="42.0" fill="#f5e1c6" stroke="#29201b" stroke-width=".5"/><path d="M 270 275 V 147.5 H 270" fill="none" stroke="#6b5445" stroke-width="2" stroke-dasharray="5 4"/><circle cx="270" cy="147.5" r="18" fill="#fff7e8" stroke="#29201b"/><text x="270" y="152.5" text-anchor="middle" font-size="14">A</text><path d="M 270 275 V 192.5 H 366.0" fill="none" stroke="#6b5445" stroke-width="2" stroke-dasharray="5 4"/><circle cx="366.0" cy="192.5" r="18" fill="#fff7e8" stroke="#29201b"/><text x="366.0" y="197.5" text-anchor="middle" font-size="14">R</text><path d="M 270 275 V 170 H 348.0" fill="none" stroke="#6b5445" stroke-width="2" stroke-dasharray="5 4"/><circle cx="348.0" cy="170" r="18" fill="#fff7e8" stroke="#29201b"/><text x="348.0" y="175" text-anchor="middle" font-size="14">L</text><path d="M 240 275 h 60" stroke="#fff7e8" stroke-width="5"/><text x="270" y="303" font-size="14" text-anchor="middle">4-stud entrance · origin (0,0,0)</text><text x="24" y="333" font-size="13">A achievements · R records · L Legacy</text></g></svg>