<svg xmlns="http://www.w3.org/2000/svg" viewBox="0 0 540 340" role="img" aria-label="cozy measured top view"><rect width="540" height="340" fill="#fff7e8"/><g font-family="Arial,sans-serif" fill="#29201b"><text x="24" y="30" font-size="18" font-weight="bold">16 × 12 studs · clear height 10.5</text><rect x="150.0" y="65" width="240" height="180" fill="#f5e1c6" stroke="#29201b" stroke-width="3"/><rect x="214.5" y="71.0" width="111.0" height="45" fill="#a46031" stroke="#29201b" stroke-width=".5"/><rect x="214.5" y="115.39999999999999" width="111.0" height="1.7999999999999998" fill="#6b5445" stroke="#29201b" stroke-width=".5"/><rect x="209.25" y="75.87500000000003" width="4.5" height="6.75" fill="#6b5445" stroke="#29201b" stroke-width=".5"/><rect x="326.25" y="75.87500000000003" width="4.5" height="6.75" fill="#6b5445" stroke="#29201b" stroke-width=".5"/><rect x="209.25" y="66.95000000000002" width="121.5" height="3.3" fill="#a46031" stroke="#29201b" stroke-width=".5"/><rect x="242.25" y="70.77499999999999" width="55.5" height="3.75" fill="#6b5445" stroke="#29201b" stroke-width=".5"/><rect x="244.5" y="74.74999999999997" width="51.0" height="1.5" fill="#f5e1c6" stroke="#29201b" stroke-width=".5"/><rect x="156.0" y="167.0" width="66.0" height="66.0" fill="#6b5445" stroke="#29201b" stroke-width=".5"/><rect x="162.75" y="173.75" width="52.5" height="52.5" fill="#a46031" stroke="#29201b" stroke-width=".5"/><rect x="156.0" y="167.0" width="66.0" height="66.0" fill="#6b5445" stroke="#29201b" stroke-width=".5"/><rect x="319.5" y="180.5" width="63.0" height="39.0" fill="#a46031" stroke="#29201b" stroke-width=".5"/><rect x="324.0" y="188.375" width="4.5" height="5.25" fill="#6b5445" stroke="#29201b" stroke-width=".5"/><rect x="373.5" y="188.375" width="4.5" height="5.25" fill="#6b5445" stroke="#29201b" stroke-width=".5"/><rect x="330.75" y="185.75" width="40.5" height="28.5" fill="#6b5445" stroke="#29201b" stroke-width=".5"/><rect x="332.25" y="186.875" width="37.5" height="26.25" fill="#f5e1c6" stroke="#29201b" stroke-width=".5"/><rect x="350.25" y="186.5" width="1.5" height="27.0" fill="#a46031" stroke="#29201b" stroke-width=".5"/><rect x="384.675" y="116.0" width="3.75" height="48.0" fill="#6b5445" stroke="#29201b" stroke-width=".5"/><rect x="382.8" y="119.0" width="1.5" height="42.0" fill="#f5e1c6" stroke="#29201b" stroke-width=".5"/><path d="M 270 245 V 147.5 H 270" fill="none" stroke="#6b5445" stroke-width="2" stroke-dasharray="5 4"/><circle cx="270" cy="147.5" r="18" fill="#fff7e8" stroke="#29201b"/><text x="270" y="152.5" text-anchor="middle" font-size="14">A</text><path d="M 270 245 V 162.5 H 351.0" fill="none" stroke="#6b5445" stroke-width="2" stroke-dasharray="5 4"/><circle cx="351.0" cy="162.5" r="18" fill="#fff7e8" stroke="#29201b"/><text x="351.0" y="167.5" text-anchor="middle" font-size="14">R</text><path d="M 270 245 V 140 H 333.0" fill="none" stroke="#6b5445" stroke-width="2" stroke-dasharray="5 4"/><circle cx="333.0" cy="140" r="18" fill="#fff7e8" stroke="#29201b"/><text x="333.0" y="145" text-anchor="middle" font-size="14">L</text><path d="M 240 245 h 60" stroke="#fff7e8" stroke-width="5"/><text x="270" y="273" font-size="14" text-anchor="middle">4-stud entrance · origin (0,0,0)</text><text x="24" y="303" font-size="13">A achievements · R records · L Legacy</text></g></svg>