# Blender 5.2.1 LTS
# www.blender.org
mtllib loot-bag-goldlight.mtl
o GoldLight
v -0.000000 1.372340 0.860604
v 0.107152 1.251145 0.890309
v 0.103148 1.239352 0.877647
v -0.111156 1.239352 0.877647
v 0.113482 1.138252 0.864050
v 0.112428 1.092165 0.895987
v -0.100822 1.138252 0.864050
v 0.118668 1.238686 0.879345
v 0.128078 1.183640 0.865111
v -0.000000 0.972692 0.860604
v 0.080540 1.353377 0.845206
v 0.111155 1.105680 0.877647
v -0.095636 1.238686 0.879345
v -0.001449 1.334694 0.834306
v -0.096749 1.212132 0.865670
v 0.056680 1.248622 0.820616
v -0.086226 1.183640 0.865111
v 0.135918 1.139991 0.874297
v 0.125377 1.106060 0.883993
v 0.054210 1.098696 0.820238
v 0.122318 1.248507 0.896041
v -0.103149 1.105680 0.877647
v 0.128386 1.223934 0.874819
v 0.142754 1.183457 0.877961
v 0.141570 1.222683 0.896346
v 0.150544 1.183851 0.896751
v 0.147314 1.140565 0.896792
v 0.132164 1.106059 0.895874
v -0.078386 1.139991 0.874297
v -0.088963 1.106367 0.883732
v -0.099605 1.252517 0.897388
v -0.085018 1.243225 0.898090
v -0.076431 1.223755 0.886384
v -0.067530 1.183634 0.883487
v -0.099606 1.092514 0.897388
v 0.146422 1.309962 0.836960
v 0.178865 1.206015 0.826175
v 0.201907 1.109500 0.831430
v -0.068853 1.140424 0.889430
v 0.158919 1.041357 0.836954
v 0.080539 0.991654 0.845206
v -0.081222 1.105747 0.900184
v 0.058155 1.368971 0.859867
v -0.064827 1.197293 0.902650
v 0.200823 1.269601 0.836795
v -0.067213 1.139113 0.902106
v 0.058155 0.976060 0.859867
v 0.262561 1.192498 0.841810
v 0.111217 1.358261 0.861937
v 0.176465 1.328888 0.853188
v 0.241025 1.282726 0.855336
v 0.259854 1.249257 0.850432
v 0.269824 1.112599 0.850002
v 0.216389 1.043759 0.851799
v 0.160824 1.006572 0.856603
v 0.111217 0.986770 0.861937
v 0.284574 1.209414 0.857862
v 0.289252 1.172516 0.858074
v 0.071931 1.222525 0.900312
v 0.063980 1.184530 0.903032
v 0.160824 1.338460 0.864605
v 0.067261 1.138913 0.902588
v 0.204799 1.313428 0.865362
v 0.268414 1.247483 0.863320
v 0.284574 1.135618 0.863346
v 0.083408 1.240884 0.898990
v 0.268414 1.097548 0.863320
v 0.241024 1.062305 0.865872
v 0.068188 1.194474 0.883714
v 0.204799 1.031603 0.865362
v 0.073213 1.126905 0.886671
v 0.085017 1.101806 0.898090
v 0.099605 1.252517 0.897388
v 0.088963 1.238665 0.883732
v 0.233465 1.283826 0.869897
v 0.276165 1.211664 0.871308
v 0.279615 1.172516 0.873643
v 0.074765 1.172209 0.872367
v 0.155239 1.006230 0.867165
v 0.097389 1.093490 0.897428
v 0.096748 1.212132 0.865670
v 0.088705 1.139988 0.867301
v 0.240447 1.249419 0.878551
v 0.095635 1.106345 0.879345
v 0.249561 1.112189 0.879279
v 0.098817 1.180775 0.860698
v 0.157564 1.301450 0.885291
v 0.157564 1.043582 0.885291
v 0.079700 0.991904 0.876242
v 0.006755 1.368842 0.869686
v 0.079700 1.353127 0.876242
v -0.132164 1.238972 0.895874
v -0.145935 1.208984 0.896926
v 0.203899 1.231026 0.889691
v -0.151261 1.178999 0.897024
v 0.196158 1.128037 0.892096
v -0.141331 1.129138 0.885502
v -0.122319 1.096525 0.896041
v -0.110718 1.253236 0.895201
v -0.125378 1.238971 0.883993
v 0.006755 0.976189 0.869686
v -0.132536 1.209129 0.871858
v -0.139539 1.172209 0.872367
v -0.125599 1.139988 0.867301
v -0.118669 1.106345 0.879345
v -0.107152 1.093886 0.890309
v -0.115487 1.180775 0.860698
v 0.001448 1.334694 0.886902
v 0.053914 1.268178 0.898134
v 0.053914 1.076854 0.898134
v 0.001448 1.010337 0.886902
v -0.080540 1.353377 0.876002
v -0.049862 1.242413 0.901330
v -0.157564 1.301450 0.885291
v -0.196160 1.216995 0.892096
v -0.157564 1.043581 0.885291
v -0.080540 0.991654 0.876002
v -0.058156 1.368971 0.861341
v -0.203901 1.114006 0.889691
v -0.058156 0.976060 0.861341
v -0.249562 1.232842 0.879279
v -0.262412 1.172516 0.879384
v -0.240448 1.095613 0.878551
v -0.129909 1.350416 0.866327
v -0.204800 1.313428 0.865362
v -0.241025 1.282726 0.865872
v -0.276165 1.133368 0.871308
v -0.241025 1.062305 0.865872
v -0.204800 1.031603 0.865362
v -0.129908 0.994616 0.866327
v -0.268414 1.247483 0.863320
v -0.284574 1.209414 0.863346
v -0.289252 1.172516 0.863135
v -0.268414 1.097548 0.863320
v -0.109417 1.357160 0.856277
v -0.160824 1.338459 0.856603
v -0.284036 1.133532 0.860604
v -0.160825 1.006572 0.856603
v -0.109416 0.987871 0.856277
v -0.216390 1.301273 0.851799
v -0.259854 1.249257 0.850432
v -0.284854 1.192120 0.852818
v -0.269825 1.112600 0.850002
v -0.216390 1.043759 0.851799
v -0.262562 1.192498 0.841810
v -0.146422 1.309962 0.836960
v -0.200824 1.269601 0.836795
v -0.201908 1.109500 0.831430
v -0.174442 1.042472 0.839814
v -0.079701 0.991904 0.844966
v -0.006756 1.368842 0.851522
v -0.079701 1.353127 0.844966
v -0.006756 0.976189 0.851522
v -0.178865 1.206015 0.826175
v -0.079860 1.046131 0.828039
v -0.048190 1.270167 0.823125
v -0.063392 1.169852 0.817659
v -0.001448 1.010337 0.834306
v -0.140744 1.120650 0.896479
v -0.939880 0.615048 0.567531
v -1.131321 0.612371 0.560600
v -0.941547 0.608013 0.555354
v -0.939632 0.563813 0.537398
v -1.124018 0.603504 0.551866
v -0.941181 0.487009 0.553179
v -0.944387 0.479252 0.562681
v -1.132846 0.517148 0.540252
v -0.934875 0.591705 0.546130
v -1.039469 0.375841 0.533269
v -0.928630 0.518631 0.543029
v -1.034676 0.684943 0.514845
v -0.923122 0.591625 0.553849
v -1.027493 0.619614 0.502544
v -1.122030 0.575682 0.540252
v -0.917179 0.555914 0.547841
v -1.109709 0.527007 0.541664
v -0.987498 0.481408 0.503152
v -1.124018 0.489326 0.551866
v -0.923746 0.604306 0.567181
v -0.920488 0.507085 0.552251
v -1.119099 0.613916 0.568763
v -0.931432 0.481506 0.567577
v -1.111902 0.602917 0.557063
v -0.910081 0.573706 0.568219
v -1.102867 0.574197 0.549005
v -0.907322 0.536733 0.568184
v -0.914988 0.503563 0.567838
v -1.111902 0.489913 0.557063
v -1.093594 0.536918 0.556855
v -1.100563 0.503730 0.559633
v -0.918318 0.691204 0.526989
v -1.120992 0.478080 0.568728
v -0.900169 0.658447 0.517107
v -1.105068 0.602669 0.570054
v -0.863450 0.600241 0.512389
v -0.883131 0.517801 0.507900
v -1.094724 0.573827 0.561930
v -0.967118 0.391929 0.524156
v -0.944331 0.704371 0.532489
v -1.091287 0.567594 0.573220
v -1.093315 0.517918 0.572821
v -0.864375 0.463489 0.516972
v -0.910843 0.429013 0.517113
v -0.986238 0.378609 0.536679
v -0.986238 0.714221 0.537938
v -0.811641 0.529347 0.521255
v -0.860980 0.666778 0.533244
v -0.830037 0.640553 0.532809
v -0.805437 0.597594 0.528252
v -0.813954 0.480865 0.528620
v -0.830037 0.452277 0.532809
v -0.860979 0.426052 0.533244
v -0.924949 0.394459 0.532420
v -0.792839 0.514898 0.534966
v -0.980538 0.525237 0.573220
v -0.806642 0.610450 0.539629
v -0.788482 0.559166 0.535964
v -0.806642 0.482380 0.539629
v -0.975340 0.574184 0.557199
v -0.978231 0.536918 0.556855
v -0.898541 0.404672 0.540726
v -0.944331 0.388459 0.542127
v -0.970627 0.502648 0.559329
v -0.916647 0.696961 0.540070
v -0.958092 0.611641 0.569276
v -0.851080 0.656395 0.544830
v -0.963474 0.602980 0.560626
v -0.792600 0.529670 0.543959
v -0.851080 0.436435 0.544830
v -0.950833 0.478080 0.568728
v -0.957671 0.590211 0.547347
v -0.962261 0.555918 0.541158
v -0.955225 0.515865 0.541124
v -0.807536 0.593557 0.548967
v -0.811770 0.546415 0.553349
v -0.955740 0.488824 0.554654
v -0.822745 0.494886 0.553260
v -0.967118 0.700901 0.550461
v -0.901326 0.656546 0.558395
v -0.901326 0.436284 0.558395
v -0.938747 0.403678 0.551955
v -1.145190 0.606854 0.567204
v -1.156837 0.589267 0.567838
v -1.164503 0.556097 0.568184
v -0.861748 0.596393 0.562154
v -0.868360 0.508423 0.564208
v -1.148078 0.488524 0.567181
v -1.132631 0.614838 0.567829
v -1.148330 0.587121 0.549334
v -1.039469 0.716990 0.541348
v -1.154170 0.527678 0.548178
v -1.143484 0.493171 0.553471
v -1.130484 0.477467 0.566860
v -1.146455 0.568197 0.542829
v -1.026522 0.380122 0.546864
v -1.134557 0.553470 0.537388
v -1.037149 0.684942 0.559771
v -1.035913 0.631369 0.570514
v -0.978509 0.574913 0.572821
v -1.034675 0.407888 0.559771
v -1.103990 0.700687 0.550666
v -1.170499 0.656546 0.558395
v -1.203465 0.584407 0.564208
v -1.170499 0.436284 0.558395
v -1.121510 0.390558 0.546893
v -1.210077 0.496438 0.562154
v -1.085587 0.378609 0.537938
v -1.085587 0.714221 0.536679
v -1.129372 0.704133 0.541005
v -1.249079 0.597944 0.553260
v -1.186643 0.679983 0.543643
v -1.241788 0.640553 0.541808
v -1.264288 0.499273 0.548967
v -1.235331 0.451337 0.545246
v -1.186643 0.412847 0.543643
v -1.265183 0.610450 0.539629
v -1.271615 0.571663 0.549187
v -1.265183 0.482380 0.539629
v -1.173283 0.688159 0.533891
v -1.210845 0.666778 0.533244
v -1.278986 0.577932 0.534966
v -1.283342 0.533664 0.538653
v -1.241788 0.452277 0.532809
v -1.210845 0.426052 0.533244
v -1.173283 0.404672 0.533891
v -1.129372 0.388698 0.533612
v -1.116933 0.704856 0.529683
v -1.247690 0.628562 0.528875
v -1.277536 0.528539 0.528803
v -1.257871 0.480865 0.528620
v -1.260183 0.563484 0.521255
v -1.144827 0.678515 0.519165
v -1.207450 0.629341 0.516972
v -1.208375 0.492589 0.512389
v -1.184915 0.435336 0.519550
v -1.103990 0.392143 0.523951
v -1.026522 0.712708 0.527752
v -1.188693 0.575030 0.507900
v -1.104125 0.438462 0.509492
v -1.090058 0.544139 0.500627
v -1.037150 0.407888 0.514845
v -1.107801 0.486900 0.570958
v -1.161744 0.519124 0.568219
v -0.964177 0.487130 0.570878
vn 0.0068 -0.3342 -0.9425
vn 0.1286 -0.5679 -0.8130
vn -0.1110 -0.5631 -0.8189
vn 0.0361 -0.0924 -0.9951
vn 0.1670 -0.3049 -0.9376
vn 0.0058 -0.3346 -0.9423
vn 0.1142 -0.5649 -0.8172
vn -0.1093 -0.5636 -0.8188
vn -0.1820 0.7646 -0.6183
vn -0.0012 0.3100 -0.9507
vn -0.1503 0.3602 -0.9207
vn -0.1864 -0.1224 -0.9748
vn -0.0352 -0.0087 -0.9993
vn -0.0630 -0.1892 -0.9799
vn 0.1844 -0.1205 -0.9754
vn 0.5097 -0.5911 -0.6251
vn 0.1390 -0.9896 -0.0366
vn -0.0162 -0.7331 -0.6799
vn 0.1276 0.5736 -0.8091
vn 0.1390 0.9896 -0.0366
vn 0.2951 0.9540 0.0523
vn 0.1225 0.0461 -0.9914
vn 0.2169 0.2270 -0.9494
vn 0.3720 0.0478 -0.9270
vn 0.6221 -0.2886 -0.7278
vn 0.4120 0.7220 -0.5559
vn 0.3789 0.8403 0.3877
vn 0.5345 0.7634 0.3627
vn 0.3962 -0.8293 -0.3941
vn 0.6642 0.6425 -0.3821
vn 0.5688 0.3389 -0.7494
vn 0.9486 0.2204 -0.2270
vn 0.9729 0.0096 -0.2310
vn 0.9446 -0.2572 0.2041
vn 0.5256 0.5220 0.6718
vn 0.0320 0.1349 0.9903
vn 0.0353 0.0615 0.9975
vn 0.0333 0.0673 0.9972
vn 0.8407 0.4851 0.2405
vn 0.6171 0.1732 0.7676
vn 0.5900 0.0132 0.8073
vn 0.1333 0.9893 0.0586
vn 0.1239 0.5682 0.8135
vn 0.3788 0.8792 0.2892
vn 0.3380 0.2106 0.9173
vn 0.1146 0.5624 0.8189
vn -0.0022 0.3317 0.9434
vn 0.1683 0.3022 0.9383
vn 0.1762 0.0902 0.9802
vn 0.4486 0.0325 0.8931
vn -0.0028 -0.3295 0.9442
vn 0.1126 -0.5627 0.8189
vn 0.1725 -0.2889 0.9417
vn 0.7088 -0.6280 0.3213
vn 0.3514 -0.1777 0.9192
vn 0.3387 -0.7387 0.5828
vn -0.0000 1.0000 -0.0000
vn 0.0162 0.7331 0.6799
vn -0.0000 -1.0000 -0.0000
vn 0.0162 -0.7331 0.6799
vn -0.1082 -0.0074 0.9941
vn -0.1521 0.0721 0.9857
vn -0.1737 -0.0939 0.9803
vn -0.1167 0.5607 0.8197
vn 0.1569 -0.0669 0.9853
vn 0.1621 -0.3118 -0.9362
vn 0.3116 -0.8311 -0.4605
vn 0.6406 0.2750 -0.7170
vn 0.6746 0.6269 -0.3898
vn 0.8376 0.5082 0.2004
vn -0.0632 -0.1894 -0.9799
vn -0.0162 0.7331 -0.6799
vn -0.1071 0.5600 -0.8215
vn 0.0363 -0.0918 -0.9951
vn 0.0930 0.0994 0.9907
vn 0.1039 0.0398 0.9938
vn 0.1795 0.1117 0.9774
vn 0.0017 0.3339 -0.9426
vn 0.0095 0.1061 -0.9943
vn 0.1199 -0.0434 -0.9918
vn -0.1714 0.2956 0.9398
vn -0.3563 0.1808 0.9167
vn -0.1702 -0.3018 0.9380
vn -0.3123 -0.8221 0.4761
vn -0.1167 -0.5608 0.8197
vn -0.3350 -0.2198 0.9162
vn -0.7090 -0.6355 0.3056
vn -0.1365 0.9900 0.0365
vn -0.3123 0.8221 0.4761
vn -0.8541 0.4696 0.2234
vn -0.9212 0.2915 0.2578
vn -0.3596 0.0085 0.9331
vn -0.5779 -0.1687 0.7985
vn -0.5198 -0.7567 0.3966
vn -0.4055 -0.8442 -0.3506
vn -0.5198 0.7567 0.3966
vn -0.6918 0.6324 0.3485
vn -0.8154 -0.5443 0.1971
vn -0.9691 -0.0210 0.2459
vn -0.9706 -0.2296 -0.0728
vn -0.2570 0.8965 -0.3610
vn -0.4087 0.8417 -0.3528
vn -0.5794 0.3714 -0.7255
vn -0.5078 0.6112 -0.6072
vn -0.6060 -0.2936 -0.7393
vn -0.5153 -0.5911 -0.6206
vn -0.7763 0.0995 -0.6225
vn -0.3316 0.0448 -0.9423
vn -0.1840 -0.1200 -0.9756
vn -0.1996 -0.3273 -0.9236
vn -0.2077 0.2045 -0.9566
vn -0.1551 0.3123 -0.9372
vn 0.0141 0.0406 0.9991
vn 0.0525 0.1451 0.9880
vn 0.0001 0.1330 0.9911
vn 0.6349 -0.2988 0.7125
vn -0.1365 -0.9900 0.0365
vn -0.1256 0.0487 -0.9909
vn -0.0214 -0.1368 0.9904
vn -0.1592 -0.2755 0.9480
vn -0.0029 -0.2962 0.9551
vn -0.1162 -0.4509 0.8850
vn -0.1419 -0.0718 0.9873
vn -0.0350 -0.0089 -0.9993
vn -0.4201 0.1140 0.9003
vn -0.2935 0.7441 0.6002
vn -0.8030 0.3805 0.4587
vn -0.3802 0.3793 0.8435
vn -0.5558 -0.3621 0.7483
vn -0.6205 -0.2438 0.7454
vn -0.8329 0.3760 0.4061
vn -0.8432 0.0985 0.5284
vn -0.9138 0.3746 0.1569
vn 0.8228 -0.3625 0.4377
vn -0.9287 -0.2272 0.2930
vn -0.9929 0.0397 0.1118
vn 0.9088 0.0867 0.4082
vn 0.2935 -0.7441 0.6002
vn 0.8719 -0.1534 0.4651
vn 0.6849 0.5527 0.4748
vn 0.4242 0.0413 0.9046
vn 0.3360 0.7779 0.5310
vn 0.1857 -0.2612 0.9473
vn 0.1066 0.7106 0.6955
vn 0.1872 -0.3109 0.9318
vn -0.3856 0.3788 0.8414
vn 0.1461 0.3600 0.9214
vn 0.2837 -0.7555 0.5905
vn -0.1314 -0.1637 0.9777
vn 0.6858 0.1861 0.7037
vn -0.1167 -0.3769 0.9189
vn 0.4566 -0.0744 0.8865
vn -0.2801 0.7634 0.5820
vn -0.3360 -0.7779 0.5310
vn -0.6121 -0.7283 0.3080
vn -0.8884 0.1020 0.4475
vn 0.4650 -0.1087 0.8786
vn 0.6982 0.1937 0.6892
vn 0.8022 -0.4755 0.3612
vn 0.9253 0.0850 0.3696
vn 0.6661 0.5450 0.5092
vn 0.1261 0.8143 0.5666
vn -0.1219 0.0533 -0.9911
vn 0.0986 0.8044 0.5859
vn 0.2161 -0.2269 -0.9496
vn -0.1830 -0.1075 0.9772
vn -0.1001 -0.1607 0.9819
vn -0.1039 -0.0398 0.9938
vn -0.0328 0.0967 0.9948
vn 0.1721 0.2770 -0.9453
vn 0.1826 0.1252 -0.9752
vn 0.3782 -0.0461 -0.9246
vn 0.1320 -0.9895 -0.0583
vn -0.0083 -0.9353 -0.3537
vn 0.0225 0.7475 -0.6639
vn -0.0083 0.9353 0.3537
vn 0.9859 0.1158 -0.1206
vn 0.5187 0.7692 -0.3732
vn 0.2558 0.6305 -0.7328
vn 0.5180 -0.7577 -0.3970
vn 0.5688 -0.3389 -0.7494
vn 0.9265 -0.2557 -0.2760
vn 0.8374 -0.4833 0.2552
vn 0.4178 -0.8385 0.3499
vn 0.5459 0.2107 0.8109
vn 0.2079 0.8764 -0.4344
vn 0.2273 -0.8807 0.4156
vn 0.0200 -0.7507 0.6603
vn 0.5015 0.5996 0.6237
vn -0.0879 0.0488 0.9949
vn 0.3293 0.0050 0.9442
vn 0.7817 -0.1019 0.6152
vn 0.3526 -0.1911 0.9161
vn 0.1677 -0.2924 0.9415
vn 0.1438 -0.4434 0.8847
vn 0.1667 0.3014 0.9388
vn 0.5060 -0.6013 0.6184
vn -0.1267 0.9916 -0.0256
vn -0.0598 0.0220 0.9980
vn -0.1561 0.0662 0.9855
vn -0.0847 0.0705 0.9939
vn -0.0004 0.3393 0.9407
vn -0.1939 -0.7039 0.6833
vn 0.0383 0.0945 -0.9948
vn -0.1676 0.2805 0.9451
vn -0.0364 0.1304 -0.9908
vn 0.0925 -0.1294 0.9873
vn 0.1520 -0.0699 0.9859
vn 0.0836 -0.0591 0.9947
vn -0.3304 0.1949 0.9235
vn -0.1296 -0.9910 0.0335
vn -0.4073 -0.7294 0.5497
vn -0.2958 -0.9132 -0.2804
vn -0.5832 0.1134 0.8044
vn -0.5247 -0.2006 0.8273
vn -0.4112 0.7233 0.5547
vn -0.3868 0.8501 -0.3574
vn -0.5390 0.7522 -0.3790
vn -0.1049 0.5571 0.8238
vn -0.2821 0.9091 0.3066
vn -0.5108 -0.5277 0.6787
vn -0.8646 -0.4769 0.1586
vn -0.6581 -0.6353 -0.4040
vn -0.8516 0.4831 0.2035
vn -0.5632 -0.7604 -0.3234
vn -0.9393 0.2559 -0.2285
vn -0.6556 0.6406 0.3998
vn -0.5833 0.4611 -0.6687
vn -0.3614 0.0684 -0.9299
vn -0.6714 -0.1450 -0.7268
vn -0.2005 0.2255 -0.9534
vn -0.9769 -0.0925 0.1926
vn -0.5644 -0.3294 -0.7569
vn -0.2096 -0.3287 -0.9209
vn -0.3626 -0.8650 -0.3469
vn -0.3802 -0.3793 0.8435
vn 0.5616 0.7404 0.3694
vn 0.0207 -0.1361 0.9905
vn 0.8972 -0.3935 0.2004
vn -0.0921 0.0739 0.9930
vn -0.2761 -0.7803 0.5612
vn -0.8223 -0.3780 0.4253
vn -0.4192 -0.0799 0.9043
vn -0.8432 -0.0985 0.5284
vn -0.9641 -0.0649 0.2576
vn 0.1735 0.9848 0.0059
vn -0.3809 0.3736 0.8458
vn 0.8814 -0.1992 0.4283
vn 0.8403 0.3615 0.4041
vn 0.8505 -0.0936 0.5175
vn 0.9231 0.0692 0.3784
vn 0.4877 -0.7954 0.3599
vn 0.4497 0.2699 0.8514
vn 0.2842 -0.5438 0.7896
vn 0.1911 -0.3021 0.9339
vn 0.1977 0.7256 0.6591
vn 0.5240 -0.7544 0.3955
vn 0.1685 -0.2189 0.9611
vn -0.0818 0.1036 0.9912
vn -0.5358 -0.2260 0.8135
vn -0.6714 0.1117 0.7326
vn -0.8531 0.1040 0.5114
vn -0.5156 -0.6328 0.5777
vn -0.5458 0.5900 0.5950
vn -0.3624 0.4121 0.8359
vn 0.6804 -0.3566 0.6403
vn 0.3233 0.8032 0.5004
vn 0.6713 0.2005 0.7135
vn 0.0776 -0.4666 0.8811
vn 0.7369 -0.0634 0.6730
vn 0.3115 -0.7614 0.5686
vn 0.2289 -0.2025 0.9522
vn 0.1549 0.0264 0.9876
vn 0.0308 -0.1362 0.9902
vn 0.0499 -0.0604 0.9969
vn 0.0090 -0.0443 0.9990
vn -0.1652 -0.7999 0.5769
vn 0.7354 0.5546 0.3894
vn -0.8308 -0.2566 0.4939
vn 0.9671 0.0672 0.2453
vn 0.6763 -0.6448 -0.3562
vn -0.0216 -0.1338 0.9908
vn 0.0978 -0.0052 0.9952
vn -0.9971 0.0402 0.0652
vn -0.8438 -0.2226 0.4882
vn -0.2646 0.8086 0.5255
vn 0.9764 -0.0776 0.2017
vn -0.0927 -0.1305 0.9871
vn 0.1052 -0.3543 0.9292
vn -0.0060 -0.2466 0.9691
vn 0.2813 -0.9582 0.0524
vn 0.1493 0.2942 -0.9440
vn -0.0045 0.0164 0.9999
vn 0.0670 0.1364 0.9884
vn 0.8241 -0.5280 0.2050
vn 0.3860 0.0906 0.9181
vn -0.0998 -0.0655 0.9928
vn -0.1561 -0.0593 0.9860
vn -0.0478 -0.1859 0.9814
vn 0.0725 0.1495 0.9861
vn 0.7672 -0.4933 0.4099
vn 0.1080 0.0159 0.9940
vn 0.0977 0.0623 0.9933
vn 0.0871 -0.0337 0.9956
vn -0.2570 -0.8965 -0.3610
vn -0.1572 0.0609 0.9857
vn -0.0703 0.1399 0.9877
vn -0.1011 -0.7791 0.6187
vn -0.1516 0.0256 0.9881
vn -0.8371 0.3565 0.4150
vn -0.3468 0.7800 0.5209
vn -0.4102 0.3637 0.8363
vn -0.6865 -0.2027 0.6983
vn -0.7008 0.0242 0.7130
vn -0.7722 0.4226 0.4744
vn 0.9808 0.1760 0.0836
vn -0.6500 -0.1733 0.7399
vn -0.5866 0.7506 0.3043
vn -0.9154 -0.4026 -0.0019
vn 0.8034 -0.3793 0.4589
vn -0.9899 0.0486 0.1331
vn 0.8738 -0.1594 0.4593
vn -0.5626 0.7579 0.3304
vn 0.5769 0.3780 0.7240
vn -0.6379 -0.5835 0.5026
vn 0.1377 0.1249 0.9826
vn -0.4100 0.3661 0.8354
vn 0.1167 0.3755 0.9195
vn -0.1066 -0.7106 0.6955
vn -0.1291 -0.3677 0.9209
vn -0.1908 -0.2285 0.9547
vn 0.6113 -0.2085 0.7635
vn -0.1735 -0.9848 0.0059
vn -0.6549 -0.5800 0.4844
vn -0.9221 0.0692 0.3808
vn -0.7312 -0.5402 0.4165
vn 0.9026 0.4303 0.0128
vn 0.8044 -0.3783 0.4580
vn 0.5736 -0.7547 0.3186
vn 0.5110 0.7232 0.4646
vn 0.3468 -0.7800 0.5209
vn 0.9743 -0.1959 0.1114
vn 0.5817 0.3777 0.7204
vn -0.6579 0.0401 0.7520
vn 0.3783 -0.4251 0.8223
vn 0.3711 -0.4457 0.8147
vn 0.1017 -0.1266 0.9867
vn 0.0849 -0.1420 0.9862
vn -0.0724 0.1499 0.9860
vn -0.0978 0.0052 0.9952
vn -0.0143 0.0208 0.9997
vn -0.0036 -0.0355 0.9994
vn 0.3149 -0.6116 0.7258
vn -0.0515 0.1464 0.9879
vn -0.0366 0.0722 0.9967
vn -0.0121 0.0305 0.9995
vn 0.0009 -0.0308 0.9995
vn -0.0009 -0.0387 0.9993
vn 0.9287 0.2272 0.2931
vn -0.4102 -0.3637 0.8363
vn -0.0925 -0.0318 0.9952
vn 0.8707 -0.4890 -0.0521
vn -0.1897 -0.0195 0.9816
vn -0.1948 0.3246 0.9256
vn -0.2785 -0.7793 0.5613
vn -0.0858 -0.9475 0.3079
vn -0.1732 0.7557 0.6316
vn -0.5825 0.3408 0.7379
vn -0.7357 0.2084 0.6444
vn -0.6809 -0.0152 0.7322
vn -0.7760 -0.4127 0.4771
vn -0.7562 0.5566 0.3439
vn -0.9299 -0.3577 0.0856
vn -0.9352 0.2196 0.2777
vn -0.9062 0.4204 0.0457
vn 0.5248 -0.6158 0.5877
vn -0.4184 0.0113 0.9082
vn 0.1548 -0.3711 0.9156
vn 0.1571 0.4225 0.8927
vn -0.1024 0.3406 0.9346
vn -0.4764 -0.7315 0.4878
vn -0.4682 -0.1903 0.8629
vn -0.3347 0.7822 0.5255
vn -0.8695 -0.3775 0.3184
vn -0.1735 0.9848 0.0059
vn -0.7419 0.5485 0.3857
vn -0.9218 -0.0691 0.3814
vn 0.6191 -0.2190 0.7542
vn 0.4878 0.7640 0.4224
vn 0.8255 -0.0919 0.5569
vn 0.9191 0.3937 0.0156
vn 0.6851 0.5962 0.4185
vn 0.6274 0.1095 0.7709
vn 0.5669 0.3600 0.7410
vn 0.1585 0.7381 0.6559
vn 0.2056 -0.8593 0.4683
vn 0.1447 0.4406 0.8860
vn 0.0709 -0.3090 0.9484
vn 0.0666 -0.1321 0.9890
vn 0.0923 0.1287 0.9874
vn -0.4931 -0.7394 0.4583
vn 0.5340 -0.7885 0.3051
vn -0.5458 0.7778 0.3118
vn -0.9027 -0.2047 0.3785
vn 0.9524 0.0837 0.2930
vn -0.1344 0.2256 0.9649
vn 0.8297 0.3264 0.4529
vn -0.9073 0.2059 0.3666
vn -0.4530 -0.5721 0.6838
vn 0.9930 -0.0397 0.1117
vt 0.751273 0.206263
vt 0.640032 0.145802
vt 0.850337 0.152153
vt 0.718750 0.378357
vt 0.620409 0.275918
vt 0.751273 0.206264
vt 0.640031 0.145802
vt 0.850338 0.152153
vt 0.923370 0.875000
vt 0.748604 0.793707
vt 0.876367 0.781969
vt 0.881521 0.403125
vt 0.781250 0.495728
vt 0.811739 0.304904
vt 0.618480 0.403125
vt 0.538831 0.279832
vt 0.486194 0.062500
vt 0.771025 0.062500
vt 0.640031 0.854198
vt 0.486191 0.937500
vt 0.493933 0.875000
vt 0.643392 0.545604
vt 0.604726 0.659550
vt 0.569789 0.530831
vt 0.537124 0.404597
vt 0.540122 0.783028
vt 0.485532 0.812500
vt 0.486303 0.750000
vt 0.514467 0.187500
vt 0.512830 0.687500
vt 0.537383 0.625000
vt 0.506274 0.562500
vt 0.507108 0.500000
vt 0.493725 0.437500
vt 0.461764 0.687500
vt 0.281250 0.658432
vt 0.289837 0.565865
vt 0.300437 0.610611
vt 0.493997 0.625000
vt 0.463165 0.562500
vt 0.459437 0.500000
vt 0.513804 0.937500
vt 0.359968 0.854198
vt 0.474120 0.837981
vt 0.428750 0.625000
vt 0.350338 0.847847
vt 0.251273 0.793737
vt 0.377140 0.721403
vt 0.380319 0.586524
vt 0.875360 0.413942
vt 0.781995 0.527697
vt 0.838174 0.601476
vt 0.251273 0.206264
vt 0.350337 0.152153
vt 0.377140 0.278597
vt 0.487170 0.312500
vt 0.428919 0.403943
vt 0.459210 0.187500
vt 0.390625 1.000000
vt 0.271025 0.937500
vt 0.390625 0.000000
vt 0.271025 0.062500
vt 0.163051 0.483426
vt 0.130452 0.567693
vt 0.119681 0.413476
vt 0.140032 0.854199
vt 0.369547 0.432307
vt 0.624729 0.259341
vt 0.541682 0.154086
vt 0.537124 0.595403
vt 0.512830 0.687500
vt 0.493997 0.625000
vt 0.811740 0.304903
vt 0.771025 0.937500
vt 0.850338 0.847847
vt 0.718750 0.374888
vt 0.329952 0.609068
vt 0.336123 0.548741
vt 0.380319 0.586523
vt 0.751273 0.793736
vt 0.746005 0.639902
vt 0.643391 0.454396
vt 0.122860 0.721404
vt 0.071081 0.596057
vt 0.122860 0.278595
vt 0.041683 0.154086
vt 0.140032 0.145802
vt 0.071250 0.375000
vt 0.012830 0.312500
vt 0.007562 0.937500
vt 0.041682 0.845914
vt 0.006003 0.625000
vt 0.006275 0.562500
vt 0.068723 0.500000
vt 0.036836 0.437500
vt 0.013697 0.250000
vt 0.000000 0.187500
vt 0.013697 0.750000
vt 0.012830 0.687500
vt 0.006003 0.375000
vt 0.007108 0.500000
vt 0.000000 0.437500
vt 0.000000 0.875000
vt 0.000000 0.812500
vt 1.000000 0.687500
vt 0.962617 0.625000
vt 1.000000 0.625000
vt 1.000000 0.750000
vt 0.961169 0.720168
vt 0.985533 0.812500
vt 1.000000 0.312500
vt 0.962876 0.404597
vt 0.961169 0.279832
vt 1.000000 0.437500
vt 0.968750 0.530650
vt 0.930211 0.530832
vt 1.000000 0.562500
vt 1.000000 0.500000
vt 0.881520 0.403125
vt 0.894958 0.276569
vt 0.895274 0.659550
vt 0.985533 0.187500
vt 0.978112 0.875000
vt 0.975882 0.937500
vt 0.875271 0.740659
vt 0.288351 0.553176
vt 0.305858 0.621623
vt 0.250361 0.656335
vt 0.795349 0.655014
vt 0.874184 0.801354
vt 0.925276 0.586161
vt 0.975885 0.062500
vt 0.890625 1.000000
vt 0.890625 0.000000
vt 0.856608 0.545604
vt 0.199683 0.389091
vt 0.122860 0.278597
vt 0.251396 0.206293
vt 0.704651 0.655014
vt 0.675908 0.801600
vt 0.775102 0.803036
vt 0.781995 0.527698
vt 0.673762 0.543271
vt 0.781250 0.495729
vt 0.624335 0.369905
vt 0.725347 0.366307
vt 0.724898 0.196962
vt 0.750364 0.083333
vt 0.625815 0.198645
vt 0.537324 0.194758
vt 0.624336 0.369905
vt 0.625174 0.197203
vt 0.573802 0.716209
vt 0.524164 0.196397
vt 0.550000 0.370064
vt 0.573714 0.543228
vt 0.497213 0.366797
vt 0.860136 0.649499
vt 0.962674 0.805243
vt 0.969419 0.640708
vt 0.496212 0.597880
vt 0.922955 0.322885
vt 0.875879 0.498492
vt 0.960676 0.517372
vt 0.749635 0.916667
vt 0.920442 0.107240
vt 0.824091 0.198399
vt 0.825505 0.369864
vt 0.724898 0.196962
vt 0.820033 0.926175
vt 0.874827 0.802796
vt 0.673762 0.543271
vt 0.675908 0.801600
vt 0.812151 0.040683
vt 0.579560 0.892765
vt 0.625815 0.801354
vt 0.524163 0.803602
vt 0.563846 0.916205
vt 0.520306 0.376060
vt 0.600000 0.543234
vt 0.875879 0.498492
vt 0.930277 0.308823
vt 0.825505 0.369864
vt 0.982732 0.817909
vt 0.976167 0.702508
vt 0.958558 0.183854
vt 0.824091 0.198399
vt 0.936155 0.083796
vt 0.856608 0.545605
vt 0.604725 0.340451
vt 0.119681 0.413477
vt 0.170048 0.390931
vt 0.163877 0.451259
vt 0.227301 0.629880
vt 0.620409 0.724082
vt 0.618479 0.596876
vt 0.569789 0.469168
vt 0.486195 0.062500
vt 0.722399 0.031849
vt 0.727441 0.918664
vt 0.609375 1.000000
vt 0.504444 0.523424
vt 0.513697 0.750000
vt 0.576127 0.812500
vt 0.513697 0.250000
vt 0.537383 0.375000
vt 0.506275 0.437500
vt 0.493997 0.375000
vt 0.485533 0.187500
vt 0.451401 0.583864
vt 0.530197 0.875000
vt 0.469803 0.125000
vt 0.272559 0.081336
vt 0.461168 0.720168
vt 0.163877 0.548741
vt 0.431277 0.500000
vt 0.468750 0.469351
vt 0.428920 0.403942
vt 0.377140 0.278597
vt 0.377176 0.187500
vt 0.377140 0.721403
vt 0.461168 0.279832
vt 0.828125 1.000000
vt 0.992437 0.937500
vt 0.171240 0.615042
vt 0.130452 0.567692
vt 0.165771 0.578410
vt 0.247317 0.793648
vt 0.087272 0.139398
vt 0.718750 0.625279
vt 0.122860 0.721403
vt 0.781250 0.663429
vt 0.325331 0.377386
vt 0.369548 0.432308
vt 0.334229 0.421589
vt 0.071080 0.596058
vt 0.007562 0.062500
vt 0.040122 0.216972
vt 0.000000 0.125000
vt 0.040537 0.547011
vt 0.048599 0.416135
vt 0.040122 0.783028
vt 0.000000 0.750000
vt 0.149663 0.847846
vt 0.024114 0.937500
vt 0.021889 0.875000
vt 0.038236 0.312500
vt 0.006002 0.375000
vt 0.000000 0.312500
vt 0.006002 0.625000
vt 0.000000 0.250000
vt 0.000000 0.562500
vt 0.012830 0.687500
vt 0.986303 0.750000
vt 0.962172 0.657586
vt 0.993726 0.562500
vt 0.930211 0.530832
vt 0.965846 0.467500
vt 1.000000 0.875000
vt 0.895274 0.659549
vt 1.000000 0.476575
vt 1.000000 0.375000
vt 0.962617 0.375000
vt 0.987170 0.312500
vt 0.894958 0.276569
vt 0.985534 0.187500
vt 0.985533 0.812500
vt 0.975886 0.062500
vt 0.725346 0.633693
vt 0.724897 0.803036
vt 0.855709 0.197374
vt 0.982733 0.182090
vt 0.922148 0.071399
vt 0.300340 0.389168
vt 0.897300 0.796642
vt 1.000000 0.644355
vt 0.925536 0.629996
vt 0.674248 0.410849
vt 0.774653 0.366307
vt 0.789008 0.893193
vt 0.624336 0.630094
vt 0.573714 0.456771
vt 0.550000 0.629936
vt 0.496216 0.597982
vt 0.861622 0.044593
vt 0.625815 0.198645
vt 0.724897 0.196963
vt 0.870898 0.698663
vt 0.975138 0.706334
vt 0.981983 0.541223
vt 0.959286 0.187600
vt 0.850838 0.228343
vt 0.979695 0.376061
vt 0.882170 0.943316
vt 0.954929 0.835746
vt 0.820031 0.073825
vt 0.486303 0.250000
vt 0.674495 0.369865
vt 0.732549 0.577453
vt 0.799300 0.367472
vt 0.623590 0.543247
vt 0.617662 0.724714
vt 0.704967 0.716676
vt 0.613131 0.307827
vt 0.518017 0.458776
vt 0.540714 0.812399
vt 0.725167 0.833333
vt 0.563993 0.117827
vt 0.725106 0.185269
vt 0.824702 0.714862
vt 0.749636 0.083333
vt 0.926198 0.283791
vt 0.926286 0.456772
vt 0.826238 0.543272
vt 0.953674 0.879234
vt 0.281250 0.341568
vt 0.299194 0.393404
vt 0.288422 0.446699
vt 0.007562 0.062500
vt 0.577852 0.928601
vt 0.974543 0.280095
vt 0.524862 0.706335
vt 0.632478 0.695008
vt 1.000000 0.354710
vt 1.000000 0.544354
vt 0.512830 0.312500
vt 0.199811 0.388812
vt 0.336949 0.483426
vt 0.497189 0.367555
vt 0.520306 0.623939
vt 0.174669 0.377386
vt 0.188734 0.370880
vt 0.311266 0.370880
vt 0.493932 0.125000
vt 0.624729 0.740659
vt 0.286006 0.518937
vt 0.311266 0.629120
vt 0.493997 0.375000
vt 0.166111 0.417020
vt 0.177288 0.371605
vt 0.188734 0.370880
vt 0.320242 0.629358
vt 0.336949 0.516574
vt 0.334229 0.578410
vt 0.336123 0.451259
vt 1.000000 0.250000
vt 0.978110 0.125000
vt 0.671875 0.000000
vt 0.140625 1.000000
vt 0.177287 0.628394
vt 0.188734 0.629120
vt 0.577853 0.071399
vt 0.541443 0.816146
vt 0.517267 0.182089
vt 0.577852 0.071399
vt 0.638378 0.955407
vt 0.518017 0.541225
vt 0.922149 0.928600
vt 0.640625 1.000000
vt 0.171875 0.000000
vt 0.330322 0.392786
vt 0.320242 0.370642
vt 0.170322 0.968151
vt 0.179758 0.629358
vt 0.163051 0.516573
vt 0.212343 0.539163
vt 0.211592 0.446696
vt 0.190874 0.628261
vt 0.199563 0.610611
vt 0.212339 0.539191
vt 0.287661 0.460809
vt 0.211650 0.446825
vt 0.004444 0.476575
vt 0.978110 0.125000
vt 0.986303 0.250000
vt 1.000000 0.393114
vt 0.200806 0.606595
vt 0.678867 0.963694
vt 0.562907 0.292941
vt 0.627770 0.940835
vt 0.638378 0.044592
vt 0.605886 0.063713
vt 0.524862 0.293662
vt 0.812152 0.959317
vt 0.309126 0.371739
vt 0.325330 0.622615
vt 0.921561 0.917617
vt 0.592046 0.082472
vt 0.169678 0.607214
s 1
usemtl goldlight
f 158/1/1 41/2/2 150/3/3
f 20/4/4 40/5/5 158/1/1
f 301/6/6 198/7/7 296/8/8
f 287/9/9 171/10/10 292/11/11
f 294/12/12 300/13/13 299/14/14
f 38/15/15 54/16/16 40/5/5
f 41/2/2 47/17/17 153/18/18
f 11/19/19 43/20/20 49/21/21
f 37/22/22 45/23/23 48/24/24
f 48/24/24 53/25/25 38/15/15
f 50/26/26 61/27/27 63/28/28
f 11/19/19 49/21/21 50/26/26
f 40/5/5 55/29/29 41/2/2
f 45/23/23 50/26/26 51/30/30
f 48/24/24 52/31/31 57/32/32
f 45/23/23 51/30/30 52/31/31
f 48/24/24 57/32/32 58/33/33
f 58/33/33 65/34/34 53/25/25
f 63/28/28 75/35/35 51/30/30
f 50/26/26 49/21/21 61/27/27
f 109/36/36 59/37/37 66/38/38
f 52/31/31 51/30/30 64/39/39
f 64/39/39 76/40/40 57/32/32
f 57/32/32 77/41/41 58/33/33
f 205/42/42 238/43/43 224/44/44
f 75/35/35 83/45/45 64/39/39
f 91/46/46 108/47/47 87/48/48
f 83/45/45 94/49/49 76/40/40
s 0
f 251/50/50 256/51/50 254/52/50
s 1
f 111/53/51 89/54/52 88/55/53
f 63/28/28 87/48/48 75/35/35
f 68/56/54 85/57/55 88/55/53
f 49/21/21 91/46/46 61/27/27
f 79/58/56 88/55/53 89/54/52
f 61/27/27 87/48/48 63/28/28
f 43/20/20 91/46/46 49/21/21
f 87/48/48 94/49/49 83/45/45
f 43/20/20 1/59/57 90/60/58
f 10/61/59 47/17/17 101/62/60
f 95/63/61 115/64/62 119/65/63
f 112/66/64 108/47/47 91/46/46
f 94/49/49 96/67/65 77/41/41
f 47/17/17 89/54/52 101/62/60
f 203/68/66 213/69/67 198/7/7
f 209/70/68 208/71/69 216/72/70
f 158/1/1 155/73/71 20/4/4
f 151/74/72 11/19/19 152/75/73
f 299/14/14 300/13/13 177/76/74
f 179/77/75 184/78/76 245/79/77
f 11/19/19 14/80/78 152/75/73
f 173/81/79 196/82/80 177/76/74
f 115/64/62 114/83/81 121/84/82
f 116/85/83 130/86/84 117/87/85
f 123/88/86 128/89/87 116/85/83
f 112/66/64 118/90/88 124/91/89
f 121/84/82 131/92/90 132/93/91
f 122/94/92 127/95/93 119/65/63
f 129/96/94 138/97/95 130/86/84
f 114/83/81 124/91/89 125/98/96
f 114/83/81 125/98/96 126/99/97
f 127/95/93 134/100/98 123/88/86
f 121/84/82 126/99/97 131/92/90
f 133/101/99 137/102/100 127/95/93
f 37/22/22 38/15/15 20/4/4
f 122/94/92 132/93/91 133/101/99
f 124/91/89 118/90/88 135/103/101
f 124/91/89 135/103/101 136/104/102
f 126/105/97 141/106/103 131/107/90
f 125/108/96 140/109/104 126/105/97
f 136/110/102 140/109/104 125/108/96
f 128/111/87 143/112/105 144/113/106
f 137/114/100 142/115/107 143/112/105
f 141/106/103 145/116/108 142/115/107
f 132/117/91 142/115/107 133/118/99
f 131/107/90 142/115/107 132/117/91
f 144/113/106 148/119/109 149/120/110
f 140/109/104 147/121/111 141/106/103
f 138/122/95 149/120/110 150/3/3
f 135/123/101 152/75/73 136/110/102
f 118/124/88 152/75/73 135/123/101
f 136/110/102 146/125/112 140/109/104
f 143/112/105 145/116/108 148/119/109
f 259/126/113 225/127/114 258/128/115
f 149/120/110 148/119/109 155/73/71
s 0
f 81/129/116 74/130/116 69/131/116
s 1
f 120/132/117 150/3/3 153/18/18
f 118/124/88 1/133/57 151/74/72
f 10/134/59 120/132/117 153/18/18
f 147/121/111 154/135/118 145/116/108
f 108/47/47 112/66/64 114/83/81
f 302/136/119 264/137/120 260/138/121
f 53/25/25 68/56/54 54/16/16
s 0
f 15/139/122 13/140/122 4/141/122
f 107/142/123 17/143/123 15/139/123
s 1
f 155/73/71 157/144/124 20/4/4
s 0
f 29/145/125 17/143/125 7/146/125
f 22/147/126 106/148/126 30/149/126
f 28/150/127 18/151/127 19/152/127
f 30/149/128 7/146/128 22/147/128
f 15/139/129 33/153/129 13/140/129
f 17/143/130 33/153/130 15/139/130
f 42/154/131 29/145/131 30/149/131
f 39/155/132 34/156/132 29/145/132
s 1
f 157/144/124 148/119/109 154/135/118
s 0
f 42/154/133 46/157/133 39/155/133
f 102/158/134 92/159/134 93/160/134
f 34/156/135 44/161/135 33/153/135
f 34/156/136 46/157/136 44/161/136
f 97/162/137 103/163/137 95/164/137
f 3/141/138 2/165/138 74/130/138
f 102/158/139 93/160/139 95/164/139
f 98/166/140 105/167/140 97/162/140
f 104/168/141 107/142/141 103/163/141
f 105/167/142 98/166/142 106/148/142
f 15/139/143 102/158/143 107/142/143
f 106/148/144 22/147/144 105/167/144
f 15/139/145 4/141/145 102/158/145
f 19/152/146 5/146/146 12/169/146
f 105/167/147 7/146/147 104/168/147
f 4/141/148 99/170/148 100/171/148
f 86/142/149 9/172/149 81/129/149
f 97/162/150 104/168/150 103/163/150
f 81/129/151 8/173/151 3/141/151
f 18/151/125 9/172/125 5/146/125
f 107/142/152 102/158/152 103/163/152
f 12/169/153 6/174/153 19/152/153
f 8/173/154 21/175/154 2/165/154
f 183/176/155 194/177/155 181/178/155
f 27/179/156 24/180/156 18/151/156
f 86/142/157 81/129/157 78/181/157
f 71/182/158 82/183/158 78/181/158
f 74/130/159 66/184/159 59/185/159
f 71/182/160 78/181/160 69/131/160
f 72/186/161 84/187/161 71/182/161
f 82/183/141 86/142/141 78/181/141
f 84/187/162 80/188/162 6/174/162
s 1
f 300/13/13 294/12/12 298/189/163
s 0
f 6/174/164 12/169/164 84/187/164
f 84/187/147 5/146/147 82/183/147
s 1
f 301/6/6 299/14/14 177/76/74
f 196/82/80 202/190/165 203/68/66
f 266/191/166 247/192/167 303/193/168
f 114/83/81 113/194/169 108/47/47
f 173/81/79 193/195/170 195/196/171
f 196/82/80 195/196/171 206/197/172
f 198/7/7 204/198/173 169/199/174
f 297/200/175 250/201/176 205/42/42
f 206/197/172 209/70/68 217/202/177
f 193/195/170 207/203/178 208/71/69
f 195/196/171 208/71/69 209/70/68
f 193/195/170 191/204/179 207/203/178
f 202/190/165 212/205/180 203/68/66
f 206/197/172 210/206/181 202/190/165
f 214/207/182 218/208/183 210/206/181
f 90/60/58 112/66/64 91/46/46
f 212/205/180 221/209/184 213/69/67
f 216/72/70 234/210/185 217/202/177
f 191/204/179 199/211/186 224/44/44
f 204/198/173 222/212/187 255/213/188
f 205/42/42 224/44/44 199/211/186
f 209/70/68 216/72/70 217/202/177
f 207/203/178 226/214/189 208/71/69
f 115/64/62 95/63/61 93/215/190
f 234/210/185 235/216/191 228/217/192
f 228/217/192 235/216/191 237/218/193
f 65/34/34 77/41/41 85/57/55
f 221/209/184 240/219/194 241/220/195
f 224/44/44 239/221/196 226/214/189
f 229/222/197 237/218/193 240/219/194
f 239/221/196 245/79/77 234/210/185
f 169/61/174 204/198/173 255/213/188
f 250/223/176 297/200/175 268/224/198
f 226/214/189 234/210/185 216/72/70
f 242/225/199 263/226/200 243/227/201
f 238/43/43 257/228/202 239/221/196
f 260/138/121 265/229/203 255/213/188
f 171/10/10 191/204/179 193/195/170
f 20/4/4 157/144/124 16/230/204
f 111/53/51 117/87/85 89/54/52
f 262/231/205 258/128/115 257/228/202
f 177/76/74 203/68/66 301/6/6
f 146/125/112 156/232/206 154/135/118
f 182/233/207 246/234/208 187/235/209
f 263/226/200 262/231/205 270/236/210
f 265/229/203 267/237/211 255/213/188
f 275/238/212 286/239/213 265/229/203
f 277/240/214 273/241/215 266/191/166
f 271/242/216 279/104/217 280/243/218
f 264/137/120 275/238/212 265/229/203
f 261/244/219 268/245/198 269/246/220
f 273/241/215 274/247/221 264/137/120
f 261/244/219 269/246/220 271/242/216
f 278/248/222 283/249/223 274/247/221
f 271/242/216 269/246/220 279/104/217
f 270/236/210 276/250/224 277/240/214
f 274/247/221 284/251/225 275/238/212
f 277/240/214 276/250/224 281/252/226
f 270/236/210 272/253/227 276/250/224
f 280/254/218 288/255/228 272/105/227
f 281/256/226 291/257/229 289/258/230
f 272/105/227 288/255/228 276/107/224
f 268/224/198 287/9/9 269/259/220
f 280/254/218 293/260/231 288/255/228
f 281/256/226 289/258/230 282/261/232
f 278/262/222 289/258/230 290/263/233
f 262/231/205 271/242/216 272/253/227
f 283/264/223 294/12/12 295/265/234
f 285/266/235 295/265/234 296/8/8
f 289/258/230 291/257/229 294/12/12
f 287/9/9 292/11/11 279/267/217
f 279/267/217 292/11/11 280/254/218
f 267/268/211 296/8/8 169/199/174
f 293/260/231 298/189/163 291/257/229
f 292/11/11 173/81/79 298/189/163
f 288/255/228 291/257/229 281/256/226
f 295/265/234 294/12/12 299/14/14
f 301/6/6 296/8/8 299/14/14
f 152/75/73 14/80/78 146/125/112
s 0
f 174/269/236 183/176/236 164/270/236
f 236/271/237 304/272/237 230/273/237
s 1
f 302/136/119 260/138/121 304/274/238
s 0
f 227/275/239 259/276/239 219/277/239
f 176/278/240 256/51/240 167/279/240
f 164/270/241 181/178/241 161/280/241
f 185/281/242 194/177/242 183/176/242
f 176/278/243 185/281/243 174/269/243
f 189/282/244 197/283/244 185/281/244
f 189/282/245 200/284/245 197/283/245
f 106/148/246 98/166/246 35/285/246
f 188/286/247 176/278/247 178/287/247
f 249/288/248 243/289/248 244/290/248
f 247/291/249 252/292/249 303/293/249
f 254/52/250 249/288/250 251/50/250
f 303/293/251 251/50/251 244/290/251
f 161/280/252 248/294/252 242/295/252
f 252/292/253 167/279/253 251/50/253
f 164/270/254 161/280/254 249/288/254
s 1
f 224/44/44 226/214/189 207/203/178
s 0
f 174/269/255 249/288/255 254/52/255
f 253/296/256 178/287/256 252/292/256
s 1
f 55/29/29 70/297/257 79/58/56
s 0
f 174/269/258 254/52/258 256/51/258
f 170/298/259 163/299/259 233/300/259
f 175/301/260 172/302/260 168/303/260
f 180/304/261 175/301/261 170/298/261
f 186/305/262 175/301/262 180/304/262
f 172/302/263 179/306/263 162/307/263
f 182/308/264 180/304/264 165/309/264
f 180/304/265 170/298/265 165/309/265
s 1
f 263/226/200 270/236/210 277/240/214
s 0
f 231/310/266 227/275/266 219/277/266
f 236/271/267 230/273/267 166/311/267
f 223/312/268 233/300/268 220/313/268
f 168/303/269 162/307/269 231/310/269
f 232/314/270 219/277/270 220/313/270
f 162/307/271 225/315/271 227/275/271
f 163/299/272 231/310/272 232/314/272
f 233/300/273 163/299/273 232/314/273
s 1
f 110/316/274 72/317/275 62/318/276
f 260/138/121 241/220/195 240/219/194
f 115/64/62 121/84/82 122/94/92
f 117/87/85 120/319/117 101/62/60
s 0
f 13/140/277 31/320/277 99/170/277
f 98/166/278 97/162/278 159/321/278
f 24/180/279 25/322/279 23/323/279
f 62/324/280 69/131/280 60/325/280
s 1
f 222/212/187 241/220/195 255/213/188
f 211/326/281 218/208/183 229/222/197
f 245/79/77 246/234/208 235/216/191
f 42/327/282 116/85/83 111/53/51
f 184/78/76 186/328/283 246/234/208
s 0
f 189/282/284 201/329/284 200/284/284
f 175/301/285 184/330/285 172/302/285
f 178/287/286 253/296/286 188/286/286
f 259/276/287 220/313/287 219/277/287
s 1
f 119/65/63 116/85/83 98/331/288
f 116/85/83 42/327/282 35/332/289
f 98/331/288 116/85/83 35/332/289
f 292/11/11 171/10/10 173/81/79
f 88/55/53 85/57/55 96/67/65
f 287/9/9 297/200/175 171/10/10
f 115/64/62 122/94/92 119/65/63
f 304/274/238 240/219/194 230/333/290
f 240/219/194 246/234/208 182/233/207
f 240/219/194 182/233/207 230/333/290
f 158/1/1 40/5/5 41/2/2
f 11/19/19 151/74/72 43/20/20
f 38/15/15 53/25/25 54/16/16
f 41/2/2 56/334/291 47/17/17
f 36/335/292 11/19/19 50/26/26
f 51/30/30 75/35/35 64/39/39
f 40/5/5 54/16/16 55/29/29
f 41/2/2 55/29/29 56/334/291
f 48/24/24 45/23/23 52/31/31
f 45/23/23 36/335/292 50/26/26
f 51/30/30 50/26/26 63/28/28
f 48/24/24 58/33/33 53/25/25
f 54/16/16 68/56/54 70/297/257
f 109/36/36 60/336/293 59/37/37
f 66/38/38 73/337/294 109/36/36
f 150/3/3 41/2/2 153/18/18
f 56/334/291 55/29/29 79/58/56
f 57/32/32 52/31/31 64/39/39
f 57/32/32 76/40/40 77/41/41
f 222/212/187 221/209/184 241/220/195
f 65/34/34 58/33/33 77/41/41
f 67/338/295 65/34/34 85/57/55
f 37/22/22 48/24/24 38/15/15
f 76/40/40 94/49/49 77/41/41
f 68/56/54 67/338/295 85/57/55
f 37/22/22 36/335/292 45/23/23
s 0
f 251/50/296 167/279/296 256/51/296
s 1
f 64/39/39 83/45/45 76/40/40
f 75/35/35 87/48/48 83/45/45
f 56/334/291 79/58/56 89/54/52
f 70/297/257 68/56/54 88/55/53
f 79/58/56 70/297/257 88/55/53
f 61/27/27 91/46/46 87/48/48
f 43/20/20 90/60/58 91/46/46
f 119/65/63 159/339/297 95/63/61
f 119/65/63 98/331/288 159/339/297
f 238/43/43 261/244/219 257/228/202
f 47/17/17 56/334/291 89/54/52
f 110/316/274 111/53/51 88/55/53
f 85/57/55 77/41/41 96/67/65
f 203/68/66 212/205/180 213/69/67
f 116/85/83 128/89/87 129/96/94
f 253/340/298 266/191/166 264/137/120
f 264/137/120 302/136/119 192/341/299
f 253/340/298 264/137/120 192/341/299
f 245/79/77 160/342/300 179/77/75
s 0
f 242/295/301 243/289/301 249/288/301
s 1
f 36/335/292 37/22/22 16/230/204
f 96/67/65 94/49/49 26/343/302
f 94/49/49 25/344/303 26/343/302
f 195/196/171 196/82/80 173/81/79
f 119/65/63 123/88/86 116/85/83
f 96/67/65 26/343/302 27/345/304
f 112/66/64 90/60/58 118/90/88
f 116/85/83 129/96/94 130/86/84
f 121/84/82 114/83/81 126/99/97
f 117/87/85 130/86/84 120/319/117
f 119/65/63 127/95/93 123/88/86
f 122/94/92 133/101/99 127/95/93
f 114/83/81 112/66/64 124/91/89
f 130/86/84 139/239/305 120/319/117
f 20/4/4 16/230/204 37/22/22
f 127/95/93 137/102/100 134/100/98
f 122/94/92 121/84/82 132/93/91
f 130/86/84 138/97/95 139/239/305
f 134/262/98 137/114/100 143/112/105
f 126/105/97 140/109/104 141/106/103
f 129/346/94 128/111/87 144/113/106
f 128/111/87 134/262/98 143/112/105
f 137/114/100 133/118/99 142/115/107
f 140/109/104 146/125/112 147/121/111
f 131/107/90 141/106/103 142/115/107
f 138/122/95 129/346/94 144/113/106
f 143/112/105 142/115/107 145/116/108
f 123/88/86 134/100/98 128/89/87
f 144/113/106 143/112/105 148/119/109
f 138/122/95 144/113/106 149/120/110
f 118/124/88 151/74/72 152/75/73
f 136/110/102 152/75/73 146/125/112
f 139/347/305 138/122/95 150/3/3
f 120/132/117 139/347/305 150/3/3
f 148/119/109 145/116/108 154/135/118
f 150/3/3 149/120/110 155/73/71
f 153/18/18 47/17/17 10/348/59
f 1/349/57 118/90/88 90/60/58
f 20/4/4 38/15/15 40/5/5
f 115/64/62 99/350/306 114/83/81
f 113/194/169 114/83/81 31/351/307
f 114/83/81 99/350/306 31/351/307
f 150/3/3 155/73/71 158/1/1
f 154/135/118 156/232/206 157/144/124
f 146/125/112 14/80/78 156/232/206
f 53/25/25 67/338/295 68/56/54
f 14/80/78 16/230/204 156/232/206
s 0
f 4/141/308 13/140/308 99/170/308
f 7/146/309 17/143/309 107/142/309
f 28/150/310 27/179/310 18/151/310
f 30/149/311 106/148/311 35/352/311
f 30/149/312 29/145/312 7/146/312
s 1
f 108/47/47 113/194/169 109/36/36
s 0
f 17/143/313 34/156/313 33/153/313
f 29/145/314 34/156/314 17/143/314
f 42/154/315 39/155/315 29/145/315
f 97/162/316 95/164/316 159/321/316
f 9/172/317 24/180/317 23/323/317
f 42/154/318 30/149/318 35/352/318
f 32/353/319 33/153/319 44/161/319
f 102/158/320 100/171/320 92/159/320
f 34/156/321 39/155/321 46/157/321
f 103/163/322 102/158/322 95/164/322
f 302/354/323 188/286/323 192/355/323
f 97/162/324 105/167/324 104/168/324
f 13/140/325 33/153/325 32/353/325
f 104/168/326 7/146/326 107/142/326
f 19/152/327 18/151/327 5/146/327
f 105/167/328 22/147/328 7/146/328
f 5/146/309 9/172/309 86/142/309
f 3/141/329 8/173/329 2/165/329
f 81/129/330 23/323/330 8/173/330
f 81/129/331 9/172/331 23/323/331
f 78/181/332 81/129/332 69/131/332
f 21/175/333 73/356/333 2/165/333
f 8/173/334 23/323/334 21/175/334
f 27/179/335 26/357/335 24/180/335
f 23/323/336 25/322/336 21/175/336
f 72/186/337 71/182/337 62/324/337
f 69/131/338 74/130/338 59/185/338
f 66/184/339 74/130/339 73/358/339
f 84/187/340 72/186/340 80/188/340
s 1
f 141/106/103 147/121/111 145/116/108
s 0
f 74/130/341 2/165/341 73/358/341
f 59/185/342 60/325/342 69/131/342
f 71/182/343 84/187/343 82/183/343
f 18/151/344 24/180/344 9/172/344
f 102/158/345 4/141/345 100/171/345
f 82/183/326 5/146/326 86/142/326
f 84/187/328 12/169/328 5/146/328
s 1
f 89/54/52 117/87/85 101/62/60
f 160/342/300 245/79/77 239/221/196
f 239/221/196 258/128/115 160/342/300
f 258/128/115 225/127/114 160/342/300
f 87/48/48 108/47/47 109/36/36
f 173/81/79 171/10/10 193/195/170
f 206/197/172 214/207/182 210/206/181
f 157/144/124 155/73/71 148/119/109
f 1/359/57 43/20/20 151/74/72
f 266/191/166 253/340/298 247/192/167
s 0
f 81/129/346 3/141/346 74/130/346
s 1
f 199/211/186 297/200/175 205/42/42
f 191/204/179 297/200/175 199/211/186
f 206/197/172 217/202/177 214/207/182
f 195/196/171 193/195/170 208/71/69
f 198/7/7 213/69/67 204/198/173
f 202/190/165 211/326/281 212/205/180
f 110/316/274 42/327/282 111/53/51
f 206/197/172 195/196/171 209/70/68
f 210/206/181 218/208/183 211/326/281
f 196/82/80 206/197/172 202/190/165
f 207/203/178 191/204/179 224/44/44
f 187/235/209 246/234/208 186/328/283
f 213/69/67 221/209/184 222/212/187
f 214/207/182 217/202/177 228/217/192
f 217/202/177 234/210/185 228/217/192
f 218/208/183 214/207/182 228/217/192
f 173/81/79 177/76/74 300/13/13
f 208/71/69 226/214/189 216/72/70
f 212/205/180 211/326/281 229/222/197
f 221/209/184 212/205/180 229/222/197
f 260/138/121 264/137/120 265/229/203
f 229/222/197 218/208/183 237/218/193
f 218/208/183 228/217/192 237/218/193
f 234/210/185 245/79/77 235/216/191
f 221/209/184 229/222/197 240/219/194
f 226/214/189 239/221/196 234/210/185
f 224/44/44 238/43/43 239/221/196
f 53/25/25 65/34/34 67/338/295
f 240/219/194 237/218/193 246/234/208
f 255/213/188 267/237/211 169/360/174
f 27/345/304 28/361/347 96/67/65
f 6/362/348 96/67/65 28/361/347
f 205/42/42 250/363/176 238/43/43
f 248/364/349 263/226/200 242/225/199
f 303/193/168 244/365/350 263/226/200
f 263/226/200 266/191/166 303/193/168
f 239/221/196 257/228/202 258/128/115
f 11/19/19 36/335/292 14/80/78
f 113/194/169 44/366/351 62/318/276
f 62/318/276 44/366/351 46/367/352
f 60/336/293 113/194/169 62/318/276
f 101/62/60 120/319/117 10/360/59
s 0
f 231/310/353 162/307/353 227/275/353
s 1
f 238/43/43 250/363/176 261/244/219
f 258/128/115 181/368/354 194/369/355
f 200/370/356 259/126/113 258/128/115
f 258/128/115 194/369/355 200/370/356
f 304/274/238 215/371/357 201/372/358
f 304/274/238 201/372/358 302/136/119
f 177/76/74 196/82/80 203/68/66
f 191/204/179 171/10/10 297/200/175
f 266/191/166 273/241/215 264/137/120
f 265/229/203 286/239/213 267/237/211
f 275/238/212 285/97/235 286/239/213
f 261/244/219 250/363/176 268/245/198
f 282/373/232 277/240/214 281/252/226
f 262/231/205 261/244/219 271/242/216
f 273/241/215 278/248/222 274/247/221
f 264/137/120 274/247/221 275/238/212
f 277/240/214 282/373/232 273/241/215
f 272/253/227 271/242/216 280/243/218
f 273/241/215 282/373/232 278/248/222
f 263/226/200 277/240/214 266/191/166
f 274/247/221 283/249/223 284/251/225
f 275/238/212 284/251/225 285/97/235
f 283/264/223 278/262/222 290/263/233
f 276/107/224 288/255/228 281/256/226
f 280/254/218 292/11/11 293/260/231
f 278/262/222 282/261/232 289/258/230
f 296/8/8 295/265/234 299/14/14
f 269/259/220 287/9/9 279/267/217
f 286/374/213 285/266/235 296/8/8
f 290/263/233 289/258/230 294/12/12
f 284/375/225 283/264/223 295/265/234
f 294/12/12 291/257/229 298/189/163
f 283/264/223 290/263/233 294/12/12
f 285/266/235 284/375/225 295/265/234
f 288/255/228 293/260/231 291/257/229
f 293/260/231 292/11/11 298/189/163
s 0
f 215/376/359 223/312/359 220/313/359
s 1
f 268/224/198 297/200/175 287/9/9
f 267/268/211 286/374/213 296/8/8
s 0
f 174/269/360 185/281/360 183/176/360
s 1
f 255/213/188 241/220/195 260/138/121
f 304/274/238 260/138/121 240/219/194
f 16/230/204 157/144/124 156/232/206
f 113/194/169 31/351/307 32/377/361
f 60/336/293 109/36/36 113/194/169
f 113/194/169 32/377/361 44/366/351
s 0
f 225/315/362 259/276/362 227/275/362
f 256/51/363 176/278/363 174/269/363
f 178/287/364 176/278/364 167/279/364
s 1
f 301/6/6 203/68/66 198/7/7
s 0
f 164/270/365 183/176/365 181/178/365
f 161/280/366 181/178/366 248/378/366
s 1
f 298/189/163 173/81/79 300/13/13
s 0
f 188/286/367 253/296/367 192/355/367
f 188/286/368 190/379/368 176/278/368
f 190/379/369 189/282/369 176/278/369
f 176/278/370 189/282/370 185/281/370
f 185/281/371 197/283/371 194/177/371
f 302/354/372 190/379/372 188/286/372
f 194/177/373 197/283/373 200/284/373
f 189/282/374 190/379/374 201/329/374
f 302/354/375 201/329/375 190/379/375
f 249/288/376 161/280/376 242/295/376
f 170/298/377 175/301/377 163/299/377
f 174/269/378 164/270/378 249/288/378
f 252/292/379 178/287/379 167/279/379
f 165/309/380 170/298/380 233/300/380
f 162/307/381 179/306/381 160/380/381
f 163/299/382 175/301/382 168/303/382
f 165/309/383 166/311/383 182/308/383
f 172/302/384 184/330/384 179/306/384
f 166/311/385 230/381/385 182/382/385
f 182/308/386 187/383/386 180/304/386
f 175/301/387 186/305/387 184/330/387
s 1
f 147/121/111 146/125/112 154/135/118
s 0
f 232/314/388 231/310/388 219/277/388
f 252/292/389 247/291/389 253/296/389
f 251/50/390 249/288/390 244/290/390
f 304/272/391 223/312/391 215/376/391
f 304/272/392 236/271/392 223/312/392
s 1
f 54/16/16 70/297/257 55/29/29
s 0
f 220/313/393 233/300/393 232/314/393
f 223/312/394 236/271/394 233/300/394
f 165/309/395 236/271/395 166/311/395
s 1
f 270/236/210 262/231/205 272/253/227
s 0
f 162/307/396 160/384/396 225/315/396
f 236/271/397 165/309/397 233/300/397
f 163/299/398 168/303/398 231/310/398
s 1
f 259/126/113 200/370/356 215/371/357
f 201/372/358 215/371/357 200/370/356
f 213/69/67 222/212/187 204/198/173
f 110/316/274 80/385/399 72/317/275
f 94/49/49 87/48/48 21/386/400
f 87/48/48 109/36/36 73/337/294
f 21/386/400 87/48/48 73/337/294
f 110/316/274 88/55/53 6/362/348
f 88/55/53 96/67/65 6/362/348
f 80/385/399 110/316/274 6/362/348
f 125/98/96 124/91/89 136/104/102
f 16/230/204 14/80/78 36/335/292
f 111/53/51 116/85/83 117/87/85
f 94/49/49 21/386/400 25/344/303
s 0
f 13/140/401 32/353/401 31/320/401
s 1
f 202/190/165 210/206/181 211/326/281
s 0
f 99/387/402 92/159/402 100/171/402
f 6/388/403 28/150/403 19/152/403
f 24/180/404 26/357/404 25/322/404
f 62/324/405 71/182/405 69/131/405
s 1
f 237/218/193 235/216/191 246/234/208
f 263/226/200 248/364/349 262/231/205
f 258/128/115 262/231/205 248/364/349
f 248/364/349 181/368/354 258/128/115
f 62/318/276 46/367/352 42/327/282
f 110/316/274 62/318/276 42/327/282
f 296/8/8 198/7/7 169/199/174
f 261/244/219 262/231/205 257/228/202
f 93/215/190 92/389/406 115/64/62
f 99/350/306 115/64/62 92/389/406
f 246/234/208 245/79/77 184/78/76
f 244/365/350 243/227/201 263/226/200
s 0
f 303/293/407 252/292/407 251/50/407
f 187/383/408 186/305/408 180/304/408
f 168/303/409 172/302/409 162/307/409
f 259/276/410 215/376/410 220/313/410
