# Blender 5.2.1 LTS
# www.blender.org
mtllib loot-bag-gold.mtl
o Gold
v -0.000000 1.718931 0.720066
v -0.000000 1.704474 0.695081
v -0.000000 1.715057 0.705641
v -0.000000 1.718931 0.782576
v -0.000000 1.704474 0.807561
v -0.000000 1.715057 0.797001
v 0.067547 1.685591 0.691215
v 0.071321 1.714256 0.720066
v 0.069434 1.699924 0.695081
v 0.070816 1.710416 0.705641
v 0.067547 1.685591 0.811427
v 0.071321 1.714256 0.782576
v 0.069434 1.699924 0.807561
v 0.070816 1.710416 0.797001
v 0.141422 1.700312 0.720066
v 0.137681 1.686348 0.695081
v 0.140420 1.696571 0.705641
v 0.141422 1.700312 0.782576
v 0.137681 1.686348 0.807561
v 0.140420 1.696571 0.797001
v 0.198039 1.650626 0.691215
v 0.209104 1.677337 0.720066
v 0.203571 1.663982 0.695081
v 0.207621 1.673759 0.705641
v 0.209104 1.677337 0.782576
v 0.203571 1.663982 0.807561
v 0.207621 1.673759 0.797001
v 0.273207 1.645725 0.720066
v 0.265979 1.633205 0.695081
v 0.271270 1.642370 0.705641
v 0.258751 1.620686 0.811427
v 0.273207 1.645725 0.782576
v 0.265979 1.633205 0.807561
v 0.271270 1.642370 0.797001
v 0.315035 1.583078 0.691215
v 0.332636 1.606016 0.720066
v 0.323836 1.594547 0.695081
v 0.330278 1.602943 0.705641
v 0.332636 1.606016 0.782576
v 0.323836 1.594547 0.807561
v 0.330278 1.602943 0.797001
v 0.386373 1.558890 0.720066
v 0.376151 1.548667 0.695081
v 0.383634 1.556150 0.705641
v 0.386373 1.558890 0.782576
v 0.376151 1.548667 0.807561
v 0.383634 1.556150 0.797001
v 0.433500 1.505152 0.720066
v 0.422031 1.496352 0.695081
v 0.430427 1.502794 0.705641
v 0.410562 1.487551 0.811427
v 0.433500 1.505152 0.782576
v 0.422031 1.496352 0.807561
v 0.430427 1.502794 0.797001
v 0.448170 1.431267 0.691215
v 0.473209 1.445723 0.720066
v 0.460690 1.438495 0.695081
v 0.469854 1.443787 0.705641
v 0.473209 1.445723 0.782576
v 0.460690 1.438495 0.807561
v 0.469854 1.443787 0.797001
v 0.504821 1.381620 0.720066
v 0.491466 1.376087 0.695081
v 0.501243 1.380137 0.705641
v 0.504821 1.381620 0.782576
v 0.491466 1.376087 0.807561
v 0.501243 1.380137 0.797001
v 0.499869 1.306455 0.691215
v 0.527796 1.313938 0.720066
v 0.513832 1.310197 0.695081
v 0.524055 1.312936 0.705641
v 0.499869 1.306455 0.811427
v 0.527796 1.313938 0.782576
v 0.513832 1.310197 0.807561
v 0.524055 1.312936 0.797001
v 0.541740 1.243837 0.720066
v 0.527407 1.241950 0.695081
v 0.537900 1.243332 0.705641
v 0.541740 1.243837 0.782576
v 0.527407 1.241950 0.807561
v 0.537900 1.243332 0.797001
v 0.517502 1.172516 0.691215
v 0.546415 1.172516 0.720066
v 0.531958 1.172516 0.695081
v 0.542541 1.172516 0.705641
v 0.546415 1.172516 0.782576
v 0.531958 1.172516 0.807561
v 0.542541 1.172516 0.797001
v 0.541740 1.101194 0.720066
v 0.527407 1.103081 0.695081
v 0.537900 1.101700 0.705641
v 0.513075 1.104968 0.811427
v 0.541740 1.101194 0.782576
v 0.527407 1.103081 0.807561
v 0.537900 1.101700 0.797001
v 0.499869 1.038576 0.691215
v 0.527796 1.031093 0.720066
v 0.513832 1.034835 0.695081
v 0.524055 1.032096 0.705641
v 0.527796 1.031093 0.782576
v 0.513832 1.034835 0.807561
v 0.524055 1.032096 0.797001
v 0.504821 0.963412 0.720066
v 0.491466 0.968944 0.695081
v 0.501243 0.964894 0.705641
v 0.478110 0.974476 0.811427
v 0.504821 0.963412 0.782576
v 0.491466 0.968944 0.807561
v 0.501243 0.964894 0.797001
v 0.448170 0.913765 0.691215
v 0.473209 0.899308 0.720066
v 0.460690 0.906536 0.695081
v 0.469854 0.901245 0.705641
v 0.473209 0.899308 0.782576
v 0.460690 0.906536 0.807561
v 0.469854 0.901245 0.797001
v 0.433500 0.839879 0.720066
v 0.422031 0.848680 0.695081
v 0.430427 0.842237 0.705641
v 0.410562 0.857480 0.811427
v 0.433500 0.839879 0.782576
v 0.422031 0.848680 0.807561
v 0.430427 0.842237 0.797001
v 0.365929 0.806586 0.691215
v 0.386373 0.786142 0.720066
v 0.376151 0.796364 0.695081
v 0.383634 0.788881 0.705641
v 0.386373 0.786142 0.782576
v 0.376151 0.796364 0.807561
v 0.383634 0.788881 0.797001
v 0.332636 0.739016 0.720066
v 0.323836 0.750485 0.695081
v 0.330278 0.742089 0.705641
v 0.315035 0.761954 0.811427
v 0.332636 0.739016 0.782576
v 0.323836 0.750485 0.807561
v 0.330278 0.742089 0.797001
v 0.258751 0.724345 0.691215
v 0.273207 0.699306 0.720066
v 0.265979 0.711826 0.695081
v 0.271270 0.702661 0.705641
v 0.273207 0.699306 0.782576
v 0.265979 0.711826 0.807561
v 0.271270 0.702661 0.797001
v 0.209104 0.667694 0.720066
v 0.203571 0.681050 0.695081
v 0.207621 0.671273 0.705641
v 0.198039 0.694406 0.811427
v 0.209104 0.667694 0.782576
v 0.203571 0.681050 0.807561
v 0.207621 0.671273 0.797001
v 0.141422 0.644719 0.720066
v 0.137681 0.658683 0.695081
v 0.140420 0.648461 0.705641
v 0.141422 0.644719 0.782576
v 0.137681 0.658683 0.807561
v 0.140420 0.648461 0.797001
v 0.067547 0.659441 0.691215
v 0.071321 0.630775 0.720066
v 0.069434 0.645108 0.695081
v 0.070816 0.634616 0.705641
v 0.067547 0.659441 0.811427
v 0.071321 0.630775 0.782576
v 0.069434 0.645108 0.807561
v 0.070816 0.634616 0.797001
v -0.000000 0.626101 0.720066
v -0.000000 0.640557 0.695081
v -0.000000 0.629974 0.705641
v -0.000000 0.626101 0.782576
v -0.000000 0.640557 0.807561
v -0.000000 0.629974 0.797001
v -0.071322 0.630775 0.720066
v -0.069435 0.645108 0.695081
v -0.070816 0.634616 0.705641
v -0.067548 0.659441 0.811427
v -0.071322 0.630775 0.782576
v -0.069435 0.645108 0.807561
v -0.070816 0.634616 0.797001
v -0.133940 0.672647 0.691215
v -0.141423 0.644719 0.720066
v -0.137681 0.658683 0.695081
v -0.140420 0.648461 0.705641
v -0.141423 0.644719 0.782576
v -0.137681 0.658683 0.807561
v -0.140420 0.648461 0.797001
v -0.209104 0.667694 0.720066
v -0.203572 0.681050 0.695081
v -0.207622 0.671273 0.705641
v -0.198040 0.694406 0.811427
v -0.209104 0.667694 0.782576
v -0.203572 0.681050 0.807561
v -0.207622 0.671273 0.797001
v -0.258752 0.724345 0.691215
v -0.273208 0.699306 0.720066
v -0.265980 0.711826 0.695081
v -0.271271 0.702661 0.705641
v -0.273208 0.699306 0.782576
v -0.265980 0.711826 0.807561
v -0.271271 0.702661 0.797001
v -0.332637 0.739016 0.720066
v -0.323836 0.750485 0.695081
v -0.330279 0.742089 0.705641
v -0.315036 0.761954 0.811427
v -0.332637 0.739016 0.782576
v -0.323836 0.750485 0.807561
v -0.330279 0.742089 0.797001
v -0.365930 0.806586 0.691215
v -0.386374 0.786142 0.720066
v -0.376152 0.796364 0.695081
v -0.383635 0.788881 0.705641
v -0.386374 0.786142 0.782576
v -0.376152 0.796364 0.807561
v -0.383635 0.788881 0.797001
v -0.433501 0.839879 0.720066
v -0.422032 0.848680 0.695081
v -0.430427 0.842237 0.705641
v -0.410563 0.857480 0.811427
v -0.433501 0.839879 0.782576
v -0.422032 0.848680 0.807561
v -0.430427 0.842237 0.797001
v -0.448171 0.913765 0.691215
v -0.473210 0.899308 0.720066
v -0.460690 0.906536 0.695081
v -0.469855 0.901245 0.705641
v -0.473210 0.899308 0.782576
v -0.460690 0.906536 0.807561
v -0.469855 0.901245 0.797001
v -0.504822 0.963412 0.720066
v -0.491466 0.968944 0.695081
v -0.501243 0.964894 0.705641
v -0.478110 0.974476 0.811427
v -0.504822 0.963412 0.782576
v -0.491466 0.968944 0.807561
v -0.501243 0.964894 0.797001
v -0.499869 1.038576 0.691215
v -0.527797 1.031093 0.720066
v -0.513833 1.034835 0.695081
v -0.524055 1.032096 0.705641
v -0.527797 1.031093 0.782576
v -0.513833 1.034835 0.807561
v -0.524055 1.032096 0.797001
v -0.541741 1.101194 0.720066
v -0.527408 1.103081 0.695081
v -0.537900 1.101700 0.705641
v -0.541741 1.101194 0.782576
v -0.527408 1.103081 0.807561
v -0.537900 1.101700 0.797001
v -0.517503 1.172516 0.691215
v -0.546415 1.172516 0.720066
v -0.531959 1.172516 0.695081
v -0.542542 1.172516 0.705641
v -0.517503 1.172516 0.811427
v -0.546415 1.172516 0.782576
v -0.531959 1.172516 0.807561
v -0.542542 1.172516 0.797001
v -0.541741 1.243837 0.720066
v -0.527408 1.241950 0.695081
v -0.537900 1.243332 0.705641
v -0.541741 1.243837 0.782576
v -0.527408 1.241950 0.807561
v -0.537900 1.243332 0.797001
v -0.499869 1.306455 0.691215
v -0.527797 1.313938 0.720066
v -0.513833 1.310197 0.695081
v -0.524055 1.312936 0.705641
v -0.527797 1.313938 0.782576
v -0.513833 1.310197 0.807561
v -0.524055 1.312936 0.797001
v -0.504822 1.381620 0.720066
v -0.491466 1.376087 0.695081
v -0.501243 1.380137 0.705641
v -0.478110 1.370555 0.811427
v -0.504822 1.381620 0.782576
v -0.491466 1.376087 0.807561
v -0.501243 1.380137 0.797001
v -0.448171 1.431267 0.691215
v -0.473210 1.445723 0.720066
v -0.460690 1.438495 0.695081
v -0.469855 1.443787 0.705641
v -0.473210 1.445723 0.782576
v -0.460690 1.438495 0.807561
v -0.469855 1.443787 0.797001
v -0.433501 1.505152 0.720066
v -0.422032 1.496352 0.695081
v -0.430427 1.502794 0.705641
v -0.410563 1.487551 0.811427
v -0.433501 1.505152 0.782576
v -0.422032 1.496352 0.807561
v -0.430427 1.502794 0.797001
v -0.365930 1.538445 0.691215
v -0.386374 1.558890 0.720066
v -0.376152 1.548667 0.695081
v -0.383635 1.556150 0.705641
v -0.386374 1.558890 0.782576
v -0.376152 1.548667 0.807561
v -0.383635 1.556150 0.797001
v -0.332637 1.606016 0.720066
v -0.323836 1.594547 0.695081
v -0.330279 1.602943 0.705641
v -0.332637 1.606016 0.782576
v -0.323836 1.594547 0.807561
v -0.330279 1.602943 0.797001
v -0.258752 1.620686 0.691215
v -0.273208 1.645725 0.720066
v -0.265980 1.633205 0.695081
v -0.271271 1.642370 0.705641
v -0.258752 1.620686 0.811427
v -0.273208 1.645725 0.782576
v -0.265980 1.633205 0.807561
v -0.271271 1.642370 0.797001
v -0.209104 1.677337 0.720066
v -0.203572 1.663982 0.695081
v -0.207622 1.673759 0.705641
v -0.209104 1.677337 0.782576
v -0.203572 1.663982 0.807561
v -0.207622 1.673759 0.797001
v -0.133940 1.672385 0.691215
v -0.141423 1.700312 0.720066
v -0.137681 1.686348 0.695081
v -0.140420 1.696571 0.705641
v -0.133940 1.672385 0.811427
v -0.141423 1.700312 0.782576
v -0.137681 1.686348 0.807561
v -0.140420 1.696571 0.797001
v -0.071322 1.714256 0.720066
v -0.069435 1.699924 0.695081
v -0.070816 1.710416 0.705641
v -0.071322 1.714256 0.782576
v -0.069435 1.699924 0.807561
v -0.070816 1.710416 0.797001
v 0.000000 1.574794 0.823339
v -0.000000 1.576863 0.826453
v -0.000000 1.576423 0.824814
v -0.000000 1.576863 0.833556
v -0.000000 1.575220 0.836396
v -0.000000 1.576423 0.835196
v 0.053048 1.573179 0.825264
v 0.052563 1.571775 0.823614
v 0.052986 1.571332 0.836665
v 0.052778 1.573404 0.833556
v 0.052720 1.572967 0.835196
v 0.104652 1.563085 0.826453
v 0.104118 1.561087 0.823339
v 0.104538 1.562660 0.824814
v 0.104652 1.563085 0.833556
v 0.104227 1.561498 0.836396
v 0.104538 1.562660 0.835196
v 0.154737 1.546084 0.826453
v 0.154108 1.544566 0.823614
v 0.154568 1.545677 0.824814
v 0.153945 1.544173 0.836670
v 0.154737 1.546084 0.833556
v 0.154568 1.545677 0.835196
v 0.200530 1.519845 0.823175
v 0.202337 1.522380 0.825264
v 0.201352 1.521268 0.823614
v 0.201352 1.521268 0.836396
v 0.201822 1.522677 0.834745
v 0.246151 1.493306 0.826453
v 0.245151 1.492003 0.823614
v 0.245883 1.492957 0.824814
v 0.245319 1.491336 0.836692
v 0.246151 1.493306 0.833556
v 0.245883 1.492957 0.835196
v 0.285916 1.458432 0.826453
v 0.284950 1.456545 0.823351
v 0.285605 1.458121 0.824814
v 0.285916 1.458432 0.833556
v 0.284755 1.457271 0.836396
v 0.285605 1.458121 0.835196
v 0.320790 1.418667 0.826453
v 0.319487 1.417667 0.823614
v 0.320441 1.418399 0.824814
v 0.319268 1.417453 0.836630
v 0.320461 1.418788 0.834745
v 0.350175 1.374689 0.826453
v 0.348752 1.373868 0.823614
v 0.349793 1.374469 0.824814
v 0.350175 1.374689 0.833556
v 0.348752 1.373868 0.836396
v 0.349793 1.374469 0.835196
v 0.373568 1.327253 0.826453
v 0.371863 1.325823 0.823282
v 0.373161 1.327084 0.824814
v 0.373568 1.327253 0.833556
v 0.372050 1.326624 0.836396
v 0.373161 1.327084 0.835196
v 0.390569 1.277169 0.826453
v 0.388982 1.276743 0.823614
v 0.390144 1.277055 0.824814
v 0.388659 1.276228 0.836709
v 0.390569 1.277169 0.833556
v 0.390144 1.277055 0.835196
v 0.400888 1.225294 0.826453
v 0.399259 1.225079 0.823614
v 0.400451 1.225236 0.824814
v 0.400888 1.225294 0.833556
v 0.399259 1.225079 0.836396
v 0.400451 1.225236 0.835196
v 0.404160 1.172219 0.825264
v 0.402358 1.172408 0.823347
v 0.402239 1.171866 0.836718
v 0.404347 1.172516 0.833556
v 0.403907 1.172516 0.835196
v 0.400888 1.119738 0.826453
v 0.399259 1.119952 0.823614
v 0.400451 1.119795 0.824814
v 0.400888 1.119738 0.833556
v 0.399259 1.119952 0.836396
v 0.400451 1.119795 0.835196
v 0.390569 1.067863 0.826453
v 0.388982 1.068288 0.823614
v 0.390144 1.067977 0.824814
v 0.390569 1.067863 0.833556
v 0.388982 1.068288 0.836396
v 0.390144 1.067977 0.835196
v 0.373568 1.017779 0.826453
v 0.371602 1.018666 0.823287
v 0.373161 1.017947 0.824814
v 0.371753 1.018669 0.836683
v 0.373509 1.018125 0.834745
v 0.350175 0.970342 0.826453
v 0.348752 0.971164 0.823614
v 0.349793 0.970562 0.824814
v 0.350175 0.970342 0.833556
v 0.348752 0.971164 0.836396
v 0.349793 0.970562 0.835196
v 0.320460 0.926243 0.825264
v 0.319258 0.927540 0.823391
v 0.318892 0.927220 0.836664
v 0.320790 0.926365 0.833556
v 0.320441 0.926633 0.835196
v 0.285916 0.886599 0.826453
v 0.284755 0.887761 0.823614
v 0.285605 0.886910 0.824814
v 0.285916 0.886599 0.833556
v 0.284755 0.887761 0.836396
v 0.285605 0.886910 0.835196
v 0.246151 0.851726 0.826453
v 0.244804 0.853371 0.823306
v 0.245883 0.852075 0.824814
v 0.244933 0.853312 0.836630
v 0.246151 0.851726 0.833556
v 0.245883 0.852075 0.835196
v 0.202173 0.822341 0.826453
v 0.201352 0.823764 0.823614
v 0.201953 0.822722 0.824814
v 0.202173 0.822341 0.833556
v 0.201352 0.823764 0.836396
v 0.201953 0.822722 0.835196
v 0.154390 0.799007 0.825264
v 0.154108 0.800465 0.823614
v 0.153479 0.801983 0.836835
v 0.154108 0.800465 0.836396
v 0.154940 0.799234 0.834745
v 0.104652 0.781946 0.826453
v 0.104365 0.783996 0.823345
v 0.104538 0.782371 0.824814
v 0.104652 0.781946 0.833556
v 0.104227 0.783533 0.836396
v 0.104538 0.782371 0.835196
v 0.052778 0.771628 0.826453
v 0.052563 0.773257 0.823614
v 0.052720 0.772064 0.824814
v 0.052903 0.773625 0.836624
v 0.052778 0.771628 0.833556
v 0.052720 0.772064 0.835196
v -0.000000 0.771454 0.823175
v -0.000000 0.768169 0.826453
v -0.000000 0.769811 0.823614
v -0.000000 0.768609 0.824814
v -0.000000 0.769811 0.836396
v 0.000297 0.768356 0.834745
v -0.053049 0.771852 0.825264
v -0.052564 0.773257 0.823614
v -0.052987 0.773699 0.836664
v -0.052778 0.771628 0.833556
v -0.052721 0.772064 0.835196
v -0.104653 0.781946 0.826453
v -0.104228 0.783533 0.823614
v -0.104539 0.782371 0.824814
v -0.104653 0.781946 0.833556
v -0.104228 0.783533 0.836396
v -0.104539 0.782371 0.835196
v -0.154940 0.799234 0.825264
v -0.153958 0.800732 0.823380
v -0.154403 0.801003 0.836664
v -0.154737 0.798948 0.833556
v -0.154569 0.799354 0.835196
v -0.202174 0.822341 0.826453
v -0.201353 0.823764 0.823614
v -0.201954 0.822722 0.824814
v -0.202174 0.822341 0.833556
v -0.201353 0.823764 0.836396
v -0.201954 0.822722 0.835196
v -0.246273 0.852055 0.825264
v -0.244901 0.853355 0.823302
v -0.244151 0.854332 0.836835
v -0.246151 0.851726 0.833556
v -0.245151 0.853029 0.836396
v -0.245883 0.852075 0.835196
v -0.285917 0.886599 0.826453
v -0.284755 0.887761 0.823614
v -0.285606 0.886910 0.824814
v -0.285917 0.886599 0.833556
v -0.284755 0.887761 0.836396
v -0.285606 0.886910 0.835196
v -0.320823 0.926715 0.825264
v -0.319214 0.927574 0.823350
v -0.319467 0.927866 0.836624
v -0.320790 0.926365 0.833556
v -0.320441 0.926633 0.835196
v -0.350175 0.970342 0.826453
v -0.348753 0.971164 0.823614
v -0.349794 0.970562 0.824814
v -0.350175 0.970342 0.833556
v -0.348753 0.971164 0.836396
v -0.349794 0.970562 0.835196
v -0.373568 1.017779 0.826453
v -0.371607 1.018174 0.823386
v -0.373162 1.017947 0.824814
v -0.371863 1.019069 0.836692
v -0.373568 1.017779 0.833556
v -0.373162 1.017947 0.835196
v -0.390570 1.067863 0.826453
v -0.388983 1.068288 0.823614
v -0.390145 1.067977 0.824814
v -0.390570 1.067863 0.833556
v -0.388983 1.068288 0.836396
v -0.390145 1.067977 0.835196
v -0.397631 1.120167 0.823175
v -0.400888 1.119738 0.826453
v -0.399260 1.119952 0.823614
v -0.400452 1.119795 0.824814
v -0.398891 1.119612 0.836624
v -0.400888 1.119738 0.833556
v -0.400452 1.119795 0.835196
v -0.404347 1.172516 0.826453
v -0.402705 1.172516 0.823614
v -0.403907 1.172516 0.824814
v -0.402705 1.172516 0.836396
v -0.404160 1.172219 0.834745
v -0.400888 1.225294 0.826453
v -0.399260 1.225079 0.823614
v -0.400452 1.225236 0.824814
v -0.398759 1.225013 0.836717
v -0.400888 1.225294 0.833556
v -0.400452 1.225236 0.835196
v -0.390570 1.277169 0.826453
v -0.388873 1.275653 0.823364
v -0.390145 1.277055 0.824814
v -0.390570 1.277169 0.833556
v -0.388983 1.276743 0.836396
v -0.390145 1.277055 0.835196
v -0.373568 1.327253 0.826453
v -0.371652 1.326561 0.823347
v -0.373162 1.327084 0.824814
v -0.371902 1.326145 0.836624
v -0.373568 1.327253 0.833556
v -0.373162 1.327084 0.835196
v -0.350175 1.374689 0.826453
v -0.348753 1.373868 0.823614
v -0.349794 1.374469 0.824814
v -0.350175 1.374689 0.833556
v -0.348753 1.373868 0.836396
v -0.349794 1.374469 0.835196
v -0.320461 1.418789 0.825264
v -0.319487 1.417667 0.823614
v -0.319161 1.417417 0.836707
v -0.320823 1.418317 0.834745
v -0.285917 1.458432 0.826453
v -0.284533 1.456961 0.823369
v -0.285606 1.458121 0.824814
v -0.285917 1.458432 0.833556
v -0.284755 1.457271 0.836396
v -0.285606 1.458121 0.835196
v -0.246151 1.493306 0.826453
v -0.245151 1.492003 0.823614
v -0.245883 1.492957 0.824814
v -0.244976 1.491775 0.836619
v -0.246273 1.492977 0.834745
v -0.200531 1.519845 0.823175
v -0.201823 1.522677 0.825264
v -0.201353 1.521268 0.823614
v -0.202174 1.522691 0.833556
v -0.201353 1.521268 0.836396
v -0.201954 1.522309 0.835196
v -0.154737 1.546084 0.826453
v -0.154109 1.544566 0.823614
v -0.154569 1.545677 0.824814
v -0.153480 1.543048 0.836835
v -0.154737 1.546084 0.833556
v -0.154109 1.544566 0.836396
v -0.154569 1.545677 0.835196
v -0.104653 1.563085 0.826453
v -0.104136 1.561154 0.823380
v -0.104539 1.562660 0.824814
v -0.104653 1.563085 0.833556
v -0.104228 1.561498 0.836396
v -0.104539 1.562660 0.835196
v -0.052460 1.573257 0.825264
v -0.052564 1.571775 0.823614
v -0.052526 1.571490 0.836619
v -0.053049 1.573179 0.834745
vn 0.3338 0.8034 -0.4931
vn 0.2404 0.4164 -0.8768
vn 0.1885 0.4713 -0.8616
vn 0.1805 0.9771 -0.1127
vn 0.2213 0.8397 -0.4960
vn 0.1138 0.8590 -0.4991
vn -0.0044 0.4643 -0.8857
vn -0.0036 0.8683 -0.4960
vn 0.1169 0.8608 0.4953
vn -0.0044 0.4643 0.8857
vn 0.0655 0.4977 0.8649
vn 0.3065 0.9452 -0.1127
vn 0.4332 0.7504 -0.4993
vn 0.1140 0.9921 0.0516
vn -0.0000 0.8665 0.4992
vn 0.0514 0.9923 -0.1127
vn 0.2214 0.8400 0.4953
vn 0.1736 0.4306 0.8857
vn 0.3356 0.8009 0.4960
vn 0.2360 0.9494 0.2073
vn 0.3822 0.9227 0.0498
vn 0.0008 0.0011 1.0000
vn -0.3160 -0.3974 0.8615
vn -0.2085 -0.3794 0.9014
vn 0.4348 0.1783 0.8827
vn 0.4130 0.2266 0.8821
vn 0.0257 0.1920 0.9811
vn -0.4870 0.0648 -0.8710
vn -0.4881 0.1372 -0.8619
vn -0.0111 -0.0264 -0.9996
vn 0.1200 0.4714 -0.8737
vn -0.2072 -0.0070 0.9783
vn 0.0481 0.1864 0.9813
vn -0.3258 0.3403 0.8821
vn 0.0602 0.5040 -0.8616
vn 0.2510 0.4348 0.8649
vn 0.4373 0.7502 0.4960
vn -0.2262 -0.8404 -0.4924
vn -0.1334 -0.3287 -0.9350
vn -0.0983 -0.4026 -0.9101
vn 0.4850 0.8730 0.0517
vn -0.0000 0.9988 -0.0499
vn 0.8008 0.3309 -0.4992
vn 0.4365 0.2591 -0.8616
vn 0.7536 0.4348 -0.4929
vn 0.4272 0.8971 -0.1127
vn 0.5275 0.6874 -0.4992
vn 0.7352 0.6655 -0.1290
vn 0.8650 0.4994 -0.0499
vn 0.5275 0.6874 0.4992
vn 0.6080 0.7924 0.0498
vn 0.2861 0.3656 0.8857
vn 0.0100 -0.0137 -0.9999
vn 0.1738 0.2059 -0.9630
vn 0.3750 0.2909 -0.8802
vn -0.0004 -0.0008 1.0000
vn -0.1999 -0.4666 0.8616
vn -0.1206 -0.4724 0.8731
vn -0.0058 -0.4875 0.8731
vn 0.1522 -0.1329 0.9794
vn -0.1477 -0.0961 0.9843
vn 0.3314 0.3251 -0.8857
vn 0.3041 0.4065 -0.8616
vn 0.6791 0.7042 0.2073
vn 0.6874 0.5275 0.4992
vn 0.7924 0.6080 0.0498
vn 0.8406 0.2243 -0.4931
vn 0.4767 0.0628 -0.8768
vn 0.4887 0.1373 -0.8616
vn 0.9923 0.0515 -0.1127
vn 0.9339 0.3336 -0.1290
vn 0.3252 0.3314 0.8857
vn 0.6166 0.6114 0.4960
vn 0.7559 0.6449 -0.1127
vn 0.5378 0.8332 -0.1290
vn 0.8400 0.2215 0.4953
vn 0.4849 0.1299 0.8649
vn 0.1972 -0.1814 -0.9634
vn 0.2974 -0.3907 -0.8711
vn -0.0076 -0.0055 -1.0000
vn 0.8850 0.4516 -0.1127
vn 0.7538 0.4310 0.4960
vn -0.0173 -0.0034 -0.9998
vn 0.1760 -0.4409 -0.8801
vn -0.3925 0.0194 0.9196
vn -0.4160 -0.1022 0.9036
vn -0.3240 -0.2265 0.9185
vn 0.4470 0.1917 -0.8737
vn 0.8039 0.3291 0.4953
vn 0.0004 0.0008 1.0000
vn -0.1254 0.4919 0.8616
vn -0.1920 0.4481 0.8731
vn 0.8382 0.5044 0.2073
vn 0.9227 0.3822 0.0499
vn 0.6908 0.5289 -0.4930
vn 0.2188 -0.8258 -0.5198
vn 0.1807 -0.4050 -0.8963
vn 0.4080 -0.8543 -0.3221
vn 0.8617 0.1099 0.4953
vn 0.4609 0.0562 0.8857
vn 0.9923 -0.0514 -0.1127
vn 0.8370 -0.2243 -0.4992
vn 0.8614 -0.1098 -0.4960
vn 0.6159 0.6145 -0.4930
vn 0.9674 0.1453 0.2073
vn 0.8665 -0.0000 0.4992
vn 0.9988 -0.0000 0.0498
vn 0.8627 0.1126 -0.4930
vn 0.5020 -0.0000 -0.8649
vn 0.9921 -0.1141 0.0517
vn 0.8590 -0.1131 0.4993
vn -0.0513 0.4683 0.8821
vn 0.4642 0.0044 0.8857
vn 0.4516 -0.8851 -0.1127
vn 0.2243 -0.8369 -0.4993
vn 0.3356 -0.8009 -0.4960
vn 0.0935 -0.1730 -0.9805
vn -0.1333 -0.4949 -0.8586
vn -0.1852 -0.4438 -0.8768
vn 0.4977 -0.0655 0.8649
vn 0.9905 0.0786 -0.1127
vn 0.8683 0.0036 -0.4960
vn 0.8850 -0.4516 -0.1127
vn 0.9755 -0.1780 -0.1290
vn 0.4830 -0.0575 -0.8737
vn -0.8527 -0.1159 0.5094
vn -0.4492 0.0031 0.8934
vn -0.9463 0.0260 0.3221
vn -0.0567 -0.1876 -0.9806
vn -0.4443 -0.2557 -0.8586
vn -0.4448 -0.1829 -0.8768
vn 0.4442 -0.1840 -0.8768
vn 0.4919 -0.1254 -0.8616
vn 0.8033 -0.3289 0.4966
vn 0.8649 -0.4994 0.0499
vn 0.9440 -0.3038 0.1290
vn 0.8034 -0.3338 -0.4931
vn 0.4347 -0.2510 -0.8649
vn 0.9494 -0.2360 0.2074
vn 0.8185 -0.5633 -0.1127
vn -0.1969 0.1811 -0.9636
vn -0.2974 0.3908 -0.8711
vn 0.0071 0.0052 -1.0000
vn 0.6434 0.7551 -0.1260
vn 0.6866 0.5272 -0.5006
vn 0.6013 0.6135 -0.5119
vn 0.6913 -0.5260 0.4953
vn 0.3400 -0.3400 0.8768
vn 0.6114 -0.6166 0.4960
vn 0.4164 -0.2404 0.8768
vn 0.7502 -0.4373 0.4960
vn 0.6145 -0.6159 -0.4930
vn 0.3633 -0.3546 -0.8616
vn 0.5289 -0.6908 -0.4930
vn 0.2510 -0.4348 -0.8649
vn -0.8406 -0.2243 -0.4931
vn -0.4767 -0.0628 -0.8768
vn -0.4887 -0.1373 -0.8616
vn 0.3982 -0.3056 0.8649
vn 0.8330 -0.5380 -0.1290
vn 0.7062 -0.7062 -0.0498
vn 0.8022 -0.5948 0.0516
vn 0.7538 -0.4310 -0.4960
vn -0.1862 0.4544 -0.8711
vn 0.0087 0.0036 -1.0000
vn 0.6653 -0.7380 -0.1128
vn 0.4332 -0.7504 -0.4992
vn -0.4530 0.1897 -0.8711
vn 0.0036 0.0080 -1.0000
vn 0.3056 -0.3982 0.8649
vn 0.5257 -0.6911 0.4960
vn 0.7042 -0.6791 0.2073
vn 0.6080 -0.7924 0.0498
vn 0.2218 0.8244 -0.5207
vn 0.0492 0.4559 -0.8887
vn 0.0901 0.9402 -0.3286
vn 0.3815 -0.2927 -0.8768
vn 0.5044 -0.8382 0.2073
vn 0.3316 -0.8005 0.4992
vn 0.3822 -0.9227 0.0498
vn 0.1124 -0.8592 -0.4991
vn 0.1317 -0.4511 -0.8827
vn -0.3292 -0.8039 0.4953
vn -0.2404 -0.4164 0.8768
vn -0.4373 -0.7502 0.4960
vn 0.7942 -0.6063 0.0399
vn 0.7542 -0.4298 0.4964
vn 0.6810 -0.5193 0.5164
vn 0.5633 -0.8185 -0.1128
vn -0.3035 -0.4056 0.8622
vn -0.6166 -0.6114 0.4960
vn -0.5297 -0.6903 0.4929
vn 0.1453 -0.9674 0.2074
vn -0.0000 -0.8665 0.4992
vn -0.0000 -0.9988 0.0498
vn 0.0004 -0.0008 1.0000
vn -0.1862 0.4724 0.8615
vn -0.2234 0.3683 0.9025
vn -0.8008 -0.3309 -0.4992
vn -0.7536 -0.4348 -0.4929
vn 0.2703 -0.9402 0.2073
vn 0.1131 -0.8591 0.4992
vn 0.2243 -0.8370 0.4992
vn 0.3335 -0.9339 -0.1290
vn 0.1304 -0.9902 -0.0499
vn -0.0044 -0.4643 -0.8857
vn 0.0724 -0.5024 -0.8616
vn 0.1318 0.4523 0.8821
vn -0.1106 0.0921 0.9896
vn 0.2000 -0.4666 0.8616
vn 0.1244 -0.4644 0.8768
vn -0.0000 -0.8665 -0.4992
vn 0.0655 -0.4977 0.8649
vn -0.1138 -0.8590 -0.4991
vn -0.2282 -0.8377 -0.4962
vn -0.0617 0.4584 -0.8866
vn 0.0878 0.3346 -0.9383
vn -0.1088 0.4459 -0.8885
vn -0.2071 -0.9718 -0.1127
vn 0.0805 -0.9884 -0.1290
vn -0.1140 -0.9921 0.0516
vn -0.1131 -0.8591 0.4992
vn -0.2426 -0.9688 0.0517
vn -0.2243 -0.8370 0.4992
vn -0.1805 -0.9771 -0.1127
vn -0.3316 -0.8005 -0.4992
vn 0.0006 -0.0005 1.0000
vn -0.2553 -0.0800 -0.9636
vn -0.0001 0.0088 -1.0000
vn -0.5281 -0.6870 -0.4991
vn -0.2485 -0.4426 -0.8616
vn -0.4352 -0.7534 -0.4929
vn 0.1204 0.1693 0.9782
vn 0.1187 -0.1507 0.9814
vn -0.0602 -0.5040 0.8616
vn -0.8039 -0.3291 0.4953
vn -0.4182 -0.2484 0.8737
vn -0.4637 -0.1921 0.8649
vn -0.6651 -0.7382 -0.1128
vn -0.4244 -0.8962 -0.1290
vn -0.3065 -0.9452 -0.1127
vn -0.3551 -0.1748 0.9184
vn -0.3108 -0.2980 0.9025
vn -0.4994 -0.8649 0.0499
vn -0.3038 -0.9440 0.1290
vn 0.9345 0.3328 -0.1264
vn 0.8581 0.1132 -0.5009
vn 0.8373 0.2299 -0.4961
vn -0.6945 -0.7176 0.0520
vn -0.5948 -0.8022 0.0514
vn -0.6122 -0.6132 -0.4991
vn -0.7062 -0.7062 -0.0497
vn -0.6913 -0.5261 0.4953
vn -0.3397 -0.3482 0.8737
vn -0.3982 -0.3056 0.8649
vn -0.6874 -0.5275 -0.4993
vn -0.3542 -0.3559 -0.8648
vn -0.9674 -0.1453 0.2073
vn -0.8665 -0.0000 0.4992
vn -0.9988 -0.0000 0.0498
vn -0.5312 0.6865 0.4966
vn -0.4994 0.8649 0.0499
vn -0.6653 0.7353 0.1290
vn -0.7652 -0.6095 0.2074
vn -0.7504 -0.4332 0.4992
vn -0.8649 -0.4994 0.0498
vn -0.3822 -0.3008 -0.8737
vn 0.3423 0.0017 -0.9396
vn 0.4096 0.0635 -0.9100
vn -0.7352 -0.6655 -0.1290
vn -0.8650 -0.4994 -0.0499
vn 0.1729 0.0929 -0.9806
vn -0.9227 -0.3822 0.0499
vn 0.3704 0.1999 0.9071
vn 0.3093 0.2966 0.9035
vn 0.1665 0.3584 0.9186
vn -0.9647 -0.2585 0.0499
vn -0.8850 -0.4516 -0.1127
vn 0.7498 0.4327 -0.5005
vn 0.3229 0.2576 -0.9107
vn -0.8400 -0.2214 0.4953
vn -0.4496 -0.1159 0.8857
vn -0.9923 -0.0514 -0.1127
vn -0.9339 -0.3336 -0.1290
vn -0.4535 0.1231 0.8827
vn -0.4656 0.0717 0.8821
vn -0.1373 -0.1349 0.9813
vn 0.0039 0.0284 -0.9996
vn 0.4332 -0.7504 0.4992
vn -0.5281 0.6870 -0.4991
vn -0.7555 0.6423 -0.1290
vn -0.6080 0.7924 -0.0497
vn -0.8617 -0.1099 0.4953
vn -0.4597 -0.0650 0.8857
vn -0.5020 -0.0000 0.8649
vn -0.9718 0.2071 -0.1127
vn -0.8683 -0.0036 -0.4960
vn -0.9884 -0.0804 -0.1290
vn -0.8370 0.2243 -0.4992
vn -0.8614 0.1098 -0.4960
vn -0.4435 0.2569 -0.8587
vn -0.3808 0.2938 -0.8768
vn -0.9921 0.1141 0.0517
vn -0.8590 0.1131 0.4992
vn -0.8730 0.4850 0.0516
vn -0.8036 0.3290 0.4960
vn -0.7504 0.4332 0.4992
vn 0.2404 -0.4164 0.8768
vn -0.7177 0.6944 0.0515
vn -0.6911 0.5257 0.4960
vn -0.6127 0.6127 0.4992
vn -0.5076 -0.0062 -0.8616
vn -0.4242 0.2380 0.8737
vn -0.3982 0.3056 0.8649
vn -0.8186 0.5632 -0.1127
vn -0.8036 0.3290 -0.4960
vn -0.9439 0.3040 -0.1290
vn -0.8370 0.2243 0.4992
vn -0.9647 0.2585 0.0498
vn -0.9288 0.3669 0.0516
vn -0.0480 0.1862 0.9813
vn -0.0107 -0.4546 0.8906
vn 0.1270 -0.3790 0.9166
vn -0.1363 -0.3672 0.9201
vn 0.4484 -0.0632 0.8916
vn -0.6911 0.5258 -0.4960
vn -0.8332 0.5378 -0.1290
vn -0.3005 -0.3884 -0.8711
vn -0.0070 0.0053 -1.0000
vn -0.1240 -0.2371 -0.9635
vn -0.9755 0.1780 -0.1290
vn -0.3550 0.3550 -0.8649
vn 0.0036 -0.0081 -1.0000
vn -0.7924 0.6080 0.0499
vn 0.1191 0.4119 0.9034
vn -0.0278 0.3588 0.9330
vn 0.2329 0.3101 0.9217
vn -0.7534 0.4352 -0.4929
vn -0.4637 0.1921 0.8649
vn -0.3029 -0.3812 -0.8735
vn -0.3106 -0.3089 -0.8989
vn -0.2738 -0.2067 -0.9393
vn 0.3331 0.8044 -0.4919
vn 0.2619 0.4579 -0.8496
vn 0.1572 0.4028 -0.9017
vn -0.6151 0.6154 -0.4929
vn -0.2937 0.3656 0.8832
vn -0.4310 0.7538 0.4960
vn -0.0358 -0.1721 0.9844
vn -0.2521 0.4342 -0.8648
vn -0.4310 0.7537 -0.4962
vn -0.3292 0.8039 0.4953
vn -0.2591 0.4365 0.8616
vn -0.8627 -0.1126 -0.4931
vn -0.5633 0.8185 -0.1128
vn -0.3316 0.8005 -0.4992
vn -0.0007 -0.0005 1.0000
vn -0.0583 -0.4713 -0.8800
vn -0.1805 0.9771 -0.1127
vn -0.4526 0.8823 -0.1290
vn -0.2236 0.8372 -0.4992
vn -0.0515 0.9923 -0.1127
vn -0.1169 0.8604 -0.4960
vn -0.2743 0.9603 0.0516
vn -0.2243 0.8370 0.4992
vn -0.0562 0.4609 -0.8857
vn -0.1373 0.4887 -0.8616
vn -0.1304 0.9902 0.0500
vn -0.0049 0.8564 -0.5163
vn 0.0868 0.0189 -0.9960
vn -0.1169 0.8608 0.4953
vn -0.0805 0.9884 0.1290
vn 0.3531 0.2131 0.9110
vn 0.8042 0.3276 0.4959
vn 0.7541 0.4350 0.4921
vn -0.3714 0.9271 0.0510
vn -0.4817 0.7819 -0.3957
vn -0.4908 0.8484 0.1983
vn 0.9441 0.2544 0.2095
vn -0.3755 0.9029 0.2094
vn 0.1410 0.9892 0.0404
vn -0.0805 0.9884 -0.1291
vn -0.0803 0.9885 0.1282
vn -0.0002 0.4172 0.9088
vn 0.1146 0.8514 0.5119
vn -0.0048 0.8680 0.4966
vn 0.0001 -0.0001 1.0000
vn 0.1948 -0.4987 0.8446
vn 0.2233 -0.3685 0.9024
vn 0.1789 0.9758 -0.1255
vn 0.2553 0.9656 0.0501
vn 0.2238 0.8362 0.5006
vn 0.0085 -0.0024 -1.0000
vn 0.3318 0.7897 0.5160
vn -0.2020 0.2155 -0.9554
vn -0.4113 0.1868 -0.8922
vn -0.3572 0.2713 -0.8938
vn 0.7366 0.6659 -0.1184
vn 0.8649 0.4994 -0.0507
vn 0.4395 0.1569 -0.8844
vn -0.0471 0.1923 -0.9802
vn 0.2583 0.3355 -0.9059
vn 0.3048 0.9440 -0.1263
vn 0.4996 0.7798 -0.3773
vn 0.5308 0.6901 -0.4920
vn -0.7627 -0.5113 -0.3961
vn -0.6101 -0.6171 -0.4969
vn -0.6423 -0.7561 -0.1260
vn 0.2191 -0.8401 0.4962
vn 0.1086 -0.4082 0.9064
vn 0.5246 0.6789 0.5137
vn 0.2235 0.4003 0.8887
vn -0.1753 -0.0101 0.9845
vn 0.8297 0.2192 0.5134
vn 0.3800 0.1683 0.9096
vn 0.2821 0.0528 0.9579
vn 0.4303 0.8169 0.3842
vn 0.6063 0.7937 0.0498
vn 0.6168 0.6108 0.4964
vn 0.7063 0.7061 0.0495
vn 0.0008 -0.0004 1.0000
vn 0.4666 -0.2000 0.8616
vn 0.4723 -0.1206 0.8731
vn 0.2032 0.3090 -0.9291
vn 0.3800 0.9237 0.0497
vn 0.7245 0.5955 0.3471
vn 0.7878 0.3301 -0.5200
vn 0.9227 0.3822 -0.0506
vn 0.8642 0.5006 0.0501
vn 0.5387 0.8331 -0.1255
vn 0.3545 0.2164 -0.9097
vn 0.4113 -0.0832 0.9077
vn 0.3644 -0.2101 0.9072
vn 0.9906 -0.1271 0.0503
vn 0.8571 0.0084 0.5151
vn 0.8583 -0.1127 0.5007
vn 0.8579 -0.1136 -0.5010
vn 0.9388 0.0345 -0.3427
vn 0.7915 -0.3288 -0.5151
vn 0.3636 -0.2108 -0.9074
vn 0.3882 -0.0434 -0.9205
vn 0.9647 0.2585 0.0508
vn 0.8827 0.4519 0.1290
vn -0.4033 0.0531 -0.9135
vn -0.2674 -0.0219 -0.9634
vn -0.4270 0.0026 -0.9043
vn 0.9697 0.2087 -0.1269
vn 0.8615 0.1087 0.4959
vn 0.4211 0.0558 0.9053
vn 0.9902 0.1304 0.0506
vn 0.4010 0.1154 -0.9088
vn 0.9992 -0.0001 0.0395
vn 0.8374 -0.2291 0.4963
vn 0.4133 -0.0468 0.9094
vn 0.3922 -0.1041 0.9140
vn 0.9647 -0.2586 0.0495
vn 0.8362 -0.2242 -0.5005
vn 0.4106 -0.0462 -0.9107
vn 0.9756 -0.1797 -0.1260
vn 0.9908 -0.0500 -0.1256
vn 0.4036 -0.0976 -0.9097
vn 0.6920 -0.6050 -0.3938
vn 0.7545 -0.4294 -0.4963
vn 0.8963 -0.4250 -0.1269
vn -0.2269 -0.3203 0.9197
vn -0.1190 -0.4115 0.9036
vn 0.8544 -0.3828 0.3513
vn -0.1574 0.0808 0.9842
vn 0.8656 -0.4982 0.0501
vn -0.7039 -0.7085 0.0502
vn -0.5246 -0.6920 0.4959
vn -0.6122 -0.6122 0.5005
vn 0.6116 -0.6123 -0.5010
vn 0.7063 -0.7061 -0.0497
vn 0.9451 -0.3047 -0.1184
vn 0.2838 -0.2149 -0.9345
vn 0.5194 -0.6761 -0.5226
vn 0.6080 -0.7924 -0.0504
vn 0.2017 -0.3525 -0.9138
vn 0.3069 -0.2319 -0.9230
vn -0.4193 -0.1686 -0.8921
vn -0.4228 -0.1125 -0.8992
vn 0.4390 -0.7490 -0.4962
vn 0.5632 -0.8166 -0.1264
vn 0.3090 -0.2959 -0.9039
vn 0.3499 -0.1684 0.9215
vn 0.6106 -0.6173 0.4961
vn 0.4391 -0.7489 0.4964
vn 0.3378 -0.8877 0.3129
vn 0.5632 -0.8163 0.1281
vn 0.6080 -0.7923 0.0506
vn 0.7560 -0.6419 0.1285
vn 0.3330 -0.9345 -0.1255
vn 0.1130 -0.8583 -0.5005
vn 0.5267 -0.6781 0.5125
vn 0.0002 -0.0005 1.0000
vn 0.2606 -0.9642 0.0496
vn 0.0003 -0.4997 -0.8662
vn -0.0046 -0.8680 -0.4965
vn 0.8400 -0.2214 0.4953
vn 0.1058 -0.8539 0.5096
vn 0.2074 -0.9698 -0.1286
vn 0.0004 -0.9992 -0.0391
vn -0.3716 -0.9070 0.1981
vn -0.4326 -0.7498 0.5007
vn -0.4987 -0.8653 0.0501
vn -0.1151 -0.8512 0.5120
vn 0.6896 -0.5304 -0.4930
vn 0.0555 -0.4201 -0.9058
vn 0.1945 -0.3521 -0.9155
vn 0.1327 -0.9899 0.0497
vn -0.0273 -0.9460 0.3230
vn -0.0570 -0.4369 -0.8977
vn -0.2553 -0.9656 0.0501
vn -0.2238 -0.8362 0.5006
vn 0.3079 -0.2954 0.9044
vn 0.1812 -0.2356 0.9548
vn -0.4330 -0.7490 -0.5015
vn -0.3126 -0.8850 -0.3449
vn -0.3311 -0.7928 0.5117
vn -0.1047 -0.9381 -0.3301
vn -0.0074 0.0006 -1.0000
vn -0.3761 -0.2158 -0.9011
vn -0.1782 -0.9759 -0.1259
vn -0.6084 -0.7927 0.0395
vn -0.9887 0.1413 0.0508
vn -0.9801 0.0028 -0.1983
vn -0.5969 -0.7182 -0.3577
vn -0.7544 -0.4342 -0.4923
vn -0.9640 -0.2609 0.0507
vn -0.7897 -0.3356 0.5135
vn -0.8361 -0.2241 0.5008
vn -0.8165 -0.5635 -0.1256
vn -0.7935 -0.3263 -0.5137
vn -0.7912 -0.6102 0.0399
vn -0.6793 -0.5240 0.5137
vn -0.3653 -0.2215 0.9041
vn -0.7540 -0.4356 0.4918
vn -0.8830 -0.4520 -0.1265
vn -0.8363 -0.2241 -0.5005
vn -0.9697 -0.2079 0.1281
vn -0.8646 -0.5000 0.0501
vn -0.1914 -0.0660 0.9793
vn -0.1550 0.9050 0.3961
vn -0.9345 -0.3328 -0.1265
vn -0.8584 -0.1130 -0.5005
vn -0.4954 -0.0652 -0.8662
vn -0.9697 -0.2076 -0.1285
vn -0.4521 0.8831 -0.1255
vn -0.2220 0.8264 -0.5174
vn -0.3363 0.8004 -0.4963
vn -0.8445 0.1117 0.5238
vn -0.9227 -0.3822 0.0504
vn -0.8632 0.1144 -0.4918
vn -0.3000 0.0722 -0.9512
vn -0.9699 0.2080 -0.1265
vn -0.8684 -0.0051 -0.4959
vn -0.9345 0.3327 -0.1265
vn 0.0115 0.4239 0.9056
vn -0.1023 0.4184 0.9025
vn -0.1885 0.0562 -0.9805
vn -0.2722 0.4690 -0.8402
vn -0.1609 0.3904 -0.9065
vn -0.6103 0.6171 0.4967
vn -0.3781 0.1810 0.9079
vn -0.2968 0.2972 0.9075
vn -0.9653 0.2560 0.0507
vn -0.8361 0.2243 0.5006
vn -0.4060 0.1094 0.9073
vn -0.7955 0.3291 -0.5087
vn -0.3496 0.2033 -0.9146
vn -0.8277 0.2283 -0.5127
vn -0.6037 0.6055 -0.5185
vn -0.7630 0.5616 -0.3200
vn -0.8960 0.4256 -0.1264
vn -0.7547 0.4292 -0.4962
vn -0.2987 0.1048 0.9486
vn -0.7923 0.3361 0.5092
vn -0.7546 0.4293 0.4963
vn -0.7289 0.5925 0.3430
vn -0.9438 0.3044 -0.1290
vn -0.8649 0.4995 0.0497
vn -0.9437 0.3046 0.1290
vn -0.2662 0.3482 -0.8988
vn -0.3637 0.2100 0.9075
vn -0.2203 0.8398 0.4963
vn -0.5300 0.6907 -0.4919
vn 0.1295 0.4429 -0.8872
vn -0.2029 0.3731 0.9054
vn -0.6666 0.7363 -0.1163
vn -0.5844 0.7028 0.4058
vn -0.4325 0.7497 0.5008
vn -0.3313 0.7999 0.5004
vn -0.7551 0.6431 -0.1276
vn -0.2608 0.9641 0.0497
vn -0.7077 0.7049 0.0486
vn 0.1910 0.0449 -0.9806
vn -0.2528 0.9449 -0.2081
vn -0.1271 -0.9719 0.1983
vn -0.1571 0.9348 -0.3185
vn -0.4247 -0.8965 -0.1259
vn -0.2638 0.0347 0.9640
vn 0.4067 0.3121 0.8586
vn -0.2190 -0.3775 -0.8997
vt 0.841841 0.471724
vt 0.866825 0.452347
vt 0.839414 0.465865
vt 0.958333 0.620000
vt 0.937500 0.500000
vt 0.958333 0.500000
vt 0.781325 0.487940
vt 0.750000 0.483650
vt 0.750000 0.489993
vt 0.281325 0.487940
vt 0.250000 0.483650
vt 0.280498 0.481652
vt 0.937500 0.620000
vt 0.916667 0.500000
vt 0.979167 0.880000
vt 0.999926 1.000000
vt 0.979167 1.000000
vt 0.979167 0.620000
vt 0.979167 0.500000
vt 0.312115 0.481815
vt 0.339414 0.465865
vt 0.341841 0.471724
vt 0.958333 0.880000
vt 0.937500 1.000000
vt 0.937500 0.880000
vt 0.105084 0.061142
vt 0.104491 0.060369
vt 0.130487 0.042998
vt 0.465865 0.339414
vt 0.452347 0.366825
vt 0.430330 0.388372
vt 0.518349 0.280498
vt 0.524311 0.310473
vt 0.530444 0.308830
vt 0.812115 0.481815
vt 0.810473 0.475689
vt 0.069670 0.388372
vt 0.136350 0.446848
vt 0.084784 0.415216
vt 0.780498 0.481652
vt 0.366825 0.452347
vt 0.369996 0.457840
vt 0.687884 0.018179
vt 0.658607 0.029357
vt 0.688136 0.019120
vt 0.916667 0.880000
vt 0.916667 1.000000
vt 1.000000 0.620000
vt 0.971724 0.341841
vt 0.952347 0.366825
vt 0.957840 0.369996
vt 0.916667 0.620000
vt 0.895833 0.500000
vt 0.833333 0.500000
vt 0.854167 0.620000
vt 0.833333 0.620000
vt 0.895833 1.000000
vt 0.895833 0.880000
vt 0.396098 0.440399
vt 0.392237 0.435367
vt 0.946848 0.363651
vt 0.888372 0.430330
vt 0.935367 0.392237
vt 0.163016 0.040001
vt 0.160586 0.034135
vt 0.189527 0.024311
vt 0.250000 0.016350
vt 0.279669 0.024644
vt 0.220331 0.024644
vt 0.896098 0.440399
vt 0.915216 0.415216
vt 0.892237 0.435367
vt 0.875000 0.880000
vt 0.854167 1.000000
vt 0.854167 0.880000
vt 0.981815 0.312115
vt 0.981651 0.280498
vt 0.975689 0.310473
vt 0.770834 0.620000
vt 0.791667 0.500000
vt 0.791667 0.620000
vt 0.415216 0.415216
vt 0.419701 0.419701
vt 0.440399 0.396098
vt 0.875000 0.620000
vt 0.895833 0.620000
vt 0.481815 0.312115
vt 0.475689 0.310473
vt 0.910726 0.089274
vt 0.892237 0.064633
vt 0.863651 0.053152
vt 0.812500 0.620000
vt 0.812500 0.500000
vt 0.457840 0.369996
vt 0.779669 0.024644
vt 0.839414 0.034135
vt 0.013230 0.218828
vt 0.019120 0.188136
vt 0.029428 0.158636
vt 0.965865 0.339414
vt 0.471724 0.341841
vt 0.191170 0.469556
vt 0.189527 0.475689
vt 0.160586 0.465865
vt 0.833333 0.880000
vt 0.812500 1.000000
vt 0.812500 0.880000
vt 0.833333 1.000000
vt 0.940399 0.396098
vt 0.812116 0.018179
vt 0.841471 0.029170
vt 0.841844 0.028270
vt 0.487940 0.281325
vt 0.481652 0.280498
vt 0.729167 0.620000
vt 0.708334 0.500000
vt 0.729167 0.500000
vt 0.919701 0.419701
vt 0.770834 0.880000
vt 0.750000 1.000000
vt 0.750000 0.880000
vt 0.791667 1.000000
vt 0.770834 1.000000
vt 0.987940 0.281325
vt 0.983651 0.250000
vt 0.729167 0.880000
vt 0.729167 1.000000
vt 0.219503 0.481652
vt 0.483650 0.250000
vt 0.489993 0.250000
vt 0.562500 0.620000
vt 0.541667 0.500000
vt 0.562500 0.500000
vt 0.691170 0.030444
vt 0.689527 0.024311
vt 0.660586 0.034135
vt 0.481652 0.219502
vt 0.487940 0.218675
vt 0.750000 0.620000
vt 0.750000 0.500000
vt 0.987940 0.218675
vt 0.989993 0.250000
vt 0.687500 0.620000
vt 0.708334 0.620000
vt 0.981815 0.187885
vt 0.981651 0.219502
vt 0.012054 0.218674
vt 0.010975 0.250000
vt 0.010001 0.250000
vt 0.553152 0.136350
vt 0.547653 0.133175
vt 0.534135 0.160586
vt 0.965865 0.160586
vt 0.975689 0.189527
vt 0.687500 1.000000
vt 0.666667 0.880000
vt 0.687500 0.880000
vt 0.971724 0.158159
vt 0.952347 0.133175
vt 0.708334 0.880000
vt 0.666667 0.620000
vt 0.687500 0.500000
vt 0.589274 0.410726
vt 0.607763 0.435367
vt 0.636350 0.446848
vt 0.854167 0.500000
vt 0.875000 0.500000
vt 0.440399 0.103902
vt 0.415216 0.084784
vt 0.419701 0.080300
vt 0.471724 0.158159
vt 0.452347 0.133175
vt 0.457840 0.130004
vt 0.919701 0.080300
vt 0.915216 0.084784
vt 0.896098 0.059601
vt 0.866825 0.047653
vt 0.518185 0.187885
vt 0.518349 0.219502
vt 0.524311 0.189527
vt 0.435367 0.107763
vt 0.625000 0.500000
vt 0.645834 0.620000
vt 0.625000 0.620000
vt 0.645834 0.880000
vt 0.666667 1.000000
vt 0.645834 1.000000
vt 0.666667 0.500000
vt 0.660586 0.465865
vt 0.691170 0.469556
vt 0.604167 0.620000
vt 0.583334 0.500000
vt 0.604167 0.500000
vt 0.534135 0.339414
vt 0.553152 0.363650
vt 0.392237 0.064633
vt 0.396098 0.059601
vt 0.625000 0.880000
vt 0.604167 1.000000
vt 0.604167 0.880000
vt 0.812116 0.481821
vt 0.781199 0.486980
vt 0.781326 0.487946
vt 0.957840 0.130004
vt 0.935367 0.107763
vt 0.583334 0.880000
vt 0.562500 1.000000
vt 0.562500 0.880000
vt 0.625000 1.000000
vt 0.781325 0.012060
vt 0.810473 0.024311
vt 0.812115 0.018185
vt 0.158159 0.028276
vt 0.133175 0.047653
vt 0.130004 0.042160
vt 0.645834 1.000000
vt 0.583334 0.620000
vt 0.841841 0.028276
vt 0.869996 0.042160
vt 0.107763 0.064633
vt 0.080300 0.080300
vt 0.103902 0.059601
vt 0.520834 0.880000
vt 0.500000 1.000000
vt 0.500000 0.880000
vt 0.158902 0.469930
vt 0.158529 0.470830
vt 0.130487 0.457001
vt 0.528276 0.158159
vt 0.542160 0.130004
vt 0.541667 0.880000
vt 0.520834 1.000000
vt 0.541667 1.000000
vt 0.520834 0.500000
vt 0.541667 0.620000
vt 0.520834 0.620000
vt 0.750000 0.016350
vt 0.780498 0.018349
vt 0.310473 0.475689
vt 0.279669 0.475356
vt 0.312115 0.018185
vt 0.339414 0.034135
vt 0.310473 0.024311
vt 0.500000 0.500000
vt 0.281325 0.012060
vt 0.250000 0.010007
vt 0.280498 0.018349
vt 0.718675 0.012060
vt 0.750000 0.010007
vt 0.687885 0.018185
vt 0.718800 0.486980
vt 0.750000 0.488748
vt 0.688196 0.480656
vt 0.479167 0.620000
vt 0.500000 0.620000
vt 0.479167 0.880000
vt 0.479167 1.000000
vt 0.458334 0.880000
vt 0.458334 1.000000
vt 0.458334 0.620000
vt 0.437500 0.500000
vt 0.458334 0.500000
vt 0.479167 0.500000
vt 0.430330 0.111628
vt 0.530444 0.191170
vt 0.522699 0.250000
vt 0.603902 0.059601
vt 0.633175 0.047653
vt 0.630004 0.042160
vt 0.469556 0.308830
vt 0.475356 0.220331
vt 0.187885 0.018185
vt 0.219502 0.018349
vt 0.028276 0.158159
vt 0.047653 0.133175
vt 0.034135 0.160586
vt 0.395834 0.620000
vt 0.416667 0.500000
vt 0.416667 0.620000
vt 0.437500 0.620000
vt 0.060537 0.104620
vt 0.080984 0.080984
vt 0.437500 1.000000
vt 0.416667 0.880000
vt 0.437500 0.880000
vt 0.658159 0.028276
vt 0.770834 0.500000
vt 0.375000 0.880000
vt 0.395834 1.000000
vt 0.375000 1.000000
vt 0.395834 0.880000
vt 0.416667 1.000000
vt 0.375000 0.500000
vt 0.375000 0.620000
vt 0.059601 0.103902
vt 0.084784 0.084784
vt 0.064633 0.107763
vt 0.354167 0.500000
vt 0.584784 0.084784
vt 0.580299 0.080300
vt 0.270834 0.880000
vt 0.250000 1.000000
vt 0.250000 0.880000
vt 0.104167 1.000000
vt 0.083334 0.880000
vt 0.104167 0.880000
vt 0.354167 0.880000
vt 0.333334 1.000000
vt 0.333334 0.880000
vt 0.564633 0.107763
vt 0.559601 0.103902
vt 0.987946 0.281326
vt 0.988793 0.250000
vt 0.986979 0.281199
vt 0.333334 0.500000
vt 0.354167 0.620000
vt 0.333334 0.620000
vt 0.354167 1.000000
vt 0.969556 0.191170
vt 0.312500 0.880000
vt 0.439470 0.395386
vt 0.419016 0.419016
vt 0.395339 0.439409
vt 0.312500 1.000000
vt 0.291667 0.880000
vt 0.312500 0.620000
vt 0.291667 0.500000
vt 0.312500 0.500000
vt 0.957845 0.369999
vt 0.939631 0.395509
vt 0.940404 0.396102
vt 0.018185 0.187885
vt 0.024311 0.189527
vt 0.270834 0.620000
vt 0.291667 0.620000
vt 0.024311 0.310473
vt 0.018349 0.280498
vt 0.022699 0.250000
vt 0.977301 0.250000
vt 0.583334 1.000000
vt 0.104167 0.500000
vt 0.125000 0.620000
vt 0.104167 0.620000
vt 0.012060 0.218675
vt 0.018349 0.219502
vt 0.291667 1.000000
vt 0.270834 1.000000
vt 0.010007 0.250000
vt 0.016350 0.250000
vt 0.229167 0.620000
vt 0.250000 0.500000
vt 0.250000 0.620000
vt 0.208334 0.500000
vt 0.229167 0.500000
vt 0.547653 0.366825
vt 0.564633 0.392237
vt 0.229167 0.880000
vt 0.229167 1.000000
vt 0.166667 0.880000
vt 0.187500 1.000000
vt 0.166667 1.000000
vt 0.369996 0.042160
vt 0.366825 0.047653
vt 0.125000 0.880000
vt 0.145834 1.000000
vt 0.125000 1.000000
vt 0.512061 0.281325
vt 0.516350 0.250000
vt 0.510007 0.250000
vt 0.012060 0.281325
vt 0.059601 0.396098
vt 0.047653 0.366825
vt 0.064633 0.392237
vt 0.166667 0.620000
vt 0.187500 0.500000
vt 0.187500 0.620000
vt 0.208334 1.000000
vt 0.208334 0.880000
vt 0.187500 0.880000
vt 0.018185 0.312115
vt 0.363650 0.446848
vt 0.250000 0.010975
vt 0.281171 0.013230
vt 0.218834 0.013270
vt 0.528276 0.341841
vt 0.488719 0.250000
vt 0.145834 0.500000
vt 0.145834 0.620000
vt 0.518185 0.312115
vt 0.028276 0.341841
vt 0.042160 0.369996
vt 0.607763 0.064633
vt 0.589274 0.089274
vt 0.636350 0.053152
vt 0.208334 0.620000
vt 0.559601 0.396098
vt 0.584784 0.415216
vt 0.969556 0.308830
vt 0.145834 0.880000
vt 0.311864 0.480880
vt 0.281166 0.486730
vt 0.341365 0.470575
vt 0.542160 0.369996
vt 0.166667 0.500000
vt 0.034135 0.339414
vt 0.604658 0.060586
vt 0.580984 0.080984
vt 0.560551 0.104631
vt 0.841844 0.471730
vt 0.869512 0.457001
vt 0.841470 0.470830
vt 0.603902 0.440399
vt 0.580299 0.419701
vt 0.107763 0.435367
vt 0.130004 0.457840
vt 0.103902 0.440399
vt 0.388372 0.069670
vt 0.080300 0.419701
vt 0.633175 0.452347
vt 0.630004 0.457840
vt 0.158159 0.471724
vt 0.133175 0.452347
vt 0.512061 0.218675
vt 0.083334 0.620000
vt 0.062500 0.500000
vt 0.083334 0.500000
vt 0.069670 0.111628
vt 0.719503 0.018349
vt 0.041667 0.620000
vt 0.062500 0.620000
vt 0.658159 0.471724
vt 0.687885 0.481815
vt 0.341841 0.028276
vt 0.020834 0.620000
vt 0.041667 0.500000
vt 0.000074 0.500000
vt 0.020834 0.500000
vt 0.041667 0.880000
vt 0.062500 1.000000
vt 0.041667 1.000000
vt 0.187885 0.481815
vt 0.719503 0.481652
vt 0.689527 0.475689
vt 0.020834 0.880000
vt 0.750000 0.489999
vt 0.779669 0.475356
vt 0.218675 0.487940
vt 0.250000 0.489993
vt 0.718675 0.487940
vt 1.000000 0.880000
vt 0.457002 0.369512
vt 0.471730 0.341844
vt 0.457845 0.369999
vt 0.062500 0.880000
vt 0.083334 0.535407
vt 0.791667 0.880000
vt 0.250000 0.489025
vt 0.281326 0.487946
vt 0.250000 0.489999
vt 0.999989 1.000000
vt 0.341098 0.030071
vt 0.341471 0.029170
vt 0.369512 0.042998
vt 0.000074 1.000000
vt 0.000000 0.880000
vt 0.937500 0.500000
vt 0.958333 1.000000
vt 0.836984 0.459999
vt 0.341844 0.471730
vt 0.312116 0.481821
vt 0.581157 0.418843
vt 0.529407 0.341373
vt 0.560369 0.395509
vt 0.970539 0.341350
vt 0.869025 0.456157
vt 0.895509 0.439631
vt 0.916667 0.535406
vt 0.919705 0.419705
vt 0.896102 0.440404
vt 0.083334 1.000000
vt 0.354167 0.535394
vt 0.312116 0.018179
vt 0.311864 0.019120
vt 0.396102 0.440404
vt 0.369512 0.457002
vt 0.869999 0.457845
vt 0.111628 0.069670
vt 0.481821 0.312116
vt 0.470830 0.341471
vt 0.480597 0.311788
vt 0.916667 0.964598
vt 0.419705 0.419705
vt 0.875000 1.000000
vt 0.459998 0.163016
vt 0.465865 0.160586
vt 0.475689 0.189527
vt 0.918841 0.418842
vt 0.440404 0.396102
vt 0.369999 0.457845
vt 0.854167 0.964606
vt 0.971730 0.341844
vt 0.957001 0.369512
vt 0.457845 0.130001
vt 0.470599 0.158625
vt 0.457002 0.130488
vt 0.981821 0.312116
vt 0.987946 0.218674
vt 0.989999 0.250000
vt 0.971730 0.158156
vt 0.957001 0.130487
vt 0.970523 0.158656
vt 0.042160 0.130004
vt 0.513020 0.281199
vt 0.513987 0.218928
vt 0.510975 0.250000
vt 0.750000 0.535405
vt 0.487946 0.281326
vt 0.486980 0.281199
vt 0.770833 1.000000
vt 0.980880 0.311864
vt 0.489999 0.250000
vt 0.481821 0.187884
vt 0.486980 0.218801
vt 0.480880 0.188136
vt 0.708334 1.000000
vt 0.981821 0.187884
vt 0.986980 0.218801
vt 0.218675 0.012060
vt 0.980880 0.188136
vt 0.645834 0.535398
vt 0.158626 0.029403
vt 0.188136 0.019120
vt 0.471730 0.158156
vt 0.040001 0.163016
vt 0.687500 0.964610
vt 0.957845 0.130001
vt 0.939478 0.104608
vt 0.604167 0.500000
vt 0.487946 0.218674
vt 0.896102 0.059596
vt 0.869512 0.042998
vt 0.895319 0.060617
vt 0.529365 0.158610
vt 0.519120 0.188136
vt 0.562500 0.535400
vt 0.919705 0.080295
vt 0.940404 0.103898
vt 0.919016 0.080984
vt 0.439431 0.104644
vt 0.419705 0.080295
vt 0.440404 0.103898
vt 0.562500 0.964606
vt 0.770834 0.500000
vt 0.520834 0.500000
vt 0.396102 0.059596
vt 0.369999 0.042155
vt 0.336984 0.040001
vt 0.604167 1.000000
vt 0.750000 0.010975
vt 0.781326 0.012054
vt 0.750000 0.010001
vt 0.481815 0.187885
vt 0.281326 0.012054
vt 0.341844 0.028270
vt 0.218674 0.012054
vt 0.940399 0.103902
vt 0.781199 0.013020
vt 0.811795 0.019378
vt 0.520834 1.000000
vt 0.500000 0.964611
vt 0.718801 0.013020
vt 0.479167 1.000000
vt 0.419016 0.080984
vt 0.395368 0.060553
vt 0.250000 0.010001
vt 0.630001 0.042155
vt 0.658156 0.028270
vt 0.158156 0.028270
vt 0.718674 0.012054
vt 0.187884 0.018179
vt 0.854167 0.500000
vt 0.437500 1.000000
vt 0.103898 0.059596
vt 0.750000 0.011950
vt 0.542998 0.130488
vt 0.437500 0.535399
vt 0.080295 0.080295
vt 0.250000 0.964600
vt 0.603898 0.059596
vt 0.130001 0.042155
vt 0.580295 0.080295
vt 0.869999 0.042155
vt 0.542155 0.130001
vt 0.312500 1.000000
vt 0.312500 0.500000
vt 0.354167 0.880000
vt 0.354167 1.000000
vt 0.042998 0.130487
vt 0.028270 0.158156
vt 0.042155 0.130001
vt 0.559596 0.103898
vt 0.018179 0.187884
vt 0.270834 1.000000
vt 0.040001 0.336984
vt 0.020834 0.964594
vt 0.000012 1.000000
vt 0.270834 0.500000
vt 0.518179 0.187884
vt 0.513020 0.218801
vt 0.528270 0.158156
vt 0.041667 0.500000
vt 0.062500 0.500000
vt 0.512054 0.218674
vt 0.229167 1.000000
vt 0.512054 0.281326
vt 0.519363 0.311799
vt 0.229167 0.500000
vt 0.218826 0.486789
vt 0.188136 0.480880
vt 0.630975 0.456157
vt 0.630488 0.457002
vt 0.658529 0.470830
vt 0.080295 0.419705
vt 0.060586 0.395342
vt 0.080984 0.419016
vt 0.208334 1.000000
vt 0.012054 0.281326
vt 0.019120 0.311864
vt 0.018179 0.312116
vt 0.528270 0.341844
vt 0.542998 0.369512
vt 0.518179 0.312116
vt 0.580295 0.419705
vt 0.559596 0.396102
vt 0.145834 0.535399
vt 0.029365 0.341390
vt 0.028270 0.341844
vt 0.042155 0.369999
vt 0.059596 0.396102
vt 0.187500 0.500000
vt 0.542155 0.369999
vt 0.187500 1.000000
vt 0.604491 0.439631
vt 0.042998 0.369512
vt 0.187884 0.481821
vt 0.603898 0.440404
vt 0.811792 0.480613
vt 0.658156 0.471730
vt 0.630001 0.457845
vt 0.104608 0.439478
vt 0.104167 0.500000
vt 0.104167 0.964609
vt 0.103898 0.440404
vt 0.062500 1.000000
vt 0.687884 0.481821
vt 0.130001 0.457845
vt 0.158156 0.471730
vt 0.041667 1.000000
vt 0.510001 0.250000
vt 0.145834 0.964604
vt 0.946848 0.136350
vt 0.218674 0.487946
vt 0.479167 0.535410
vt 0.718674 0.487946
vt 0.395834 0.535394
vt 0.020834 0.535400
vt 0.059596 0.103898
vt 0.869996 0.457840
vt 0.013344 0.281156
vt 0.979167 0.535410
vt 0.435367 0.392237
vt 0.999926 0.500000
vt 0.645834 0.500000
vt 0.395834 0.500000
vt 0.125000 0.500000
vt 0.000000 0.620000
vt 0.020834 1.000000
vt 0.999989 0.500000
vt 0.630487 0.042998
vt 0.000012 0.500000
s 1
usemtl gold
f 24/1/1 29/2/2 23/3/3
f 15/4/4 24/5/1 17/6/5
f 10/7/6 2/8/7 3/9/8
f 14/10/9 5/11/10 13/12/11
f 22/13/12 30/14/13 24/5/1
f 12/15/14 6/16/15 14/17/9
f 8/18/16 17/6/5 10/19/6
f 20/20/17 26/21/18 27/22/19
f 18/23/20 27/24/19 25/25/21
f 498/26/22 500/27/23 494/28/24
f 66/29/25 60/30/26 51/31/27
f 257/32/28 264/33/29 262/34/30
f 17/35/5 23/3/3 16/36/31
f 286/37/32 307/38/33 295/39/34
f 14/17/9 18/23/20 12/15/14
f 17/35/5 9/40/35 10/7/6
f 27/22/19 33/41/36 34/42/37
f 481/43/38 486/44/39 480/45/40
f 32/46/41 27/24/19 34/47/37
f 10/19/6 1/48/42 8/18/16
f 64/49/43 57/50/44 58/51/45
f 28/52/46 38/53/47 30/14/13
f 58/54/45 48/55/48 56/56/49
f 32/46/41 41/57/50 39/58/51
f 41/59/50 33/41/36 40/60/52
f 55/61/53 35/62/54 49/63/55
f 189/64/56 191/65/57 184/66/58
f 170/67/59 162/68/60 175/69/61
f 38/70/47 43/71/62 37/72/63
f 45/73/64 54/74/65 52/75/66
f 71/76/67 77/77/68 70/78/69
f 76/79/70 71/80/67 69/81/71
f 41/59/50 46/82/72 47/83/73
f 46/82/72 54/84/65 47/83/73
f 42/85/74 38/53/47 36/86/75
f 75/87/76 66/29/25 74/88/77
f 124/89/78 132/90/79 138/91/80
f 62/92/81 71/80/67 64/93/43
f 54/84/65 60/30/26 61/94/82
f 158/95/83 138/91/80 146/96/84
f 535/97/85 529/98/86 522/99/87
f 71/76/67 63/100/88 64/49/43
f 67/101/89 60/30/26 66/29/25
f 321/102/90 323/103/91 315/104/92
f 59/105/93 67/106/89 65/107/94
f 56/56/49 64/93/43 58/54/45
f 59/105/93 54/74/65 61/108/82
f 50/109/95 57/50/44 49/63/55
f 458/110/96 452/111/97 451/112/98
f 81/113/99 74/88/77 80/114/100
f 89/115/101 99/116/102 91/117/103
f 44/118/104 49/63/55 43/71/62
f 79/119/105 88/120/106 86/121/107
f 79/119/105 75/122/76 81/123/99
f 78/124/108 84/125/109 77/77/68
f 93/126/110 88/120/106 95/127/111
f 5/11/10 329/128/112 321/102/90
f 81/113/99 87/129/113 88/130/106
f 145/131/114 154/132/115 147/133/116
f 179/134/117 181/135/118 187/136/119
f 88/130/106 94/137/120 95/138/111
f 83/139/121 91/117/103 85/140/122
f 91/141/103 84/125/109 85/142/122
f 103/143/123 99/116/102 97/144/124
f 99/145/102 90/146/125 91/141/103
f 537/147/126 541/148/127 542/149/128
f 221/150/129 223/151/130 229/152/131
f 99/145/102 104/153/132 98/154/133
f 109/155/134 114/156/135 107/157/136
f 105/158/137 112/159/138 104/153/132
f 100/160/139 109/155/134 107/157/136
f 111/161/140 105/162/137 103/143/123
f 290/163/141 298/164/142 303/165/143
f 365/85/144 373/166/145 367/167/146
f 123/168/147 129/169/148 130/170/149
f 109/171/134 115/172/150 116/173/151
f 127/174/152 132/90/79 126/175/153
f 133/176/154 140/177/155 132/90/79
f 238/178/156 243/179/157 237/180/158
f 123/168/147 115/172/150 122/181/159
f 127/182/152 117/183/160 125/184/161
f 121/185/162 116/186/151 123/187/147
f 117/183/160 113/188/163 111/161/140
f 303/165/143 312/189/164 317/190/165
f 131/191/166 141/192/167 133/193/154
f 262/34/30 270/194/168 276/195/169
f 130/170/149 136/196/170 137/197/171
f 128/198/172 137/199/171 135/200/173
f 344/201/174 338/202/175 337/203/176
f 113/204/163 118/205/177 112/159/138
f 142/206/178 151/207/179 149/208/180
f 128/198/172 123/187/147 130/209/149
f 161/210/181 153/211/182 154/212/115
f 192/213/183 198/214/184 199/215/185
f 431/185/186 427/186/187 432/216/188
f 139/217/189 147/133/116 141/192/167
f 147/218/116 140/177/155 141/219/167
f 154/212/115 146/96/84 147/218/116
f 205/220/190 213/221/191 206/222/192
f 163/223/193 171/224/194 169/225/195
f 591/226/196 593/227/197 586/228/198
f 230/229/199 223/151/130 224/230/200
f 155/231/201 165/232/202 163/223/193
f 155/231/201 151/207/179 157/233/203
f 161/234/181 152/235/204 159/236/205
f 161/210/181 167/237/206 160/238/207
f 26/21/18 19/239/208 11/240/209
f 157/241/203 150/242/210 156/243/211
f 159/236/205 168/244/212 161/234/181
f 165/245/202 170/67/59 171/246/194
f 157/241/203 164/247/213 165/245/202
f 174/248/214 167/237/206 168/249/212
f 181/135/118 174/248/214 182/250/215
f 602/251/216 331/252/217 596/253/218
f 172/254/219 168/244/212 166/255/220
f 176/256/221 171/224/194 178/257/222
f 183/258/223 178/257/222 185/259/224
f 180/260/225 188/261/226 182/262/215
f 172/254/219 182/262/215 174/263/214
f 120/264/227 122/181/159 115/172/150
f 235/265/228 243/179/157 248/266/229
f 202/267/230 195/268/231 196/269/232
f 72/270/233 92/271/234 80/114/100
f 185/272/224 177/273/235 184/66/58
f 182/250/215 187/136/119 181/135/118
f 234/274/236 226/275/237 233/276/238
f 200/277/239 196/278/232 194/279/240
f 185/272/224 191/65/57 192/213/183
f 186/280/241 196/278/232 188/261/226
f 510/281/242 506/282/243 498/26/22
f 192/283/183 197/284/244 190/285/245
f 188/286/226 195/268/231 187/136/119
f 198/214/184 206/222/192 199/215/185
f 388/81/246 396/287/247 390/80/248
f 211/288/249 206/289/192 213/290/191
f 204/291/250 199/292/185 206/289/192
f 210/293/251 200/277/239 208/294/252
f 220/295/253 212/296/254 219/297/255
f 208/294/252 216/298/256 210/293/251
f 209/299/257 202/267/230 210/300/251
f 245/301/258 255/302/259 253/303/260
f 302/304/261 308/305/262 300/306/263
f 218/307/264 227/308/265 225/309/266
f 224/230/200 215/310/267 216/311/256
f 396/312/247 401/313/268 395/314/269
f 210/300/251 215/310/267 209/299/257
f 224/315/200 214/316/270 222/317/271
f 211/288/249 220/318/253 218/307/264
f 96/319/272 98/154/133 104/153/132
f 227/308/265 232/320/273 225/309/266
f 374/321/274 369/322/275 362/323/276
f 234/324/236 239/325/277 232/320/273
f 29/2/2 37/72/63 35/62/54
f 228/326/278 238/327/156 230/328/199
f 222/317/271 230/328/199 224/315/200
f 238/178/156 229/152/131 230/229/199
f 378/329/279 372/330/280 373/331/145
f 241/332/281 233/276/238 240/333/282
f 242/334/283 238/327/156 236/335/284
f 267/336/285 260/337/286 252/338/287
f 77/77/68 84/125/109 82/339/288
f 142/206/178 137/199/171 144/340/289
f 299/341/290 291/342/291 297/343/292
f 247/344/293 240/333/282 246/345/294
f 245/301/258 241/346/281 247/347/293
f 82/339/288 84/125/109 90/146/125
f 255/348/259 246/345/294 254/349/295
f 256/350/296 251/351/297 249/352/298
f 256/350/296 265/353/299 258/354/300
f 276/195/169 278/355/301 284/356/302
f 259/357/303 255/302/259 261/358/304
f 280/359/305 275/360/306 282/361/307
f 144/362/289 136/196/170 143/363/308
f 294/364/309 289/365/310 296/366/311
f 258/367/300 250/368/312 251/369/297
f 261/370/304 254/349/295 260/337/286
f 289/371/310 281/372/313 288/373/314
f 190/285/245 180/260/225 183/258/223
f 277/374/315 271/375/316 269/376/317
f 259/357/303 268/377/318 266/378/319
f 273/379/320 268/377/318 275/360/306
f 261/370/304 267/336/285 268/380/318
f 46/82/72 40/60/52 31/381/321
f 472/382/322 465/383/323 476/384/324
f 271/385/316 278/355/301 270/194/168
f 591/226/196 498/26/22 402/386/325
f 291/342/291 285/387/326 283/388/327
f 265/389/299 270/194/168 264/33/29
f 275/390/306 281/372/313 282/391/307
f 201/392/328 207/393/329 193/394/330
f 269/376/317 265/353/299 263/395/331
f 285/396/326 292/397/332 284/356/302
f 63/100/88 68/398/333 55/61/53
f 282/361/307 287/399/334 280/359/305
f 346/400/335 339/401/336 351/402/337
f 284/356/302 279/403/338 285/396/326
f 277/374/315 285/387/326 279/404/338
f 268/380/318 274/405/339 275/390/306
f 497/406/340 503/407/341 509/408/342
f 350/409/343 356/410/344 349/411/345
f 299/412/290 292/397/332 293/413/346
f 301/414/347 310/415/348 302/416/261
f 265/389/299 257/32/28 258/367/300
f 134/417/349 129/169/148 120/264/227
f 289/371/310 295/39/34 296/418/311
f 305/419/350 299/412/290 306/420/351
f 316/421/352 309/422/353 315/104/92
f 302/416/261 295/39/34 301/414/347
f 244/423/354 250/368/312 243/179/157
f 304/424/355 313/425/356 306/426/351
f 297/343/292 306/426/351 299/341/290
f 294/364/309 302/304/261 300/306/263
f 217/427/357 219/297/255 212/296/254
f 173/428/358 181/135/118 179/134/117
f 318/429/359 313/425/356 311/430/360
f 312/189/164 306/420/351 313/431/356
f 320/432/361 312/189/164 313/431/356
f 151/433/179 143/363/308 150/242/210
f 325/434/362 320/435/361 318/429/359
f 325/434/362 3/436/8 327/437/363
f 322/438/364 316/439/352 324/440/365
f 324/441/365 315/104/92 323/103/91
f 320/432/361 326/442/366 319/443/367
f 32/46/41 22/13/12 25/25/21
f 324/440/365 328/444/368 322/438/364
f 333/445/369 338/202/175 331/252/217
f 7/446/370 317/190/165 2/8/7
f 330/447/371 5/11/10 6/448/15
f 327/449/363 2/8/7 326/442/366
f 36/86/75 45/73/64 42/85/74
f 12/15/14 1/48/42 4/450/372
f 59/105/93 48/55/48 52/75/66
f 323/103/91 330/447/371 324/441/365
f 380/451/373 387/452/374 381/453/375
f 592/454/376 583/455/377 585/305/378
f 128/198/172 117/183/160 121/185/162
f 52/75/66 42/85/74 45/73/64
f 18/23/20 8/18/16 12/15/14
f 239/325/277 228/326/278 232/320/273
f 121/185/162 111/161/140 114/156/135
f 79/119/105 69/81/71 73/456/379
f 114/156/135 103/143/123 107/157/136
f 248/266/229 35/62/54 158/95/83
f 169/225/195 159/236/205 163/223/193
f 93/126/110 83/139/121 86/121/107
f 86/121/107 76/79/70 79/119/105
f 65/107/94 56/56/49 59/105/93
f 39/58/51 28/52/46 32/46/41
f 25/25/21 15/4/4 18/23/20
f 149/208/180 139/217/189 142/206/178
f 176/256/221 166/255/220 169/225/195
f 163/223/193 152/235/204 155/231/201
f 183/258/223 172/254/219 176/256/221
f 225/309/266 214/316/270 218/307/264
f 155/231/201 145/131/114 149/208/180
f 322/438/364 311/430/360 314/454/380
f 142/206/178 131/191/166 135/200/173
f 253/303/260 242/334/283 245/301/258
f 204/291/250 208/294/252 200/277/239
f 218/307/264 208/294/252 211/288/249
f 340/15/381 332/48/382 334/450/383
f 245/301/258 236/335/284 239/325/277
f 335/457/384 341/458/385 336/459/386
f 259/357/303 249/352/298 253/303/260
f 266/378/319 256/350/296 259/357/303
f 280/359/305 269/376/317 273/379/320
f 340/15/381 336/460/386 341/17/385
f 204/291/250 194/279/240 197/284/244
f 453/461/387 454/462/388 449/463/389
f 314/454/380 304/424/355 308/305/262
f 294/364/309 297/343/292 291/342/291
f 328/444/368 6/464/15 4/465/372
f 342/4/390 350/466/343 344/6/174
f 328/444/368 318/429/359 322/438/364
f 197/284/244 186/280/241 190/285/245
f 345/23/391 341/17/385 347/467/392
f 16/36/31 21/468/393 7/446/370
f 353/469/394 346/400/335 351/402/337
f 347/470/392 339/401/336 346/400/335
f 572/471/395 556/472/396 568/473/397
f 378/54/279 371/55/398 376/56/399
f 401/313/268 383/474/400 395/314/269
f 354/475/401 356/410/344 360/476/402
f 348/13/403 355/477/404 350/466/343
f 367/478/146 360/476/402 361/479/405
f 310/480/348 314/454/380 308/305/262
f 508/481/406 504/293/407 502/294/408
f 461/482/409 454/462/388 460/483/410
f 364/484/411 357/485/412 362/323/276
f 361/479/405 356/410/344 355/486/404
f 198/214/184 189/64/56 203/487/413
f 393/488/414 386/489/415 391/490/416
f 358/491/417 364/57/411 363/58/418
f 370/492/419 362/323/276 369/322/275
f 363/58/418 370/493/419 368/73/420
f 106/494/421 108/495/422 101/496/423
f 373/331/145 366/497/424 367/478/146
f 352/25/425 347/467/392 353/24/394
f 374/321/274 381/453/375 375/498/426
f 353/469/394 357/485/412 358/499/417
f 384/93/427 376/56/399 382/92/428
f 379/105/429 375/500/426 381/108/375
f 359/86/430 367/167/146 361/53/405
f 384/501/427 377/502/431 378/329/279
f 370/492/419 374/321/274 375/498/426
f 427/503/187 420/504/432 426/505/433
f 215/310/267 221/150/129 207/393/329
f 408/126/434 404/120/435 410/127/436
f 390/506/248 383/474/400 384/501/427
f 407/507/437 401/313/268 400/508/438
f 419/509/439 423/510/440 418/511/441
f 387/106/374 392/456/442 385/107/443
f 220/295/253 226/275/237 227/512/265
f 544/513/444 531/514/445 539/515/446
f 394/79/447 400/516/438 396/287/247
f 399/517/448 391/490/416 398/518/449
f 183/258/223 192/283/183 190/285/245
f 392/456/442 399/519/448 397/119/450
f 396/312/247 389/520/451 390/506/248
f 397/119/450 404/120/435 403/121/452
f 398/518/449 404/521/435 399/517/448
f 382/92/428 390/80/248 384/93/427
f 416/522/453 409/523/454 415/524/455
f 408/126/434 416/525/453 414/160/456
f 380/451/373 391/490/416 386/489/415
f 413/526/457 406/527/458 407/507/437
f 398/518/449 391/490/416 402/386/325
f 411/144/459 419/162/439 413/116/457
f 178/528/222 170/67/59 177/273/235
f 405/115/460 413/116/457 407/117/437
f 419/509/439 412/529/461 413/526/457
f 428/530/462 424/188/463 422/161/464
f 487/531/465 483/532/466 476/384/324
f 416/522/453 420/504/432 421/533/467
f 226/275/237 217/427/357 231/534/468
f 425/156/469 421/535/467 427/186/187
f 505/288/470 501/289/471 507/290/472
f 435/182/473 428/530/462 433/184/474
f 422/161/464 419/162/439 417/143/475
f 424/536/463 429/537/476 423/510/440
f 441/538/477 433/184/474 439/191/478
f 410/539/436 402/386/325 409/523/454
f 441/540/477 446/541/479 440/542/480
f 520/543/481 526/544/482 531/514/445
f 451/545/98 447/192/483 445/217/484
f 435/546/473 429/537/476 428/547/462
f 441/540/477 434/548/485 435/546/473
f 430/549/486 438/550/487 432/551/188
f 445/217/484 441/538/477 439/191/478
f 450/340/488 455/552/489 448/206/490
f 76/79/70 85/140/122 78/553/108
f 438/209/487 443/200/491 436/198/492
f 456/235/493 464/554/494 458/132/96
f 444/555/495 449/463/389 450/556/488
f 148/557/496 150/242/210 143/363/308
f 431/185/186 438/209/487 436/198/492
f 448/206/490 444/558/495 450/340/488
f 459/231/497 455/552/489 461/233/409
f 65/107/94 75/122/76 73/456/379
f 470/559/498 464/560/494 471/561/499
f 102/562/500 108/495/422 109/171/134
f 461/482/409 465/383/323 467/563/501
f 471/244/499 462/236/502 469/255/503
f 488/285/504 495/292/505 493/284/506
f 450/556/488 454/462/388 455/564/489
f 478/565/507 472/382/322 476/384/324
f 119/566/508 126/175/153 118/205/177
f 458/110/96 463/567/509 457/568/510
f 466/223/511 461/233/409 467/569/501
f 45/73/64 41/57/50 47/493/73
f 246/345/294 240/333/282 231/534/468
f 467/569/501 473/570/512 466/223/511
f 471/561/499 475/571/513 470/559/498
f 482/258/514 478/572/507 484/259/515
f 444/555/495 437/573/516 442/574/517
f 467/563/501 472/382/322 473/575/512
f 492/576/518 486/44/39 485/577/519
f 489/578/520 483/532/466 487/531/465
f 481/43/38 475/571/513 474/579/521
f 484/580/515 476/384/324 483/532/466
f 42/85/74 50/581/95 44/167/104
f 488/285/504 484/259/515 489/582/520
f 501/583/471 494/28/24 500/27/23
f 463/567/509 468/584/522 457/568/510
f 509/408/342 514/585/523 520/543/481
f 485/586/519 481/262/38 479/260/524
f 493/284/506 501/289/471 499/291/525
f 500/27/23 507/587/472 501/583/471
f 547/357/526 538/352/527 542/588/128
f 162/68/60 156/243/211 148/557/496
f 497/406/340 492/576/518 496/589/528
f 495/590/505 487/531/465 494/28/24
f 504/591/407 497/406/340 496/589/528
f 452/111/97 447/592/483 451/112/98
f 515/593/529 520/543/481 514/585/523
f 432/551/188 426/505/433 430/549/486
f 528/325/530 524/594/531 530/346/532
f 513/317/533 521/595/534 515/315/529
f 504/591/407 509/408/342 503/407/341
f 511/596/535 507/290/472 512/597/536
f 517/598/537 524/599/531 518/600/538
f 519/326/539 527/327/540 521/595/534
f 515/593/529 509/408/342 508/601/406
f 517/598/537 510/281/242 522/99/87
f 385/107/443 381/108/375 387/106/374
f 518/600/538 510/281/242 517/598/537
f 530/602/532 522/99/87 529/98/86
f 537/603/126 542/588/128 536/301/541
f 511/596/535 518/308/538 516/309/542
f 286/37/32 281/372/313 272/604/543
f 334/465/383 604/605/544 336/606/386
f 525/335/545 534/607/546 527/327/540
f 527/608/540 533/609/547 526/544/482
f 526/544/482 521/610/534 527/608/540
f 538/352/527 534/607/546 532/334/548
f 542/588/128 532/334/548 536/301/541
f 588/430/549 597/611/550 590/612/551
f 530/602/532 535/97/85 537/147/126
f 534/613/546 539/515/446 533/609/547
f 536/301/541 530/346/532 537/603/126
f 547/357/526 542/588/128 548/614/552
f 516/309/542 524/594/531 523/320/553
f 545/615/554 550/616/555 544/513/444
f 543/350/556 540/351/557 538/352/527
f 549/395/558 545/617/554 543/350/556
f 603/618/559 599/619/560 591/226/196
f 582/620/561 584/621/562 589/622/563
f 576/623/564 569/624/565 575/625/566
f 552/378/567 548/614/552 554/626/568
f 548/627/552 553/628/569 554/629/568
f 557/630/570 562/631/571 556/472/396
f 551/632/572 556/472/396 550/616/555
f 573/633/573 568/473/397 567/634/574
f 561/374/575 567/635/574 563/404/576
f 554/629/568 558/636/577 560/637/578
f 566/638/579 569/624/565 570/639/580
f 561/374/575 557/640/570 555/376/581
f 568/473/397 563/641/576 567/634/574
f 560/642/578 564/359/582 559/379/583
f 578/643/584 582/620/561 572/471/395
f 560/637/578 565/644/585 566/638/579
f 600/645/586 593/227/197 599/619/560
f 579/646/587 584/621/562 578/643/584
f 343/647/588 349/411/345 354/475/401
f 590/648/551 584/621/562 583/649/377
f 559/379/583 554/626/568 560/642/578
f 557/640/570 549/395/558 555/376/581
f 575/625/566 569/624/565 580/650/589
f 573/633/573 578/643/584 572/471/395
f 583/455/377 579/651/587 577/343/590
f 585/305/378 581/652/591 587/480/592
f 576/623/564 580/650/589 581/653/591
f 523/320/553 513/317/533 516/309/542
f 592/454/376 587/480/592 594/654/593
f 597/655/550 589/622/563 590/648/551
f 587/656/592 580/650/589 586/228/198
f 528/325/530 519/326/539 523/320/553
f 579/651/587 571/342/594 577/343/590
f 594/657/593 586/228/198 593/227/197
f 473/570/512 462/236/502 466/223/511
f 598/438/595 594/654/593 600/658/586
f 544/513/444 540/659/557 545/615/554
f 574/364/596 570/660/580 576/366/564
f 455/552/489 445/217/484 448/206/490
f 597/655/550 602/251/216 596/253/218
f 110/661/597 112/159/138 118/205/177
f 600/645/586 603/618/559 604/662/544
f 287/399/334 277/374/315 280/359/305
f 375/500/426 365/85/144 368/73/420
f 516/309/542 508/481/406 511/596/535
f 443/200/491 433/184/474 436/198/492
f 425/156/469 417/143/475 421/535/467
f 436/198/492 428/530/462 431/185/186
f 363/58/418 355/477/404 358/491/417
f 93/126/110 102/525/500 100/160/139
f 408/126/434 400/516/438 403/121/452
f 385/107/443 376/56/399 379/105/429
f 358/491/417 348/13/403 352/25/425
f 459/231/497 451/545/98 455/552/489
f 403/121/452 394/79/447 397/119/450
f 397/119/450 388/81/246 392/456/442
f 14/10/9 19/239/208 20/20/17
f 95/138/111 101/496/423 102/562/500
f 604/605/544 595/429/598 598/438/595
f 392/456/442 382/92/428 385/107/443
f 564/359/582 555/376/581 559/379/583
f 482/258/514 474/663/521 477/256/599
f 414/160/456 405/115/460 408/126/434
f 448/206/490 439/191/478 443/200/491
f 477/256/599 469/255/503 473/570/512
f 333/445/369 602/251/216 601/664/600
f 511/596/535 502/294/408 505/288/470
f 466/223/511 456/235/493 459/231/497
f 505/288/470 496/665/528 499/291/525
f 490/279/601 496/665/528 492/278/518
f 499/291/525 490/279/601 493/284/506
f 488/285/504 479/260/524 482/258/514
f 431/185/186 422/161/464 425/156/469
f 493/284/506 485/586/519 488/285/504
f 421/535/467 411/144/459 414/160/456
f 601/666/600 597/611/550 595/429/598
f 574/364/596 567/635/574 570/660/580
f 536/301/541 525/335/545 528/325/530
f 570/660/580 561/374/575 564/359/582
f 512/667/536 506/282/243 510/281/242
f 598/438/595 588/430/549 592/454/376
f 559/379/583 549/395/558 552/378/567
f 38/70/47 29/2/2 30/668/13
f 581/652/591 571/342/594 574/364/596
f 552/378/567 543/350/556 547/357/526
f 585/305/378 577/343/590 581/652/591
f 232/320/273 222/317/271 225/309/266
f 100/160/139 89/115/101 93/126/110
f 73/456/379 62/92/81 65/107/94
f 4/465/372 325/434/362 328/444/368
f 294/364/309 283/388/327 287/399/334
f 344/201/174 349/411/345 343/647/588
f 51/31/27 231/534/468 175/69/61
f 107/157/136 97/144/124 100/160/139
f 273/379/320 263/395/331 266/378/319
f 125/184/161 135/200/173 131/191/166
f 336/459/386 603/618/559 335/457/384
f 548/627/552 541/148/127 546/669/602
f 352/25/425 342/4/390 345/23/391
f 131/191/166 127/182/152 125/184/161
f 531/514/445 582/620/561 354/475/401
f 402/386/325 420/504/432 409/523/454
f 334/465/383 601/666/600 604/605/544
f 379/105/429 371/55/398 375/500/426
f 249/352/298 244/607/354 242/334/283
f 368/73/420 359/86/430 363/58/418
f 345/23/391 337/670/176 340/15/381
f 308/305/262 297/343/292 300/306/263
f 24/1/1 30/668/13 29/2/2
f 15/4/4 22/13/12 24/5/1
f 10/7/6 9/40/35 2/8/7
f 14/10/9 6/448/15 5/11/10
f 22/13/12 28/52/46 30/14/13
f 12/15/14 4/450/372 6/16/15
f 8/18/16 15/4/4 17/6/5
f 20/20/17 19/239/208 26/21/18
f 603/618/559 339/401/336 335/457/384
f 18/23/20 20/467/17 27/24/19
f 487/531/465 498/26/22 494/28/24
f 53/671/603 51/31/27 60/30/26
f 51/31/27 72/270/233 66/29/25
f 72/270/233 74/88/77 66/29/25
f 262/34/30 248/266/229 257/32/28
f 248/266/229 250/368/312 257/32/28
f 17/35/5 24/1/1 23/3/3
f 309/422/353 301/414/347 307/38/33
f 301/414/347 295/39/34 307/38/33
f 295/39/34 288/373/314 286/37/32
f 14/17/9 20/467/17 18/23/20
f 17/35/5 16/36/31 9/40/35
f 27/22/19 26/21/18 33/41/36
f 481/43/38 485/577/519 486/44/39
f 32/46/41 25/25/21 27/24/19
f 10/19/6 3/672/8 1/48/42
f 64/49/43 63/100/88 57/50/44
f 343/647/588 331/252/217 338/202/175
f 28/52/46 36/86/75 38/53/47
f 58/54/45 50/581/95 48/55/48
f 32/46/41 34/47/37 41/57/50
f 41/59/50 34/42/37 33/41/36
f 37/72/63 43/71/62 35/62/54
f 43/71/62 49/63/55 35/62/54
f 49/63/55 57/50/44 55/61/53
f 177/273/235 175/69/61 184/66/58
f 175/69/61 189/64/56 184/66/58
f 175/69/61 177/273/235 170/67/59
f 170/67/59 164/247/213 162/68/60
f 38/70/47 44/118/104 43/71/62
f 45/73/64 47/493/73 54/74/65
f 473/570/512 478/572/507 477/256/599
f 71/76/67 78/124/108 77/77/68
f 76/79/70 78/553/108 71/80/67
f 546/669/602 558/636/577 553/628/569
f 41/59/50 40/60/52 46/82/72
f 46/82/72 53/671/603 54/84/65
f 42/85/74 44/167/104 38/53/47
f 75/87/76 67/101/89 66/29/25
f 126/175/153 132/90/79 124/89/78
f 132/90/79 140/177/155 138/91/80
f 62/92/81 69/81/71 71/80/67
f 54/84/65 53/671/603 60/30/26
f 138/91/80 140/177/155 146/96/84
f 146/96/84 153/211/182 158/95/83
f 153/211/182 160/238/207 158/95/83
f 71/76/67 70/78/69 63/100/88
f 67/101/89 61/94/82 60/30/26
f 315/104/92 309/422/353 307/38/33
f 307/38/33 321/102/90 315/104/92
f 59/105/93 61/108/82 67/106/89
f 56/56/49 62/92/81 64/93/43
f 59/105/93 52/75/66 54/74/65
f 50/109/95 58/51/45 57/50/44
f 458/110/96 457/568/510 452/111/97
f 81/113/99 75/87/76 74/88/77
f 89/115/101 97/144/124 99/116/102
f 44/118/104 50/109/95 49/63/55
f 79/119/105 81/123/99 88/120/106
f 79/119/105 73/456/379 75/122/76
f 78/124/108 85/142/122 84/125/109
f 93/126/110 86/121/107 88/120/106
f 323/103/91 321/102/90 329/128/112
f 321/102/90 11/240/209 5/11/10
f 11/240/209 13/12/11 5/11/10
f 81/113/99 80/114/100 87/129/113
f 145/131/114 152/235/204 154/132/115
f 187/136/119 195/268/231 193/394/330
f 193/394/330 179/134/117 187/136/119
f 88/130/106 87/129/113 94/137/120
f 83/139/121 89/115/101 91/117/103
f 91/141/103 90/146/125 84/125/109
f 103/143/123 105/162/137 99/116/102
f 99/145/102 98/154/133 90/146/125
f 537/147/126 535/97/85 541/148/127
f 229/152/131 237/180/158 235/265/228
f 235/265/228 221/150/129 229/152/131
f 99/145/102 105/158/137 104/153/132
f 109/155/134 116/186/151 114/156/135
f 105/158/137 113/204/163 112/159/138
f 100/160/139 102/525/500 109/155/134
f 418/511/441 401/313/268 412/529/461
f 412/529/461 401/313/268 406/527/458
f 111/161/140 113/188/163 105/162/137
f 292/397/332 298/164/142 290/163/141
f 298/164/142 305/419/350 303/165/143
f 365/85/144 371/55/398 373/166/145
f 123/168/147 122/181/159 129/169/148
f 109/171/134 108/495/422 115/172/150
f 127/174/152 133/176/154 132/90/79
f 133/176/154 141/219/167 140/177/155
f 238/178/156 244/423/354 243/179/157
f 123/168/147 116/173/151 115/172/150
f 127/182/152 119/673/508 117/183/160
f 121/185/162 114/156/135 116/186/151
f 117/183/160 119/673/508 113/188/163
f 305/419/350 312/189/164 303/165/143
f 312/189/164 319/443/367 317/190/165
f 131/191/166 139/217/189 141/192/167
f 264/33/29 270/194/168 262/34/30
f 270/194/168 278/355/301 276/195/169
f 130/170/149 129/169/148 136/196/170
f 128/198/172 130/209/149 137/199/171
f 344/201/174 343/647/588 338/202/175
f 113/204/163 119/566/508 118/205/177
f 142/206/178 144/340/289 151/207/179
f 128/198/172 121/185/162 123/187/147
f 161/210/181 160/238/207 153/211/182
f 192/213/183 191/65/57 198/214/184
f 431/185/186 425/156/469 427/186/187
f 139/217/189 145/131/114 147/133/116
f 147/218/116 146/96/84 140/177/155
f 154/212/115 153/211/182 146/96/84
f 205/220/190 212/296/254 213/221/191
f 163/223/193 165/232/202 171/224/194
f 580/650/589 591/226/196 586/228/198
f 230/229/199 229/152/131 223/151/130
f 155/231/201 157/233/203 165/232/202
f 155/231/201 149/208/180 151/207/179
f 161/234/181 154/132/115 152/235/204
f 161/210/181 168/249/212 167/237/206
f 558/636/577 569/624/565 565/644/585
f 13/12/11 11/240/209 19/239/208
f 11/240/209 31/381/321 26/21/18
f 31/381/321 33/41/36 26/21/18
f 157/241/203 151/433/179 150/242/210
f 159/236/205 166/255/220 168/244/212
f 165/245/202 164/247/213 170/67/59
f 157/241/203 156/243/211 164/247/213
f 174/248/214 173/428/358 167/237/206
f 181/135/118 173/428/358 174/248/214
f 172/254/219 174/263/214 168/244/212
f 176/256/221 169/225/195 171/224/194
f 183/258/223 176/256/221 178/257/222
f 180/260/225 186/280/241 188/261/226
f 172/254/219 180/260/225 182/262/215
f 115/172/150 108/495/422 106/494/421
f 106/494/421 120/264/227 115/172/150
f 237/180/158 243/179/157 235/265/228
f 243/179/157 250/368/312 248/266/229
f 202/267/230 201/392/328 195/268/231
f 94/137/120 87/129/113 92/271/234
f 87/129/113 80/114/100 92/271/234
f 80/114/100 74/88/77 72/270/233
f 185/272/224 178/528/222 177/273/235
f 182/250/215 188/286/226 187/136/119
f 234/274/236 227/512/265 226/275/237
f 200/277/239 202/674/230 196/278/232
f 185/272/224 184/66/58 191/65/57
f 186/280/241 194/279/240 196/278/232
f 506/282/243 500/27/23 498/26/22
f 192/283/183 199/292/185 197/284/244
f 188/286/226 196/269/232 195/268/231
f 198/214/184 205/220/190 206/222/192
f 388/81/246 394/79/447 396/287/247
f 211/288/249 204/291/250 206/289/192
f 204/291/250 197/284/244 199/292/185
f 210/293/251 202/674/230 200/277/239
f 220/295/253 213/221/191 212/296/254
f 208/294/252 214/316/270 216/298/256
f 209/299/257 201/392/328 202/267/230
f 245/301/258 247/347/293 255/302/259
f 302/304/261 310/480/348 308/305/262
f 218/307/264 220/318/253 227/308/265
f 224/230/200 223/151/130 215/310/267
f 396/312/247 400/508/438 401/313/268
f 210/300/251 216/311/256 215/310/267
f 224/315/200 216/298/256 214/316/270
f 211/288/249 213/290/191 220/318/253
f 104/153/132 112/159/138 110/661/597
f 110/661/597 96/319/272 104/153/132
f 227/308/265 234/324/236 232/320/273
f 234/324/236 241/346/281 239/325/277
f 35/62/54 21/468/393 29/2/2
f 21/468/393 23/3/3 29/2/2
f 228/326/278 236/335/284 238/327/156
f 222/317/271 228/326/278 230/328/199
f 238/178/156 237/180/158 229/152/131
f 378/329/279 377/502/431 372/330/280
f 241/332/281 234/274/236 233/276/238
f 242/334/283 244/607/354 238/327/156
f 254/349/295 252/338/287 260/337/286
f 252/338/287 272/604/543 267/336/285
f 272/604/543 274/405/339 267/336/285
f 82/339/288 68/398/333 77/77/68
f 68/398/333 70/78/69 77/77/68
f 142/206/178 135/200/173 137/199/171
f 299/341/290 293/675/346 291/342/291
f 247/344/293 241/332/281 240/333/282
f 245/301/258 239/325/277 241/346/281
f 90/146/125 98/154/133 96/319/272
f 96/319/272 82/339/288 90/146/125
f 255/348/259 247/344/293 246/345/294
f 256/350/296 258/354/300 251/351/297
f 256/350/296 263/395/331 265/353/299
f 284/356/302 292/397/332 290/163/141
f 290/163/141 276/195/169 284/356/302
f 259/357/303 253/303/260 255/302/259
f 280/359/305 273/379/320 275/360/306
f 144/362/289 137/197/171 136/196/170
f 294/364/309 287/399/334 289/365/310
f 258/367/300 257/32/28 250/368/312
f 261/370/304 255/348/259 254/349/295
f 289/371/310 282/391/307 281/372/313
f 190/285/245 186/280/241 180/260/225
f 277/374/315 279/404/338 271/375/316
f 259/357/303 261/358/304 268/377/318
f 273/379/320 266/378/319 268/377/318
f 261/370/304 260/337/286 267/336/285
f 33/41/36 31/381/321 40/60/52
f 31/381/321 51/31/27 46/82/72
f 51/31/27 53/671/603 46/82/72
f 271/385/316 279/403/338 278/355/301
f 391/490/416 374/321/274 362/323/276
f 362/323/276 351/402/337 591/226/196
f 351/402/337 339/401/336 591/226/196
f 339/401/336 603/618/559 591/226/196
f 591/226/196 580/650/589 569/624/565
f 569/624/565 558/636/577 546/669/602
f 546/669/602 535/97/85 522/99/87
f 522/99/87 510/281/242 498/26/22
f 498/26/22 487/531/465 453/461/387
f 487/531/465 476/384/324 453/461/387
f 476/384/324 465/383/323 453/461/387
f 453/461/387 442/574/517 430/549/486
f 430/549/486 420/504/432 453/461/387
f 420/504/432 402/386/325 453/461/387
f 402/386/325 391/490/416 591/226/196
f 391/490/416 362/323/276 591/226/196
f 591/226/196 569/624/565 498/26/22
f 569/624/565 546/669/602 498/26/22
f 546/669/602 522/99/87 498/26/22
f 498/26/22 453/461/387 402/386/325
f 291/342/291 293/675/346 285/387/326
f 265/389/299 271/385/316 270/194/168
f 275/390/306 274/405/339 281/372/313
f 193/394/330 195/268/231 201/392/328
f 201/392/328 209/299/257 207/393/329
f 269/376/317 271/375/316 265/353/299
f 285/396/326 293/413/346 292/397/332
f 55/61/53 57/50/44 63/100/88
f 63/100/88 70/78/69 68/398/333
f 282/361/307 289/365/310 287/399/334
f 284/356/302 278/355/301 279/403/338
f 277/374/315 283/388/327 285/387/326
f 268/380/318 267/336/285 274/405/339
f 350/409/343 355/486/404 356/410/344
f 299/412/290 298/164/142 292/397/332
f 301/414/347 309/422/353 310/415/348
f 265/389/299 264/33/29 257/32/28
f 136/196/170 129/169/148 134/417/349
f 129/169/148 122/181/159 120/264/227
f 289/371/310 288/373/314 295/39/34
f 305/419/350 298/164/142 299/412/290
f 316/421/352 310/415/348 309/422/353
f 302/416/261 296/418/311 295/39/34
f 244/423/354 251/369/297 250/368/312
f 304/424/355 311/430/360 313/425/356
f 297/343/292 304/424/355 306/426/351
f 294/364/309 296/366/311 302/304/261
f 205/220/190 203/487/413 212/296/254
f 203/487/413 217/427/357 212/296/254
f 179/134/117 158/95/83 173/428/358
f 158/95/83 160/238/207 167/237/206
f 173/428/358 158/95/83 167/237/206
f 318/429/359 320/435/361 313/425/356
f 312/189/164 305/419/350 306/420/351
f 320/432/361 319/443/367 312/189/164
f 151/433/179 144/362/289 143/363/308
f 325/434/362 327/437/363 320/435/361
f 325/434/362 1/676/42 3/436/8
f 322/438/364 314/454/380 316/439/352
f 351/402/337 362/323/276 357/485/412
f 324/441/365 316/421/352 315/104/92
f 320/432/361 327/449/363 326/442/366
f 32/46/41 28/52/46 22/13/12
f 324/440/365 330/677/371 328/444/368
f 333/445/369 337/203/176 338/202/175
f 319/443/367 326/442/366 317/190/165
f 326/442/366 2/8/7 317/190/165
f 2/8/7 9/40/35 7/446/370
f 330/447/371 329/128/112 5/11/10
f 327/449/363 3/9/8 2/8/7
f 36/86/75 39/58/51 45/73/64
f 12/15/14 8/18/16 1/48/42
f 59/105/93 56/56/49 48/55/48
f 323/103/91 329/128/112 330/447/371
f 380/451/373 386/489/415 387/452/374
f 592/454/376 588/430/549 583/455/377
f 128/198/172 125/184/161 117/183/160
f 52/75/66 48/55/48 42/85/74
f 18/23/20 15/4/4 8/18/16
f 239/325/277 236/335/284 228/326/278
f 121/185/162 117/183/160 111/161/140
f 79/119/105 76/79/70 69/81/71
f 114/156/135 111/161/140 103/143/123
f 193/394/330 207/393/329 221/150/129
f 221/150/129 235/265/228 248/266/229
f 248/266/229 262/34/30 276/195/169
f 276/195/169 290/163/141 303/165/143
f 303/165/143 317/190/165 7/446/370
f 7/446/370 21/468/393 303/165/143
f 21/468/393 35/62/54 303/165/143
f 35/62/54 55/61/53 68/398/333
f 68/398/333 82/339/288 96/319/272
f 96/319/272 110/661/597 124/89/78
f 124/89/78 138/91/80 158/95/83
f 158/95/83 179/134/117 193/394/330
f 193/394/330 221/150/129 248/266/229
f 248/266/229 276/195/169 35/62/54
f 276/195/169 303/165/143 35/62/54
f 35/62/54 68/398/333 96/319/272
f 96/319/272 124/89/78 35/62/54
f 124/89/78 158/95/83 35/62/54
f 158/95/83 193/394/330 248/266/229
f 169/225/195 166/255/220 159/236/205
f 93/126/110 89/115/101 83/139/121
f 86/121/107 83/139/121 76/79/70
f 65/107/94 62/92/81 56/56/49
f 39/58/51 36/86/75 28/52/46
f 25/25/21 22/13/12 15/4/4
f 149/208/180 145/131/114 139/217/189
f 176/256/221 172/254/219 166/255/220
f 163/223/193 159/236/205 152/235/204
f 183/258/223 180/260/225 172/254/219
f 225/309/266 222/317/271 214/316/270
f 155/231/201 152/235/204 145/131/114
f 322/438/364 318/429/359 311/430/360
f 142/206/178 139/217/189 131/191/166
f 253/303/260 249/352/298 242/334/283
f 204/291/250 211/288/249 208/294/252
f 218/307/264 214/316/270 208/294/252
f 340/15/381 337/670/176 332/48/382
f 245/301/258 242/334/283 236/335/284
f 335/457/384 339/401/336 341/458/385
f 259/357/303 256/350/296 249/352/298
f 266/378/319 263/395/331 256/350/296
f 280/359/305 277/374/315 269/376/317
f 340/15/381 334/450/383 336/460/386
f 204/291/250 200/277/239 194/279/240
f 442/574/517 453/461/387 449/463/389
f 314/454/380 311/430/360 304/424/355
f 294/364/309 300/306/263 297/343/292
f 328/444/368 330/677/371 6/464/15
f 342/4/390 348/13/403 350/466/343
f 337/670/176 333/678/369 332/48/382
f 328/444/368 325/434/362 318/429/359
f 197/284/244 194/279/240 186/280/241
f 345/23/391 340/15/381 341/17/385
f 7/446/370 9/40/35 16/36/31
f 16/36/31 23/3/3 21/468/393
f 353/469/394 347/470/392 346/400/335
f 347/470/392 341/458/385 339/401/336
f 562/631/571 568/473/397 556/472/396
f 378/54/279 373/166/145 371/55/398
f 389/520/451 395/314/269 383/474/400
f 366/497/424 354/475/401 360/476/402
f 367/478/146 366/497/424 360/476/402
f 310/480/348 316/439/352 314/454/380
f 461/482/409 455/564/489 454/462/388
f 364/484/411 358/499/417 357/485/412
f 355/477/404 359/86/430 361/53/405
f 361/479/405 360/476/402 356/410/344
f 203/487/413 205/220/190 198/214/184
f 198/214/184 191/65/57 189/64/56
f 368/73/420 370/493/419 375/500/426
f 393/488/414 387/452/374 386/489/415
f 370/492/419 364/484/411 362/323/276
f 363/58/418 364/57/411 370/493/419
f 94/137/120 92/271/234 101/496/423
f 92/271/234 106/494/421 101/496/423
f 352/25/425 353/24/394 358/491/417
f 373/331/145 372/330/280 366/497/424
f 352/25/425 345/23/391 347/467/392
f 374/321/274 380/451/373 381/453/375
f 353/469/394 351/402/337 357/485/412
f 384/93/427 378/54/279 376/56/399
f 359/86/430 365/85/144 367/167/146
f 384/501/427 383/474/400 377/502/431
f 370/492/419 369/322/275 374/321/274
f 427/503/187 421/533/467 420/504/432
f 337/670/176 342/4/390 344/6/174
f 207/393/329 209/299/257 215/310/267
f 215/310/267 223/151/130 221/150/129
f 408/126/434 403/121/452 404/120/435
f 390/506/248 389/520/451 383/474/400
f 407/507/437 406/527/458 401/313/268
f 419/509/439 424/536/463 423/510/440
f 387/106/374 393/122/414 392/456/442
f 220/295/253 219/297/255 226/275/237
f 550/616/555 531/514/445 544/513/444
f 531/514/445 533/609/547 539/515/446
f 399/517/448 393/488/414 391/490/416
f 183/258/223 185/259/224 192/283/183
f 392/456/442 393/122/414 399/519/448
f 486/44/39 468/584/522 480/45/40
f 468/584/522 470/559/498 475/571/513
f 480/45/40 468/584/522 475/571/513
f 396/312/247 395/314/269 389/520/451
f 397/119/450 399/519/448 404/120/435
f 400/516/438 405/115/460 407/117/437
f 398/518/449 402/386/325 404/521/435
f 382/92/428 388/81/246 390/80/248
f 416/522/453 410/539/436 409/523/454
f 408/126/434 410/127/436 416/525/453
f 374/321/274 391/490/416 380/451/373
f 413/526/457 412/529/461 406/527/458
f 411/144/459 417/143/475 419/162/439
f 178/528/222 171/246/194 170/67/59
f 405/115/460 411/144/459 413/116/457
f 419/509/439 418/511/441 412/529/461
f 416/522/453 415/524/455 420/504/432
f 231/534/468 233/276/238 226/275/237
f 226/275/237 219/297/255 217/427/357
f 505/288/470 499/291/525 501/289/471
f 454/462/388 453/461/387 460/483/410
f 453/461/387 465/383/323 460/483/410
f 422/161/464 424/188/463 419/162/439
f 424/536/463 428/547/462 429/537/476
f 441/538/477 435/182/473 433/184/474
f 410/539/436 404/521/435 402/386/325
f 441/540/477 447/592/483 446/541/479
f 526/544/482 533/609/547 531/514/445
f 435/546/473 434/548/485 429/537/476
f 441/540/477 440/542/480 434/548/485
f 430/549/486 437/573/516 438/550/487
f 445/217/484 447/192/483 441/538/477
f 76/79/70 83/139/121 85/140/122
f 438/209/487 444/558/495 443/200/491
f 430/549/486 442/574/517 437/573/516
f 456/235/493 462/236/502 464/554/494
f 444/555/495 442/574/517 449/463/389
f 143/363/308 136/196/170 134/417/349
f 134/417/349 148/557/496 143/363/308
f 431/185/186 432/216/188 438/209/487
f 448/206/490 443/200/491 444/558/495
f 497/406/340 486/44/39 491/679/604
f 65/107/94 67/106/89 75/122/76
f 470/559/498 463/567/509 464/560/494
f 102/562/500 101/496/423 108/495/422
f 461/482/409 460/483/410 465/383/323
f 451/545/98 456/235/493 458/132/96
f 471/244/499 464/554/494 462/236/502
f 488/285/504 489/582/520 495/292/505
f 450/556/488 449/463/389 454/462/388
f 478/565/507 473/575/512 472/382/322
f 119/566/508 127/174/152 126/175/153
f 458/110/96 464/560/494 463/567/509
f 466/223/511 459/231/497 461/233/409
f 45/73/64 39/58/51 41/57/50
f 233/276/238 231/534/468 240/333/282
f 231/534/468 252/338/287 246/345/294
f 252/338/287 254/349/295 246/345/294
f 471/561/499 474/579/521 475/571/513
f 482/258/514 477/256/599 478/572/507
f 474/663/521 471/244/499 469/255/503
f 444/555/495 438/550/487 437/573/516
f 467/563/501 465/383/323 472/382/322
f 492/576/518 491/679/604 486/44/39
f 479/260/524 481/262/38 474/663/521
f 489/578/520 484/580/515 483/532/466
f 481/43/38 480/45/40 475/571/513
f 484/580/515 478/565/507 476/384/324
f 42/85/74 48/55/48 50/581/95
f 488/285/504 482/258/514 484/259/515
f 501/583/471 495/590/505 494/28/24
f 463/567/509 470/559/498 468/584/522
f 485/586/519 490/279/601 492/278/518
f 493/284/506 495/292/505 501/289/471
f 500/27/23 506/282/243 507/587/472
f 547/357/526 543/350/556 538/352/527
f 164/247/213 156/243/211 162/68/60
f 156/243/211 150/242/210 148/557/496
f 497/406/340 491/679/604 492/576/518
f 495/590/505 489/578/520 487/531/465
f 429/537/476 418/511/441 423/510/440
f 440/542/480 429/537/476 434/548/485
f 502/294/408 504/293/407 496/665/528
f 504/591/407 503/407/341 497/406/340
f 452/111/97 446/541/479 447/592/483
f 564/359/582 566/361/579 570/660/580
f 515/593/529 521/610/534 520/543/481
f 432/551/188 427/503/187 426/505/433
f 528/325/530 523/320/553 524/594/531
f 513/317/533 519/326/539 521/595/534
f 504/591/407 508/601/406 509/408/342
f 511/596/535 505/288/470 507/290/472
f 517/598/537 522/99/87 524/599/531
f 519/326/539 525/335/545 527/327/540
f 508/481/406 513/317/533 515/315/529
f 515/593/529 514/585/523 509/408/342
f 385/107/443 379/105/429 381/108/375
f 420/504/432 430/549/486 426/505/433
f 518/600/538 512/667/536 510/281/242
f 530/602/532 524/599/531 522/99/87
f 511/596/535 512/597/536 518/308/538
f 288/373/314 281/372/313 286/37/32
f 281/372/313 274/405/339 272/604/543
f 446/541/479 452/111/97 457/568/510
f 457/568/510 440/542/480 446/541/479
f 525/335/545 532/334/548 534/607/546
f 527/608/540 534/613/546 533/609/547
f 526/544/482 520/543/481 521/610/534
f 538/352/527 540/351/557 534/607/546
f 542/588/128 538/352/527 532/334/548
f 588/430/549 595/429/598 597/611/550
f 530/602/532 529/98/86 535/97/85
f 534/613/546 540/659/557 539/515/446
f 536/301/541 528/325/530 530/346/532
f 535/97/85 546/669/602 541/148/127
f 516/309/542 518/308/538 524/594/531
f 545/615/554 551/632/572 550/616/555
f 543/350/556 545/617/554 540/351/557
f 549/395/558 551/353/572 545/617/554
f 599/619/560 593/227/197 591/226/196
f 596/253/218 582/620/561 589/622/563
f 576/623/564 570/639/580 569/624/565
f 552/378/567 547/357/526 548/614/552
f 548/627/552 546/669/602 553/628/569
f 557/630/570 563/641/576 562/631/571
f 551/632/572 557/630/570 556/472/396
f 573/633/573 572/471/395 568/473/397
f 554/629/568 553/628/569 558/636/577
f 566/638/579 565/644/585 569/624/565
f 561/374/575 563/404/576 557/640/570
f 568/473/397 562/631/571 563/641/576
f 560/642/578 566/361/579 564/359/582
f 578/643/584 584/621/562 582/620/561
f 560/637/578 558/636/577 565/644/585
f 383/474/400 366/497/424 377/502/431
f 377/502/431 366/497/424 372/330/280
f 600/645/586 594/657/593 593/227/197
f 581/652/591 574/364/596 576/366/564
f 579/646/587 583/649/377 584/621/562
f 349/411/345 356/410/344 354/475/401
f 571/342/594 573/675/573 567/635/574
f 590/648/551 589/622/563 584/621/562
f 559/379/583 552/378/567 554/626/568
f 557/640/570 551/353/572 549/395/558
f 332/676/382 333/680/369 601/666/600
f 573/633/573 579/646/587 578/643/584
f 576/623/564 575/625/566 580/650/589
f 523/320/553 519/326/539 513/317/533
f 592/454/376 585/305/378 587/480/592
f 597/655/550 596/253/218 589/622/563
f 588/430/549 590/612/551 583/455/377
f 587/656/592 581/653/591 580/650/589
f 528/325/530 525/335/545 519/326/539
f 579/651/587 573/675/573 571/342/594
f 594/657/593 587/656/592 586/228/198
f 473/570/512 469/255/503 462/236/502
f 598/438/595 592/454/376 594/654/593
f 544/513/444 539/515/446 540/659/557
f 455/552/489 451/545/98 445/217/484
f 604/605/544 598/438/595 600/658/586
f 597/655/550 601/664/600 602/251/216
f 118/205/177 126/175/153 124/89/78
f 124/89/78 110/661/597 118/205/177
f 600/645/586 599/619/560 603/618/559
f 287/399/334 283/388/327 277/374/315
f 375/500/426 371/55/398 365/85/144
f 516/309/542 513/317/533 508/481/406
f 443/200/491 439/191/478 433/184/474
f 425/156/469 422/161/464 417/143/475
f 436/198/492 433/184/474 428/530/462
f 363/58/418 359/86/430 355/477/404
f 93/126/110 95/127/111 102/525/500
f 408/126/434 405/115/460 400/516/438
f 385/107/443 382/92/428 376/56/399
f 358/491/417 355/477/404 348/13/403
f 459/231/497 456/235/493 451/545/98
f 403/121/452 400/516/438 394/79/447
f 397/119/450 394/79/447 388/81/246
f 14/10/9 13/12/11 19/239/208
f 95/138/111 94/137/120 101/496/423
f 604/605/544 601/666/600 595/429/598
f 392/456/442 388/81/246 382/92/428
f 564/359/582 561/374/575 555/376/581
f 482/258/514 479/260/524 474/663/521
f 414/160/456 411/144/459 405/115/460
f 448/206/490 445/217/484 439/191/478
f 477/256/599 474/663/521 469/255/503
f 333/445/369 331/252/217 602/251/216
f 511/596/535 508/481/406 502/294/408
f 466/223/511 462/236/502 456/235/493
f 505/288/470 502/294/408 496/665/528
f 499/291/525 496/665/528 490/279/601
f 488/285/504 485/586/519 479/260/524
f 431/185/186 428/530/462 422/161/464
f 493/284/506 490/279/601 485/586/519
f 421/535/467 417/143/475 411/144/459
f 574/364/596 571/342/594 567/635/574
f 536/301/541 532/334/548 525/335/545
f 570/660/580 567/635/574 561/374/575
f 512/667/536 507/587/472 506/282/243
f 598/438/595 595/429/598 588/430/549
f 559/379/583 555/376/581 549/395/558
f 38/70/47 37/72/63 29/2/2
f 581/652/591 577/343/590 571/342/594
f 552/378/567 549/395/558 543/350/556
f 585/305/378 583/455/377 577/343/590
f 232/320/273 228/326/278 222/317/271
f 100/160/139 97/144/124 89/115/101
f 73/456/379 69/81/71 62/92/81
f 4/465/372 1/676/42 325/434/362
f 294/364/309 291/342/291 283/388/327
f 344/201/174 350/409/343 349/411/345
f 175/69/61 162/68/60 148/557/496
f 148/557/496 134/417/349 120/264/227
f 120/264/227 106/494/421 92/271/234
f 92/271/234 72/270/233 51/31/27
f 51/31/27 31/381/321 11/240/209
f 11/240/209 321/102/90 51/31/27
f 321/102/90 307/38/33 51/31/27
f 307/38/33 286/37/32 272/604/543
f 272/604/543 252/338/287 307/38/33
f 252/338/287 231/534/468 307/38/33
f 231/534/468 217/427/357 203/487/413
f 203/487/413 189/64/56 175/69/61
f 175/69/61 148/557/496 51/31/27
f 148/557/496 120/264/227 51/31/27
f 120/264/227 92/271/234 51/31/27
f 231/534/468 203/487/413 175/69/61
f 51/31/27 307/38/33 231/534/468
f 107/157/136 103/143/123 97/144/124
f 273/379/320 269/376/317 263/395/331
f 125/184/161 128/198/172 135/200/173
f 336/459/386 604/662/544 603/618/559
f 548/627/552 542/149/128 541/148/127
f 352/25/425 348/13/403 342/4/390
f 131/191/166 133/193/154 127/182/152
f 509/408/342 520/543/481 531/514/445
f 531/514/445 550/616/555 582/620/561
f 550/616/555 556/472/396 582/620/561
f 556/472/396 572/471/395 582/620/561
f 582/620/561 596/253/218 331/252/217
f 331/252/217 343/647/588 582/620/561
f 343/647/588 354/475/401 582/620/561
f 354/475/401 366/497/424 383/474/400
f 383/474/400 401/313/268 418/511/441
f 418/511/441 429/537/476 440/542/480
f 440/542/480 457/568/510 468/584/522
f 468/584/522 486/44/39 497/406/340
f 497/406/340 509/408/342 531/514/445
f 354/475/401 383/474/400 468/584/522
f 383/474/400 418/511/441 468/584/522
f 418/511/441 440/542/480 468/584/522
f 468/584/522 497/406/340 354/475/401
f 497/406/340 531/514/445 354/475/401
f 414/160/456 416/525/453 421/535/467
f 415/524/455 409/523/454 420/504/432
f 334/465/383 332/676/382 601/666/600
f 379/105/429 376/56/399 371/55/398
f 249/352/298 251/351/297 244/607/354
f 368/73/420 365/85/144 359/86/430
f 345/23/391 342/4/390 337/670/176
f 308/305/262 304/424/355 297/343/292
