# Blender 5.2.1 LTS
# www.blender.org
mtllib loot-bag-lining.mtl
o Lining
v 0.485042 2.085345 0.000239
v 0.469944 2.085376 -0.047492
v 0.409978 2.085191 -0.131596
v 0.297367 2.083262 -0.273852
v 0.250534 2.084235 -0.291293
v -0.089833 2.085044 -0.343342
v -0.451158 2.084220 -0.101153
v -0.459227 2.084364 0.084730
v -0.442202 2.085054 0.145125
v -0.419078 2.085184 0.171073
v -0.388217 2.083858 0.191557
v -0.284566 2.085613 0.249698
v -0.083933 2.085011 0.342218
v -0.040366 2.083656 0.338598
v 0.319082 2.084637 0.260615
v 0.347199 2.084865 0.230549
v 0.399031 2.085285 0.146762
v 0.354426 2.235060 -0.008981
v -0.121975 2.227700 -0.235074
v -0.313565 2.187928 -0.152443
v -0.334818 2.195708 0.018380
v 0.313805 2.351522 -0.006691
v 0.230416 2.358387 -0.066373
v -0.240643 2.356687 -0.123394
v -0.265286 2.354638 -0.112362
v -0.245462 2.349711 0.004963
v -0.288096 2.320934 0.051565
v -0.164236 2.373636 0.128859
v 0.367444 2.512145 -0.008859
v 0.277554 2.498380 -0.070788
v 0.241158 2.452539 -0.085230
v 0.078968 2.496124 -0.193609
v -0.191740 2.525738 -0.168271
v -0.284262 2.487537 -0.144902
v -0.317107 2.538858 0.145135
v -0.155812 2.481707 0.152257
v 0.051441 2.442087 0.189731
v 0.253252 2.505713 0.174211
v 0.238900 2.499652 0.104545
v 0.246018 2.498475 0.084045
v 0.344094 2.595535 -0.083203
v 0.637757 2.845145 0.016924
v 0.513727 2.811730 -0.119079
v 0.446454 2.831357 0.188584
v 0.066594 2.930978 -0.435594
v -0.628815 2.852083 -0.234504
v -0.589246 2.821692 0.009094
v -0.289002 2.963510 0.414865
v 0.122743 2.799291 0.418675
v 0.418271 2.152033 0.004480
v 0.377717 2.195409 -0.018819
v 0.480648 2.085080 -0.021094
v 0.334246 2.229349 -0.040681
v 0.431267 2.121578 -0.040487
v 0.345118 2.140022 -0.120848
v 0.312642 2.195246 -0.086430
v 0.269781 2.231502 -0.103605
v 0.301784 2.141829 -0.210062
v 0.270251 2.209812 -0.160744
v 0.364444 2.084825 -0.217773
v 0.245454 2.219496 -0.189220
v 0.333912 2.084235 -0.252138
v 0.201511 2.220995 -0.209344
v 0.216895 2.151512 -0.246313
v 0.075041 2.213209 -0.218063
v 0.107033 2.085179 -0.313445
v -0.025084 2.121629 -0.314656
v -0.023012 2.205262 -0.263172
v -0.022952 2.085823 -0.343661
v -0.076590 2.155908 -0.294390
v -0.102208 2.175359 -0.276487
v -0.138756 2.084914 -0.331491
v -0.178977 2.085527 -0.314050
v -0.262831 2.084345 -0.260932
v -0.210734 2.170378 -0.204760
v -0.177633 2.232976 -0.175254
v -0.350049 2.119884 -0.185699
v -0.391267 2.085014 -0.197852
v -0.391741 2.118285 -0.155623
v -0.330171 2.207580 -0.117341
v -0.425471 2.084934 -0.167779
v -0.409323 2.118796 -0.122108
v -0.443634 2.084750 -0.137329
v -0.363262 2.173584 -0.089470
v -0.332477 2.190921 -0.022617
v -0.389223 2.133866 0.004324
v -0.448205 2.084918 -0.010605
v -0.357886 2.190755 0.104618
v -0.454784 2.084941 0.117603
v -0.315093 2.213876 0.131378
v -0.387717 2.133173 0.139662
v -0.252547 2.133256 0.215559
v -0.204782 2.208702 0.177794
v -0.128301 2.226738 0.234507
v -0.144635 2.120811 0.301250
v -0.192371 2.085369 0.312041
v -0.090684 2.195911 0.266275
v -0.150885 2.085251 0.330645
v -0.109707 2.083806 0.338432
v 0.061521 2.205678 0.225446
v 0.079031 2.125510 0.280781
v 0.098501 2.084677 0.315573
v 0.218718 2.085112 0.303966
v 0.244022 2.131391 0.258584
v 0.279543 2.084946 0.286065
v 0.228979 2.230361 0.197662
v 0.273736 2.160909 0.215830
v 0.279806 2.188638 0.155015
v 0.259776 2.236295 0.103223
v 0.337329 2.140992 0.127498
v 0.286620 2.223383 0.085630
v 0.339916 2.228471 0.043234
v 0.401944 2.157237 0.042266
v 0.459327 2.085543 0.074546
v 0.476383 2.085183 0.045577
v 0.355913 2.230247 0.019675
v 0.483378 2.084900 0.021081
v 0.323799 2.301912 -0.003393
v 0.289742 2.350611 -0.031877
v 0.305819 2.299104 -0.029924
v 0.257921 2.269009 -0.076625
v 0.221226 2.359873 -0.082439
v 0.234717 2.297362 -0.091316
v 0.224337 2.347113 -0.133033
v 0.234987 2.287419 -0.137459
v 0.219009 2.345474 -0.155161
v 0.225943 2.287011 -0.162375
v 0.200689 2.269444 -0.188451
v 0.201758 2.316514 -0.174062
v 0.164147 2.352823 -0.179823
v 0.162564 2.288534 -0.187239
v 0.079767 2.324358 -0.169667
v 0.051992 2.330394 -0.172754
v -0.018011 2.354513 -0.217258
v -0.044190 2.230788 -0.255376
v -0.040358 2.302523 -0.230627
v -0.063342 2.337367 -0.225604
v -0.079180 2.267312 -0.238852
v -0.095869 2.336295 -0.211762
v -0.108696 2.367469 -0.195318
v -0.145497 2.301616 -0.159285
v -0.137962 2.362831 -0.148428
v -0.157228 2.362945 -0.135886
v -0.183350 2.266097 -0.153774
v -0.158222 2.314801 -0.144274
v -0.249483 2.307529 -0.126433
v -0.275600 2.259109 -0.131453
v -0.276276 2.323462 -0.105158
v -0.303311 2.260186 -0.101508
v -0.283200 2.322938 -0.083887
v -0.303818 2.257454 -0.071395
v -0.274371 2.320638 -0.057844
v -0.247362 2.322612 -0.014625
v -0.273459 2.266292 -0.016048
v -0.263996 2.292936 0.008698
v -0.295867 2.241726 0.011178
v -0.308698 2.272820 0.059649
v -0.338144 2.223983 0.073276
v -0.296900 2.325027 0.074788
v -0.314264 2.264124 0.095225
v -0.292859 2.328122 0.092949
v -0.275603 2.330624 0.109238
v -0.288124 2.272697 0.119780
v -0.183689 2.292372 0.139980
v -0.166403 2.274119 0.159115
v -0.148091 2.341511 0.143727
v -0.112305 2.329790 0.200814
v -0.090703 2.332863 0.214607
v -0.056155 2.355644 0.217265
v -0.040661 2.322220 0.217063
v -0.031467 2.213242 0.250998
v -0.026361 2.288483 0.218840
v 0.040938 2.281322 0.189461
v 0.069107 2.257465 0.197745
v 0.062926 2.322233 0.176532
v 0.151502 2.353724 0.191704
v 0.199038 2.289454 0.188323
v 0.198234 2.326631 0.178794
v 0.211626 2.357117 0.149695
v 0.219200 2.295019 0.159385
v 0.248127 2.234949 0.156951
v 0.222346 2.298465 0.112715
v 0.229895 2.300939 0.080899
v 0.215870 2.369466 0.072658
v 0.287372 2.365139 0.037934
v 0.319571 2.290193 0.029131
v 0.310233 2.335516 0.020307
v 0.316296 2.384409 0.000465
v 0.326630 2.435417 -0.007462
v 0.300337 2.400061 -0.025999
v 0.324372 2.471012 -0.029887
v 0.232905 2.400828 -0.152446
v 0.247243 2.439094 -0.143674
v 0.259640 2.465663 -0.180619
v 0.217469 2.398746 -0.176446
v 0.239273 2.465549 -0.204067
v 0.200502 2.359691 -0.175293
v 0.187959 2.452015 -0.205922
v 0.074423 2.444615 -0.175637
v 0.047752 2.395736 -0.170540
v 0.048298 2.485280 -0.193805
v -0.020733 2.489014 -0.242315
v -0.019658 2.404449 -0.219811
v -0.061450 2.479184 -0.249405
v -0.112026 2.507423 -0.245581
v -0.083271 2.388052 -0.220309
v -0.090393 2.439577 -0.227203
v -0.112289 2.437346 -0.206396
v -0.141469 2.429328 -0.154688
v -0.159541 2.424067 -0.140883
v -0.242835 2.417096 -0.129992
v -0.318502 2.484420 -0.127801
v -0.280482 2.414235 -0.115813
v -0.307780 2.445007 -0.096030
v -0.276984 2.381247 -0.065115
v -0.300329 2.443736 -0.070459
v -0.263683 2.440025 -0.019811
v -0.242319 2.376960 -0.014932
v -0.249379 2.407703 0.000411
v -0.287973 2.382075 0.051311
v -0.313034 2.444922 0.055405
v -0.299613 2.385889 0.075399
v -0.333396 2.462653 0.086127
v -0.295172 2.390011 0.096035
v -0.277346 2.392283 0.110183
v -0.246097 2.412454 0.120457
v -0.169590 2.459050 0.134629
v -0.143492 2.407952 0.142142
v -0.123655 2.470559 0.214204
v -0.110185 2.397054 0.202227
v -0.070032 2.391318 0.221629
v -0.063945 2.450875 0.239845
v -0.027213 2.381572 0.211450
v -0.024161 2.442935 0.226965
v 0.034846 2.347817 0.176167
v 0.038029 2.403045 0.180811
v 0.155323 2.412537 0.200502
v 0.190553 2.399262 0.189137
v 0.228464 2.502329 0.224480
v 0.207613 2.388710 0.170356
v 0.226608 2.455481 0.185001
v 0.220458 2.423533 0.149740
v 0.207560 2.360256 0.088209
v 0.212566 2.427880 0.092978
v 0.221290 2.431401 0.074963
v 0.347435 2.533004 0.047794
v 0.295472 2.434706 0.041710
v 0.313400 2.400405 0.019183
v 0.342465 2.471628 0.018479
v 0.412304 2.570827 0.005055
v 0.387825 2.559417 -0.028212
v 0.279547 2.521176 -0.110877
v 0.317192 2.556164 -0.221206
v 0.292145 2.554051 -0.249124
v 0.227648 2.548623 -0.255463
v 0.076969 2.578757 -0.232702
v 0.026384 2.690831 -0.319485
v -0.034353 2.590363 -0.294877
v -0.090376 2.587125 -0.298939
v -0.135659 2.591758 -0.279753
v -0.165080 2.511982 -0.174831
v -0.204363 2.623756 -0.226719
v -0.365662 2.541438 -0.133811
v -0.350695 2.511718 -0.093873
v -0.326637 2.537009 -0.024677
v -0.287147 2.482153 0.001258
v -0.369397 2.586260 0.001940
v -0.369735 2.540331 0.128788
v -0.220255 2.582764 0.166440
v -0.184333 2.575187 0.180072
v -0.094589 2.557262 0.289450
v -0.063097 2.545141 0.286812
v -0.029445 2.554975 0.285496
v 0.076565 2.521374 0.229386
v 0.181621 2.492664 0.231849
v 0.312821 2.610626 0.215377
v 0.283372 2.582157 0.116084
v 0.292016 2.566225 0.089143
v 0.402177 2.573371 0.030628
v 0.617991 2.836807 -0.040010
v 0.480805 2.794114 -0.151251
v 0.089205 2.815141 -0.368328
v -0.057542 2.856730 -0.449672
v -0.134700 2.865386 -0.458220
v -0.201816 2.849511 -0.424315
v -0.228854 2.800733 -0.363088
v -0.303145 2.816954 -0.308008
v -0.416347 2.600630 -0.095662
v -0.582661 2.824164 -0.037302
v -0.341415 2.873875 0.276328
v -0.296751 2.872016 0.311090
v -0.232706 2.835245 0.394545
v 0.480330 2.827210 0.137191
v 0.604433 2.841843 0.067847
v 0.718768 2.953825 -0.000247
v 0.715235 2.953144 -0.017912
v 0.675397 2.945640 -0.071329
v 0.635213 2.935046 -0.101662
v 0.595538 2.921912 -0.127451
v 0.552821 2.895896 -0.164150
v 0.531481 2.863246 -0.209893
v 0.528405 2.835509 -0.254084
v 0.521054 2.805659 -0.319587
v 0.503671 2.792823 -0.356949
v 0.486751 2.786663 -0.377142
v 0.434548 2.784477 -0.404360
v 0.391489 2.788142 -0.412637
v 0.231576 2.834560 -0.398621
v 0.189559 2.854915 -0.396132
v 0.154537 2.875856 -0.397299
v 0.113598 2.902943 -0.408383
v 0.015117 2.953531 -0.469941
v -0.027281 2.965488 -0.492747
v -0.062615 2.971935 -0.506432
v -0.098421 2.975510 -0.514494
v -0.134362 2.976428 -0.516056
v -0.167871 2.974972 -0.510533
v -0.227184 2.965668 -0.480699
v -0.262335 2.954722 -0.447887
v -0.330232 2.919135 -0.359006
v -0.369199 2.901738 -0.332239
v -0.366282 2.881739 -0.320420
v -0.419724 2.887440 -0.315836
v -0.546495 2.865562 -0.287653
v -0.585058 2.860129 -0.271257
v -0.610774 2.855804 -0.254379
v -0.641118 2.847551 -0.205707
v -0.641478 2.842170 -0.173902
v -0.581914 2.822363 -0.015273
v -0.577884 2.810719 0.013160
v -0.607509 2.824661 0.039090
v -0.653237 2.838539 0.101089
v -0.680513 2.864938 0.170423
v -0.678207 2.877304 0.196248
v -0.666552 2.891225 0.219316
v -0.646396 2.905586 0.240099
v -0.617671 2.920702 0.257641
v -0.580695 2.936728 0.271414
v -0.533391 2.953590 0.283311
v -0.424504 2.984641 0.301015
v -0.359475 2.993008 0.326210
v -0.319174 2.982709 0.370381
v -0.257319 2.940759 0.452185
v -0.225870 2.920523 0.475563
v -0.196968 2.903439 0.489076
v -0.164524 2.885884 0.496777
v -0.122424 2.865058 0.497882
v -0.077044 2.845236 0.488829
v -0.014699 2.821504 0.465439
v 0.045869 2.804382 0.438468
v 0.087782 2.799193 0.423871
v 0.162814 2.802326 0.420243
v 0.319519 2.835327 0.441620
v 0.370964 2.848847 0.439991
v 0.420454 2.863041 0.427312
v 0.452519 2.873960 0.407092
v 0.475302 2.883928 0.380049
v 0.488467 2.892982 0.346048
v 0.493487 2.899705 0.314843
v 0.495601 2.918166 0.217834
v 0.507462 2.923865 0.189717
v 0.528804 2.929220 0.166405
v 0.666286 2.947375 0.086809
v 0.706192 2.952113 0.047023
v 0.717838 2.953847 0.018301
v 0.090621 2.136417 -0.269845
v -0.159112 2.141878 -0.270815
v -0.404730 2.138482 0.094799
v -0.174347 2.136894 0.270329
v 0.196900 2.135906 0.266725
v 0.242099 2.313261 -0.068420
v 0.079370 2.262868 -0.190186
v 0.049349 2.272001 -0.195778
v -0.005378 2.301292 -0.218599
v -0.113433 2.280383 -0.213749
v -0.242278 2.334530 0.120216
v -0.115499 2.280578 0.215684
v -0.071537 2.260638 0.236767
v 0.157988 2.290174 0.198620
v 0.177286 2.223960 0.220555
v 0.242025 2.426808 -0.065727
v 0.226119 2.405734 -0.082540
v 0.185881 2.400274 -0.187223
v 0.070765 2.383412 -0.164521
v -0.057936 2.405996 -0.228163
v -0.283799 2.382693 -0.090575
v -0.313148 2.454375 0.112308
v -0.104156 2.476213 0.237090
v 0.062575 2.376217 0.174362
v 0.299400 2.553609 -0.096576
v 0.317112 2.554181 -0.181998
v -0.345110 2.571642 -0.170856
v -0.416248 2.594230 -0.129256
v -0.385277 2.543086 0.071822
v -0.428192 2.588917 0.111144
v -0.141648 2.542951 0.241761
v -0.126380 2.577816 0.287784
v 0.055626 2.549594 0.249287
v 0.203366 2.601571 0.291231
v 0.246487 2.590760 0.280822
v 0.276517 2.563046 0.233293
v 0.702324 2.951056 -0.041809
v 0.538070 2.878942 -0.187718
v 0.465648 2.784714 -0.391568
v 0.302033 2.807444 -0.409997
v 0.169803 2.826789 -0.375248
v -0.199294 2.971270 -0.498415
v -0.632564 2.837673 -0.142292
v -0.590329 2.826397 -0.060219
v -0.673503 2.852170 0.139624
v 0.110974 2.782935 0.403673
vn 0.1173 -0.9930 -0.0118
vn -0.6156 -0.7198 0.3208
vn -0.5674 -0.7335 0.3743
vn -0.3500 -0.6334 0.6902
vn -0.2053 -0.6230 0.7548
vn 0.0870 -0.5826 0.8081
vn 0.6838 -0.7281 0.0489
vn 0.6855 -0.7276 0.0256
vn 0.6008 -0.7078 -0.3714
vn 0.4752 -0.6778 -0.5611
vn 0.4122 -0.6267 -0.6614
vn 0.3926 -0.6875 -0.6110
vn -0.0028 -0.9472 0.3208
vn -0.0959 -0.5932 -0.7993
vn -0.4796 -0.6502 -0.5892
vn -0.5955 -0.6902 -0.4112
vn -0.5409 -0.7384 -0.4027
vn -0.8406 -0.4781 0.2545
vn 0.5282 -0.4629 0.7119
vn 0.4389 -0.5487 0.7116
vn 0.7565 -0.6187 0.2119
vn -0.9479 -0.0475 0.3151
vn -0.7302 -0.0655 0.6801
vn 0.2773 0.0013 0.9608
vn 0.5928 0.0129 0.8052
vn 0.9177 -0.0704 0.3909
vn 0.8428 -0.1571 0.5147
vn 0.3594 -0.0484 -0.9319
vn -0.7852 0.5349 0.3119
vn -0.6543 0.4304 0.6218
vn -0.8944 0.4056 0.1884
vn 0.0497 0.3798 0.9237
vn 0.2734 0.4117 0.8693
vn 0.2347 0.3697 0.8990
vn 0.1760 0.3571 -0.9173
vn 0.7035 0.3275 -0.6308
vn -0.1170 0.3599 -0.9256
vn -0.8990 0.4378 0.0130
vn -0.9065 0.4140 -0.0830
vn -0.6769 0.3872 -0.6260
vn -0.6188 0.5426 0.5681
vn -0.7728 0.6216 -0.1280
vn -0.6533 0.5590 0.5106
vn -0.8090 0.5431 -0.2249
vn -0.3213 0.4358 0.8407
vn 0.5823 0.6570 0.4789
vn 0.6224 0.7395 0.2565
vn 0.7090 0.6798 -0.1875
vn -0.0525 0.6953 -0.7168
vn -0.7451 -0.6670 0.0049
vn -0.7221 -0.5997 0.3449
vn -0.6564 -0.7373 0.1600
vn -0.6498 -0.4389 0.6206
vn -0.6300 -0.6847 0.3665
vn -0.6259 -0.6767 0.3877
vn -0.6273 -0.5914 0.5067
vn -0.7729 -0.5524 0.3122
vn -0.6164 -0.6374 0.4623
vn -0.7596 -0.5588 0.3328
vn -0.5874 -0.7156 0.3779
vn -0.5609 -0.5040 0.6568
vn -0.4573 -0.6767 0.5771
vn -0.2050 -0.4387 0.8750
vn -0.1575 -0.5622 0.8119
vn -0.1948 -0.5153 0.8346
vn -0.1428 -0.6675 0.7307
vn -0.1242 -0.5772 0.8071
vn -0.2243 -0.4546 0.8620
vn -0.0924 -0.6375 0.7649
vn 0.0578 -0.5448 0.8366
vn 0.2761 -0.5169 0.8103
vn 0.2771 -0.6011 0.7496
vn 0.3558 -0.6446 0.6767
vn 0.3721 -0.6496 0.6630
vn 0.4146 -0.5850 0.6970
vn 0.4676 -0.5022 0.7275
vn 0.3912 -0.6260 0.6746
vn 0.4197 -0.6802 0.6010
vn 0.5610 -0.6752 0.4790
vn 0.6992 -0.5583 0.4465
vn 0.5488 -0.7194 0.4258
vn 0.6668 -0.6991 0.2583
vn 0.6285 -0.7402 0.2389
vn 0.7550 -0.6556 -0.0157
vn 0.7636 -0.6420 -0.0689
vn 0.6928 -0.7200 0.0413
vn 0.6351 -0.7721 0.0224
vn 0.7201 -0.6023 -0.3445
vn 0.6742 -0.7127 -0.1935
vn 0.5018 -0.4945 -0.7097
vn 0.6106 -0.6435 -0.4616
vn 0.3910 -0.6323 -0.6688
vn 0.4297 -0.5253 -0.7344
vn 0.4593 -0.4774 -0.7491
vn 0.2991 -0.6137 -0.7307
vn 0.3722 -0.6524 -0.6602
vn 0.1338 -0.5134 -0.8477
vn 0.2132 -0.6445 -0.7343
vn 0.0969 -0.6152 -0.7824
vn -0.1229 -0.5110 -0.8507
vn -0.1051 -0.6173 -0.7797
vn -0.0888 -0.6702 -0.7369
vn -0.1418 -0.6248 -0.7678
vn -0.3029 -0.5931 -0.7460
vn -0.3357 -0.6565 -0.6755
vn -0.5863 -0.4795 -0.6530
vn -0.5912 -0.6104 -0.5271
vn -0.7282 -0.6020 -0.3276
vn -0.7410 -0.5445 -0.3930
vn -0.6035 -0.6753 -0.4239
vn -0.5795 -0.5242 -0.6241
vn -0.6242 -0.4376 -0.6473
vn -0.6597 -0.6215 -0.4225
vn -0.5024 -0.8057 -0.3139
vn -0.6287 -0.7224 -0.2880
vn -0.8152 -0.5130 -0.2689
vn -0.6767 -0.7321 -0.0787
vn -0.9306 -0.3224 0.1730
vn -0.6028 -0.0657 0.7952
vn -0.6620 -0.2725 0.6982
vn -0.6902 -0.4451 0.5706
vn -0.9725 -0.0469 0.2282
vn -0.9041 -0.3409 0.2576
vn -0.9965 -0.0217 0.0811
vn -0.9192 -0.3396 0.1993
vn -0.8615 0.0336 0.5066
vn -0.7532 -0.3175 0.5761
vn -0.3325 -0.3655 0.8694
vn -0.4345 -0.1403 0.8897
vn 0.0086 0.0514 0.9986
vn -0.0214 -0.2456 0.9691
vn -0.0119 -0.1965 0.9804
vn -0.3559 -0.1838 0.9163
vn -0.3866 -0.0555 0.9206
vn -0.0595 -0.3912 0.9184
vn -0.1645 -0.2205 0.9614
vn 0.1211 -0.1063 0.9869
vn 0.2674 -0.3328 0.9043
vn 0.6044 -0.1207 0.7875
vn 0.7737 0.0034 0.6336
vn 0.6633 -0.3143 0.6791
vn 0.7191 -0.0481 0.6933
vn 0.3508 -0.0328 0.9359
vn 0.3368 -0.3955 0.8545
vn 0.4199 -0.2485 0.8729
vn 0.3485 -0.2075 0.9141
vn 0.4674 -0.3827 0.7969
vn 0.7803 -0.1653 0.6031
vn 0.8311 -0.4471 0.3307
vn 0.9838 -0.1771 -0.0261
vn 0.8627 -0.4624 -0.2046
vn 0.8809 -0.1942 -0.4315
vn 0.9540 -0.2575 -0.1537
vn 0.8637 -0.4901 -0.1178
vn 0.8545 -0.3654 0.3691
vn 0.7935 -0.5425 0.2759
vn 0.8761 -0.3610 0.3195
vn 0.8324 -0.5277 0.1692
vn 0.9832 -0.1495 0.1048
vn 0.8472 -0.4236 -0.3207
vn 0.8676 -0.1259 -0.4811
vn 0.5086 -0.1124 -0.8537
vn 0.5009 -0.3298 -0.8002
vn 0.3482 -0.3182 -0.8818
vn 0.5808 -0.4085 -0.7041
vn 0.6645 -0.1937 -0.7217
vn 0.6921 -0.1626 -0.7033
vn 0.3104 -0.1132 -0.9438
vn -0.0753 0.0298 -0.9967
vn -0.2311 -0.1392 -0.9629
vn -0.2003 -0.4642 -0.8628
vn -0.3345 -0.2605 -0.9057
vn -0.2172 -0.3270 -0.9197
vn 0.0047 -0.3934 -0.9194
vn 0.0259 -0.1672 -0.9856
vn -0.0101 0.0222 -0.9997
vn -0.5101 -0.3074 -0.8033
vn -0.6363 -0.1248 -0.7612
vn -0.9850 -0.0107 -0.1721
vn -0.8847 -0.3061 -0.3515
vn -0.8241 -0.4793 -0.3019
vn -0.9272 -0.3461 -0.1432
vn -0.7353 -0.3480 -0.5816
vn -0.6978 -0.0372 -0.7153
vn -0.5458 -0.0271 -0.8375
vn -0.7476 -0.3496 -0.5647
vn -0.8884 -0.1687 -0.4269
vn -0.9857 0.0826 0.1466
vn -0.8853 0.3494 0.3067
vn -0.6582 0.1444 0.7388
vn -0.5987 0.3371 0.7266
vn -0.9299 0.3104 0.1972
vn -0.9126 0.3948 -0.1059
vn -0.7631 0.5602 0.3224
vn -0.5746 0.3248 0.7512
vn -0.4021 0.5418 0.7381
vn -0.4061 0.1586 0.9000
vn 0.0341 0.3664 0.9298
vn -0.0006 0.2503 0.9682
vn -0.3956 0.0978 0.9132
vn -0.3554 0.3282 0.8752
vn -0.4051 0.3137 0.8588
vn -0.4015 0.1414 0.9049
vn 0.0237 0.3572 0.9337
vn 0.5523 0.4137 0.7237
vn 0.4626 0.0840 0.8826
vn 0.4645 0.2856 0.8382
vn 0.7428 0.2584 0.6177
vn 0.7047 0.2325 0.6703
vn 0.3479 0.2029 0.9153
vn 0.2114 0.2146 0.9535
vn 0.5384 0.5166 0.6658
vn 0.5980 0.3247 0.7328
vn 0.8669 0.4905 0.0883
vn 0.8974 0.1327 -0.4208
vn 0.8325 0.3963 -0.3871
vn 0.8762 0.4022 -0.2656
vn 0.9765 0.0874 -0.1969
vn 0.9167 0.2793 0.2856
vn 0.8242 0.1419 0.5482
vn 0.7863 0.3714 0.4938
vn 0.9701 0.2220 0.0977
vn 0.8433 0.5297 -0.0912
vn 0.7991 0.2367 -0.5526
vn 0.4178 0.1233 -0.9001
vn 0.1713 0.1291 -0.9767
vn 0.3461 0.2189 -0.9123
vn 0.7187 0.0846 -0.6902
vn 0.7893 0.3115 -0.5291
vn 0.7043 0.1281 -0.6983
vn 0.1203 0.1823 -0.9759
vn 0.0220 0.3669 -0.9300
vn -0.3516 0.1292 -0.9272
vn -0.3350 0.3420 -0.8780
vn -0.2785 -0.0490 -0.9592
vn -0.2666 0.2123 -0.9401
vn 0.0175 0.2728 -0.9619
vn -0.4355 0.2582 -0.8624
vn -0.4337 0.5333 -0.7263
vn -0.8476 0.1559 -0.5072
vn -0.8247 0.4334 -0.3635
vn -0.9653 0.2613 0.0026
vn -0.9634 -0.1032 -0.2475
vn -0.9654 0.2220 -0.1371
vn -0.7065 0.2232 -0.6716
vn -0.4775 0.3906 -0.7870
vn -0.5048 0.2134 -0.8365
vn -0.8395 0.1554 -0.5206
vn -0.7944 0.4408 -0.4179
vn -0.7954 0.6060 -0.0064
vn -0.6505 0.4991 0.5725
vn -0.8631 0.4939 -0.1057
vn -0.7156 0.6495 0.2571
vn -0.3710 0.6408 0.6722
vn 0.0574 0.4840 0.8732
vn -0.0825 0.4605 0.8838
vn -0.3591 0.4616 0.8111
vn -0.2696 0.4421 0.8555
vn 0.1525 0.4805 0.8636
vn 0.5420 0.4948 0.6792
vn 0.5904 0.4041 0.6987
vn 0.5223 0.5193 0.6764
vn 0.6345 0.6139 0.4696
vn 0.8187 0.5473 -0.1736
vn 0.7930 0.5798 -0.1871
vn 0.8220 0.5070 0.2593
vn 0.7387 0.6301 0.2396
vn 0.4802 0.5302 -0.6988
vn 0.2315 0.3863 -0.8929
vn 0.6493 0.4347 -0.6240
vn 0.2553 0.5139 -0.8190
vn -0.0308 0.4952 -0.8682
vn -0.2450 0.5150 -0.8214
vn -0.0029 0.4806 -0.8769
vn -0.0327 0.4349 -0.8999
vn -0.8427 0.5377 -0.0264
vn -0.8139 0.5396 -0.2154
vn -0.5424 0.4652 -0.6996
vn -0.6743 0.5348 -0.5093
vn -0.7025 0.5765 0.4174
vn -0.7668 0.6077 0.2064
vn -0.1662 0.4689 0.8675
vn -0.1955 0.4640 0.8640
vn 0.1266 0.4917 0.8615
vn 0.4459 0.5004 0.7421
vn 0.5797 0.5099 0.6355
vn 0.4724 0.5146 0.7156
vn 0.7498 0.6121 -0.2511
vn 0.7453 0.6605 -0.0914
vn 0.3376 0.4117 -0.8465
vn 0.6954 0.4524 -0.5584
vn 0.5627 0.5077 -0.6524
vn -0.5809 0.4891 -0.6506
vn -0.6061 0.5185 -0.6032
vn -0.7710 0.6292 0.0977
vn -0.1420 0.9898 -0.0097
vn -0.6466 0.5091 0.5681
vn -0.5329 0.7117 0.4576
vn -0.6272 0.5170 0.5825
vn -0.7475 0.5732 0.3356
vn -0.8307 0.5316 -0.1651
vn -0.8111 0.5414 -0.2215
vn -0.7844 0.6194 -0.0305
vn -0.6495 0.7221 0.2381
vn 0.2333 0.8582 -0.4573
vn -0.2151 0.6336 0.7432
vn -0.0136 0.5579 0.8298
vn 0.2828 0.3889 0.8768
vn 0.2575 0.4529 0.8536
vn 0.0839 0.4301 0.8989
vn -0.1337 0.4429 0.8865
vn -0.3461 0.4340 0.8318
vn -0.2944 0.4216 0.8576
vn -0.1994 0.4260 0.8825
vn -0.0779 0.4524 0.8884
vn 0.0796 0.4823 0.8724
vn 0.0114 0.9477 0.3191
vn 0.4540 0.4674 0.7586
vn 0.5572 0.4734 0.6823
vn 0.5015 0.4935 0.7106
vn 0.2439 0.5196 0.8189
vn 0.2238 0.4877 0.8438
vn 0.1237 0.4471 0.8859
vn 0.2140 0.4838 0.8486
vn 0.3402 0.5515 0.7617
vn 0.4566 0.6059 0.6514
vn 0.6783 0.6835 0.2698
vn 0.7371 0.6751 0.0302
vn 0.7247 0.6810 0.1051
vn 0.6799 0.6777 0.2801
vn 0.5926 0.7593 0.2688
vn 0.7245 0.6485 0.2334
vn 0.6732 0.6785 -0.2939
vn 0.5710 0.6299 -0.5265
vn 0.4509 0.5606 -0.6945
vn 0.3334 0.4965 -0.8015
vn 0.2226 0.4327 -0.8736
vn 0.1413 0.3794 -0.9144
vn 0.1031 0.3306 -0.9381
vn 0.1580 0.3263 -0.9320
vn 0.5067 0.4299 -0.7473
vn 0.7688 0.4224 -0.4801
vn 0.7602 0.4480 -0.4706
vn 0.6603 0.4952 -0.5645
vn 0.5444 0.5249 -0.6543
vn 0.4057 0.5479 -0.7316
vn 0.2225 0.5604 -0.7978
vn 0.0224 0.5620 -0.8268
vn -0.1462 0.5592 -0.8161
vn 0.0289 0.8742 -0.4847
vn -0.1579 0.6728 -0.7228
vn -0.0613 0.7381 -0.6719
vn -0.1140 0.5699 -0.8138
vn -0.2991 0.6012 -0.7410
vn -0.4898 0.6219 -0.6110
vn -0.6485 0.6166 -0.4464
vn -0.7647 0.5918 -0.2549
vn -0.8260 0.5562 -0.0917
vn -0.8558 0.5170 0.0151
vn -0.8555 0.5115 -0.0806
vn -0.7509 0.5080 -0.4220
vn -0.5792 0.4611 -0.6723
vn -0.5939 0.4659 -0.6559
vn -0.7324 0.5516 -0.3992
vn -0.7952 0.5877 -0.1493
vn -0.1670 -0.6029 0.7802
vn 0.4314 -0.5914 0.6813
vn 0.7209 -0.6889 -0.0760
vn 0.4244 -0.6173 -0.6624
vn -0.1053 -0.5585 -0.8228
vn -0.7052 -0.2682 0.6563
vn -0.1209 -0.3932 0.9115
vn -0.3778 -0.3643 0.8512
vn -0.4372 -0.2307 0.8693
vn 0.6510 -0.3075 0.6940
vn 0.2334 -0.0950 -0.9677
vn 0.5445 -0.3002 -0.7832
vn 0.0575 -0.3499 -0.9350
vn -0.0392 -0.2334 -0.9716
vn -0.1207 -0.4284 -0.8955
vn -0.6929 0.2413 0.6794
vn -0.9530 0.2031 0.2250
vn -0.3353 0.2880 0.8970
vn -0.0288 0.0483 0.9984
vn 0.0157 0.1594 0.9871
vn 0.9695 0.2015 0.1393
vn 0.5603 0.3964 -0.7273
vn 0.4993 0.4073 -0.7647
vn 0.0523 0.0992 -0.9937
vn -0.7891 0.5721 0.2236
vn -0.8238 0.5614 -0.0781
vn 0.2763 0.4967 0.8228
vn 0.7516 0.6575 0.0526
vn 0.7478 0.5589 0.3584
vn 0.7151 0.6778 -0.1711
vn 0.7852 0.4088 -0.4651
vn 0.5198 0.5131 -0.6831
vn -0.1918 0.5345 -0.8231
vn 0.0033 0.5270 -0.8499
vn -0.1411 0.5456 -0.8261
vn -0.7536 0.5746 -0.3191
vn -0.7317 0.5817 0.3553
vn -0.8274 0.5616 0.0071
vn -0.4387 0.7266 0.5288
vn 0.2075 0.4529 0.8671
vn 0.1642 0.4440 0.8808
vn 0.2917 0.4908 0.8210
vn 0.7445 0.6436 -0.1777
vn 0.7354 0.6265 -0.2583
vn 0.7315 0.6808 -0.0374
vn -0.0941 0.6126 -0.7848
s 1
usemtl wood
f 25//25 146//146 24//24
f 240//240 179//179 178//178
f 95//95 99//99 98//98
f 368//368 89//89 8//8
f 277//277 44//44 293//293
f 59//59 125//125 127//127
f 71//71 70//70 135//135
f 366//366 67//67 69//69
f 70//70 67//67 68//68
f 87//87 7//7 86//86
f 366//366 64//64 65//65
f 334//334 395//395 333//333
f 155//155 154//154 153//153
f 26//26 153//153 218//218
f 168//168 377//377 167//167
f 244//244 184//184 243//243
f 382//382 193//193 192//192
f 22//22 118//118 187//187
f 259//259 285//285 260//260
f 72//72 71//71 367//367
f 19//19 75//75 367//367
f 74//74 75//75 77//77
f 33//33 392//392 34//34
f 31//31 381//381 30//30
f 236//236 389//389 235//235
f 219//219 218//218 217//217
f 163//163 90//90 160//160
f 130//130 131//131 129//129
f 143//143 145//145 142//142
f 148//148 147//147 146//146
f 176//176 175//175 389//389
f 157//157 27//27 159//159
f 145//145 143//143 24//24
f 281//281 403//403 301//301
f 97//97 99//99 95//95
f 40//40 247//247 245//245
f 394//394 332//332 410//410
f 366//366 65//65 68//68
f 111//111 110//110 109//109
f 100//100 370//370 101//101
f 123//123 121//121 371//371
f 137//137 136//136 134//134
f 172//172 171//171 378//378
f 55//55 58//58 60//60
f 231//231 168//168 230//230
f 82//82 81//81 79//79
f 108//108 110//110 107//107
f 245//245 185//185 184//184
f 101//101 370//370 103//103
f 250//250 29//29 249//249
f 107//107 106//106 108//108
f 120//120 121//121 53//53
f 396//396 292//292 343//343
f 350//350 351//351 411//411
f 179//179 180//180 178//178
f 123//123 122//122 124//124
f 378//378 97//97 94//94
f 88//88 91//91 368//368
f 95//95 98//98 96//96
f 133//133 373//373 372//372
f 50//50 52//52 117//117
f 302//302 252//252 301//301
f 195//195 126//126 192//192
f 188//188 22//22 187//187
f 112//112 186//186 116//116
f 207//207 206//206 385//385
f 161//161 163//163 160//160
f 191//191 189//189 29//29
f 374//374 373//373 133//133
f 174//174 100//100 173//173
f 118//118 186//186 187//187
f 375//375 139//139 141//141
f 139//139 375//375 138//138
f 44//44 360//360 361//361
f 329//329 330//330 267//267
f 134//134 136//136 374//374
f 76//76 147//147 20//20
f 341//341 290//290 340//340
f 233//233 236//236 235//235
f 375//375 19//19 138//138
f 150//150 151//151 149//149
f 157//157 156//156 155//155
f 158//158 21//21 156//156
f 160//160 158//158 157//157
f 401//401 239//239 355//355
f 140//140 139//139 206//206
f 220//220 159//159 27//27
f 219//219 220//220 26//26
f 22//22 120//120 118//118
f 129//129 128//128 127//127
f 235//235 172//172 170//170
f 254//254 194//194 253//253
f 175//175 173//173 235//235
f 51//51 56//56 55//55
f 181//181 109//109 108//108
f 182//182 109//109 181//181
f 392//392 212//212 34//34
f 183//183 185//185 186//186
f 109//109 110//110 108//108
f 254//254 307//307 255//255
f 344//344 345//345 397//397
f 382//382 23//23 381//381
f 33//33 211//211 210//210
f 196//196 192//192 194//194
f 337//337 338//338 35//35
f 18//18 53//53 51//51
f 207//207 385//385 204//204
f 194//194 192//192 193//193
f 198//198 195//195 196//196
f 283//283 314//314 315//315
f 34//34 213//213 211//211
f 213//213 25//25 24//24
f 400//400 239//239 275//275
f 266//266 221//221 219//219
f 33//33 210//210 261//261
f 368//368 9//9 89//89
f 38//38 241//241 401//401
f 134//134 200//200 203//203
f 232//232 231//231 388//388
f 242//242 39//39 244//244
f 271//271 388//388 397//397
f 279//279 249//249 246//246
f 12//12 92//92 369//369
f 176//176 177//177 379//379
f 319//319 285//285 318//318
f 251//251 29//29 250//250
f 189//189 248//248 249//249
f 123//123 57//57 121//121
f 206//206 137//137 385//385
f 266//266 217//217 265//265
f 189//189 188//188 248//248
f 205//205 204//204 259//259
f 220//220 27//27 26//26
f 221//221 222//222 220//220
f 258//258 202//202 201//201
f 177//177 380//380 379//379
f 221//221 266//266 394//394
f 122//122 123//123 23//23
f 118//118 116//116 186//186
f 140//140 209//209 142//142
f 246//246 249//249 247//247
f 100//100 14//14 171//171
f 208//208 261//261 209//209
f 215//215 150//150 386//386
f 182//182 181//181 180//180
f 39//39 245//245 244//244
f 275//275 238//238 237//237
f 392//392 324//324 325//325
f 263//263 46//46 393//393
f 38//38 277//277 39//39
f 42//42 365//365 295//295
f 190//190 22//22 188//188
f 197//197 130//130 129//129
f 175//175 174//174 173//173
f 30//30 191//191 251//251
f 280//280 250//250 42//42
f 80//80 20//20 147//147
f 45//45 283//283 282//282
f 226//226 35//35 227//227
f 199//199 130//130 198//198
f 406//406 32//32 255//255
f 315//315 284//284 283//283
f 139//139 138//138 137//137
f 138//138 19//19 71//71
f 264//264 214//214 263//263
f 406//406 310//310 311//311
f 160//160 90//90 88//88
f 222//222 161//161 159//159
f 269//269 290//290 270//270
f 184//184 183//183 243//243
f 374//374 68//68 373//373
f 216//216 265//265 217//217
f 407//407 284//284 316//316
f 288//288 264//264 393//393
f 342//342 291//291 341//341
f 277//277 40//40 39//39
f 269//269 270//270 227//227
f 35//35 387//387 268//268
f 106//106 104//104 380//380
f 208//208 206//206 207//207
f 228//228 229//229 230//230
f 403//403 281//281 300//300
f 122//122 382//382 192//192
f 294//294 363//363 364//364
f 322//322 287//287 320//320
f 50//50 117//117 113//113
f 283//283 313//313 314//314
f 203//203 137//137 134//134
f 390//390 30//30 41//41
f 354//354 355//355 400//400
f 381//381 23//23 190//190
f 362//362 294//294 293//293
f 273//273 232//232 272//272
f 256//256 201//201 32//32
f 237//237 238//238 176//176
f 278//278 246//246 40//40
f 35//35 290//290 269//269
f 126//126 125//125 124//124
f 242//242 240//240 241//241
f 244//244 179//179 242//242
f 118//118 53//53 18//18
f 274//274 37//37 398//398
f 402//402 280//280 295//295
f 238//238 178//178 176//176
f 199//199 200//200 384//384
f 210//210 142//142 209//209
f 258//258 204//204 202//202
f 55//55 57//57 59//59
f 128//128 63//63 61//61
f 378//378 94//94 377//377
f 37//37 237//237 389//389
f 255//255 196//196 254//254
f 170//170 378//378 168//168
f 343//343 291//291 342//342
f 32//32 201//201 199//199
f 198//198 130//130 383//383
f 273//273 349//349 411//411
f 91//91 10//10 9//9
f 294//294 279//279 246//246
f 224//224 162//162 161//161
f 272//272 232//232 271//271
f 155//155 156//156 154//154
f 282//282 311//311 45//45
f 28//28 166//166 164//164
f 97//97 95//95 369//369
f 394//394 223//223 221//221
f 144//144 76//76 141//141
f 293//293 361//361 362//362
f 104//104 15//15 105//105
f 149//149 84//84 80//80
f 345//345 346//346 271//271
f 248//248 187//187 185//185
f 121//121 57//57 56//56
f 136//136 135//135 374//374
f 215//215 217//217 218//218
f 253//253 404//404 254//254
f 84//84 82//82 80//80
f 226//226 225//225 387//387
f 239//239 241//241 238//238
f 223//223 224//224 222//222
f 107//107 110//110 16//16
f 386//386 148//148 25//25
f 204//204 385//385 203//203
f 286//286 285//285 320//320
f 116//116 51//51 50//50
f 110//110 111//111 113//113
f 58//58 4//4 62//62
f 129//129 127//127 126//126
f 268//268 334//334 335//335
f 214//214 213//213 212//212
f 252//252 31//31 390//390
f 384//384 133//133 132//132
f 247//247 248//248 185//185
f 193//193 31//31 252//252
f 388//388 230//230 229//229
f 243//243 183//183 182//182
f 283//283 258//258 257//257
f 259//259 283//283 284//284
f 54//54 55//55 3//3
f 57//57 123//123 125//125
f 84//84 85//85 86//86
f 278//278 40//40 277//277
f 140//140 141//141 139//139
f 142//142 145//145 141//141
f 406//406 282//282 256//256
f 152//152 153//153 154//154
f 159//159 160//160 157//157
f 179//179 243//243 182//182
f 182//182 183//183 109//109
f 185//185 187//187 186//186
f 190//190 23//23 119//119
f 281//281 41//41 43//43
f 51//51 54//54 50//50
f 225//225 376//376 162//162
f 6//6 70//70 71//71
f 156//156 85//85 154//154
f 219//219 26//26 218//218
f 278//278 277//277 293//293
f 111//111 183//183 186//186
f 383//383 197//197 195//195
f 246//246 278//278 293//293
f 178//178 180//180 177//177
f 63//63 64//64 61//61
f 300//300 43//43 299//299
f 276//276 401//401 357//357
f 263//263 325//325 326//326
f 61//61 64//64 4//4
f 211//211 24//24 143//143
f 292//292 396//396 270//270
f 150//150 149//149 148//148
f 80//80 79//79 20//20
f 216//216 386//386 214//214
f 234//234 37//37 236//236
f 344//344 396//396 343//343
f 370//370 104//104 103//103
f 233//233 169//169 231//231
f 234//234 233//233 232//232
f 263//263 326//326 46//46
f 127//127 128//128 61//61
f 367//367 73//73 72//72
f 183//183 111//111 109//109
f 389//389 237//237 176//176
f 56//56 51//51 53//53
f 59//59 58//58 55//55
f 69//69 66//66 366//366
f 199//199 201//201 200//200
f 176//176 178//178 177//177
f 33//33 322//322 392//392
f 322//322 324//324 392//392
f 73//73 367//367 74//74
f 37//37 275//275 237//237
f 223//223 387//387 224//224
f 42//42 294//294 364//364
f 244//244 245//245 184//184
f 382//382 31//31 193//193
f 34//34 212//212 213//213
f 78//78 74//74 77//77
f 4//4 64//64 5//5
f 19//19 76//76 75//75
f 70//70 6//6 67//67
f 227//227 228//228 28//28
f 75//75 76//76 20//20
f 264//264 216//216 214//214
f 264//264 288//288 265//265
f 406//406 405//405 308//308
f 308//308 309//309 406//406
f 299//299 297//297 298//298
f 116//116 50//50 113//113
f 71//71 19//19 367//367
f 81//81 78//78 79//79
f 262//262 33//33 261//261
f 368//368 91//91 9//9
f 86//86 21//21 368//368
f 368//368 21//21 158//158
f 206//206 139//139 137//137
f 280//280 251//251 250//250
f 146//146 145//145 24//24
f 301//301 252//252 390//390
f 390//390 281//281 301//301
f 230//230 168//168 167//167
f 202//202 204//204 203//203
f 261//261 210//210 209//209
f 28//28 228//228 166//166
f 349//349 273//273 272//272
f 40//40 246//246 247//247
f 276//276 44//44 277//277
f 190//190 191//191 381//381
f 197//197 129//129 126//126
f 67//67 366//366 68//68
f 266//266 219//219 217//217
f 60//60 3//3 55//55
f 392//392 263//263 212//212
f 82//82 83//83 81//81
f 65//65 64//64 63//63
f 337//337 35//35 336//336
f 35//35 268//268 336//336
f 287//287 262//262 286//286
f 245//245 247//247 185//185
f 103//103 102//102 101//101
f 113//113 111//111 112//112
f 280//280 402//402 297//297
f 384//384 132//132 130//130
f 53//53 121//121 56//56
f 369//369 92//92 93//93
f 119//119 23//23 120//120
f 120//120 23//23 371//371
f 22//22 119//119 120//120
f 77//77 75//75 20//20
f 120//120 371//371 121//121
f 411//411 349//349 350//350
f 115//115 110//110 113//113
f 125//125 123//123 124//124
f 268//268 395//395 334//334
f 215//215 152//152 150//150
f 79//79 78//78 77//77
f 135//135 70//70 68//68
f 302//302 391//391 252//252
f 69//69 67//67 6//6
f 379//379 175//175 176//176
f 97//97 369//369 94//94
f 90//90 93//93 92//92
f 92//92 11//11 90//90
f 63//63 372//372 65//65
f 235//235 389//389 175//175
f 372//372 373//373 65//65
f 68//68 65//65 373//373
f 132//132 131//131 130//130
f 107//107 16//16 15//15
f 250//250 249//249 279//279
f 378//378 170//170 172//172
f 140//140 142//142 141//141
f 274//274 399//399 275//275
f 41//41 30//30 251//251
f 147//147 144//144 146//146
f 144//144 145//145 146//146
f 265//265 288//288 409//409
f 288//288 408//408 409//409
f 76//76 144//144 147//147
f 12//12 11//11 92//92
f 227//227 28//28 226//226
f 154//154 151//151 152//152
f 353//353 354//354 400//400
f 322//322 33//33 287//287
f 84//84 151//151 85//85
f 151//151 154//154 85//85
f 28//28 376//376 226//226
f 205//205 208//208 207//207
f 158//158 156//156 157//157
f 275//275 399//399 400//400
f 355//355 356//356 401//401
f 378//378 171//171 97//97
f 220//220 222//222 159//159
f 177//177 180//180 106//106
f 274//274 411//411 399//399
f 353//353 399//399 411//411
f 164//164 163//163 376//376
f 200//200 201//201 203//203
f 201//201 202//202 203//203
f 127//127 61//61 59//59
f 14//14 101//101 102//102
f 294//294 246//246 293//293
f 16//16 110//110 17//17
f 165//165 166//166 167//167
f 167//167 377//377 165//165
f 94//94 165//165 377//377
f 94//94 93//93 165//165
f 199//199 198//198 32//32
f 198//198 255//255 32//32
f 235//235 173//173 172//172
f 254//254 196//196 194//194
f 171//171 173//173 100//100
f 100//100 174//174 380//380
f 55//55 54//54 51//51
f 396//396 229//229 270//270
f 229//229 36//36 270//270
f 180//180 181//181 106//106
f 191//191 190//190 189//189
f 183//183 184//184 185//185
f 393//393 264//264 263//263
f 114//114 17//17 110//110
f 110//110 115//115 114//114
f 162//162 376//376 163//163
f 254//254 306//306 307//307
f 382//382 122//122 23//23
f 33//33 34//34 211//211
f 398//398 411//411 274//274
f 376//376 28//28 164//164
f 213//213 386//386 25//25
f 196//196 195//195 192//192
f 394//394 395//395 223//223
f 37//37 274//274 275//275
f 158//158 160//160 88//88
f 198//198 383//383 195//195
f 289//289 329//329 265//265
f 329//329 267//267 265//265
f 36//36 228//228 227//227
f 128//128 131//131 63//63
f 235//235 170//170 233//233
f 285//285 407//407 318//318
f 134//134 133//133 200//200
f 238//238 240//240 178//178
f 214//214 386//386 213//213
f 247//247 249//249 248//248
f 242//242 38//38 39//39
f 96//96 12//12 369//369
f 150//150 152//152 151//151
f 232//232 233//233 231//231
f 356//356 357//357 401//401
f 153//153 152//152 218//218
f 218//218 152//152 215//215
f 99//99 14//14 13//13
f 14//14 99//99 97//97
f 333//333 395//395 410//410
f 221//221 223//223 222//222
f 201//201 257//257 258//258
f 177//177 106//106 380//380
f 38//38 242//242 241//241
f 304//304 253//253 391//391
f 391//391 303//303 304//304
f 118//118 18//18 116//116
f 140//140 208//208 209//209
f 332//332 394//394 267//267
f 332//332 267//267 330//330
f 100//100 101//101 14//14
f 388//388 231//231 230//230
f 263//263 214//214 212//212
f 174//174 175//175 379//379
f 250//250 279//279 294//294
f 163//163 164//164 93//93
f 93//93 90//90 163//163
f 229//229 397//397 388//388
f 189//189 190//190 188//188
f 233//233 234//234 236//236
f 208//208 205//205 261//261
f 236//236 37//37 389//389
f 231//231 169//169 168//168
f 118//118 120//120 53//53
f 39//39 40//40 245//245
f 113//113 117//117 115//115
f 46//46 327//327 393//393
f 238//238 241//241 240//240
f 8//8 87//87 86//86
f 321//321 322//322 320//320
f 38//38 276//276 277//277
f 343//343 342//342 48//48
f 29//29 189//189 249//249
f 254//254 404//404 306//306
f 390//390 31//31 30//30
f 133//133 134//134 374//374
f 45//45 312//312 283//283
f 290//290 291//291 270//270
f 199//199 384//384 130//130
f 305//305 404//404 304//304
f 255//255 405//405 406//406
f 190//190 119//119 22//22
f 260//260 261//261 205//205
f 276//276 359//359 44//44
f 223//223 268//268 387//387
f 222//222 224//224 161//161
f 5//5 366//366 66//66
f 380//380 104//104 370//370
f 216//216 264//264 265//265
f 397//397 229//229 396//396
f 20//20 79//79 77//77
f 80//80 82//82 79//79
f 58//58 62//62 60//60
f 56//56 57//57 55//55
f 131//131 132//132 372//372
f 270//270 36//36 227//227
f 113//113 112//112 116//116
f 405//405 255//255 307//307
f 208//208 140//140 206//206
f 358//358 359//359 276//276
f 228//228 36//36 229//229
f 295//295 280//280 42//42
f 124//124 122//122 192//192
f 259//259 284//284 285//285
f 282//282 406//406 311//311
f 408//408 288//288 393//393
f 203//203 385//385 137//137
f 251//251 191//191 29//29
f 192//192 126//126 124//124
f 149//149 151//151 84//84
f 410//410 395//395 394//394
f 248//248 188//188 187//187
f 233//233 170//170 169//169
f 265//265 409//409 289//289
f 362//362 363//363 294//294
f 273//273 234//234 232//232
f 364//364 365//365 42//42
f 315//315 316//316 284//284
f 332//332 330//330 331//331
f 331//331 330//330 47//47
f 161//161 162//162 163//163
f 91//91 11//11 10//10
f 164//164 166//166 165//165
f 366//366 5//5 64//64
f 35//35 338//338 290//290
f 338//338 339//339 290//290
f 339//339 340//340 290//290
f 148//148 149//149 147//147
f 381//381 191//191 30//30
f 324//324 322//322 323//323
f 323//323 322//322 321//321
f 360//360 44//44 359//359
f 126//126 127//127 125//125
f 31//31 382//382 381//381
f 169//169 170//170 168//168
f 259//259 260//260 205//205
f 159//159 161//161 160//160
f 244//244 243//243 179//179
f 275//275 239//239 238//238
f 349//349 272//272 348//348
f 23//23 123//123 371//371
f 395//395 268//268 223//223
f 193//193 391//391 194//194
f 391//391 253//253 194//194
f 21//21 86//86 85//85
f 137//137 138//138 136//136
f 35//35 226//226 387//387
f 210//210 143//143 142//142
f 317//317 407//407 316//316
f 380//380 174//174 379//379
f 50//50 54//54 52//52
f 83//83 82//82 7//7
f 58//58 61//61 4//4
f 353//353 411//411 352//352
f 386//386 150//150 148//148
f 240//240 242//242 179//179
f 271//271 346//346 347//347
f 370//370 100//100 380//380
f 132//132 133//133 372//372
f 387//387 225//225 224//224
f 106//106 107//107 104//104
f 255//255 198//198 196//196
f 107//107 15//15 104//104
f 88//88 90//90 91//91
f 250//250 294//294 42//42
f 372//372 63//63 131//131
f 343//343 292//292 291//291
f 411//411 398//398 273//273
f 138//138 71//71 135//135
f 224//224 225//225 162//162
f 296//296 402//402 295//295
f 299//299 43//43 280//280
f 280//280 297//297 299//299
f 407//407 285//285 284//284
f 181//181 108//108 106//106
f 179//179 182//182 180//180
f 368//368 8//8 86//86
f 58//58 59//59 61//61
f 195//195 197//197 126//126
f 369//369 95//95 96//96
f 293//293 44//44 361//361
f 145//145 144//144 141//141
f 91//91 90//90 11//11
f 97//97 171//171 14//14
f 397//397 345//345 271//271
f 164//164 165//165 93//93
f 135//135 68//68 374//374
f 335//335 336//336 268//268
f 215//215 216//216 217//217
f 383//383 130//130 197//197
f 26//26 155//155 153//153
f 329//329 47//47 330//330
f 2//2 52//52 54//54
f 117//117 52//52 1//1
f 319//319 320//320 285//285
f 320//320 287//287 286//286
f 116//116 18//18 51//51
f 259//259 204//204 258//258
f 168//168 378//378 377//377
f 136//136 138//138 135//135
f 205//205 207//207 204//204
f 406//406 256//256 32//32
f 7//7 82//82 84//84
f 391//391 193//193 252//252
f 302//302 303//303 391//391
f 341//341 291//291 290//290
f 219//219 221//221 220//220
f 269//269 227//227 35//35
f 271//271 232//232 388//388
f 253//253 304//304 404//404
f 261//261 260//260 262//262
f 262//262 260//260 286//286
f 267//267 266//266 265//265
f 393//393 328//328 408//408
f 201//201 256//256 257//257
f 256//256 282//282 257//257
f 282//282 283//283 257//257
f 259//259 258//258 283//283
f 3//3 2//2 54//54
f 312//312 313//313 283//283
f 59//59 57//57 125//125
f 86//86 7//7 84//84
f 287//287 33//33 262//262
f 355//355 239//239 400//400
f 19//19 375//375 141//141
f 19//19 141//141 76//76
f 157//157 155//155 27//27
f 27//27 155//155 26//26
f 88//88 368//368 158//158
f 173//173 171//171 172//172
f 37//37 273//273 398//398
f 281//281 390//390 41//41
f 167//167 166//166 230//230
f 230//230 166//166 228//228
f 74//74 367//367 75//75
f 94//94 369//369 93//93
f 285//285 286//286 260//260
f 225//225 226//226 376//376
f 72//72 6//6 71//71
f 49//49 352//352 411//411
f 49//49 411//411 351//351
f 401//401 241//241 239//239
f 156//156 21//21 85//85
f 328//328 393//393 327//327
f 280//280 43//43 41//41
f 251//251 280//280 41//41
f 25//25 148//148 146//146
f 149//149 80//80 147//147
f 112//112 111//111 186//186
f 129//129 131//131 128//128
f 300//300 281//281 43//43
f 358//358 276//276 357//357
f 310//310 406//406 309//309
f 276//276 38//38 401//401
f 211//211 213//213 24//24
f 263//263 392//392 325//325
f 210//210 211//211 143//143
f 270//270 291//291 292//292
f 348//348 272//272 271//271
f 271//271 347//347 348//348
f 216//216 215//215 386//386
f 384//384 200//200 133//133
f 344//344 397//397 396//396
f 105//105 103//103 104//104
f 394//394 266//266 267//267
f 234//234 273//273 37//37
f 400//400 399//399 353//353
