# Blender 5.2.1 LTS
# www.blender.org
mtllib loot-bag-nostril.mtl
o Nostril
v -0.107152 1.239091 0.865360
v -0.107152 1.105908 0.864948
v -0.109037 1.160098 0.859369
v -0.110412 1.111822 0.862681
v -0.089482 1.222070 0.862162
v -0.082948 1.171260 0.860726
v -0.089482 1.122962 0.862162
v -0.071200 1.172516 0.863773
v -0.090931 1.232229 0.864206
v -0.076310 1.205235 0.863797
v -0.076310 1.139796 0.863797
v -0.072127 1.190406 0.865081
v -0.079335 1.215906 0.865034
v -0.071013 1.165939 0.865305
v -0.084208 1.120406 0.864737
v -0.075154 1.140881 0.865541
v -0.093889 1.110260 0.864554
v -0.100407 1.106900 0.864673
v -0.100407 1.238131 0.864673
v -0.074081 1.172671 0.867333
v -0.087625 1.117958 0.866201
v -0.091187 1.232025 0.865934
v -0.078128 1.206673 0.866989
v -0.084718 1.166205 0.869137
v -0.089222 1.133521 0.868554
v -0.104640 1.107589 0.866420
v -0.109732 1.235274 0.867068
v -0.107152 1.188840 0.870483
v -0.129586 1.166206 0.869137
v -0.126164 1.133834 0.868394
v -0.140223 1.172671 0.867333
v -0.136176 1.206673 0.866989
v -0.126680 1.227074 0.866201
v -0.137995 1.139796 0.866100
v -0.123022 1.114533 0.866556
v -0.143153 1.184223 0.865191
v -0.142177 1.154625 0.865081
v -0.134970 1.215906 0.865034
v -0.140588 1.152844 0.863360
v -0.134970 1.129125 0.864862
v -0.137995 1.205235 0.863797
v -0.120784 1.234497 0.864685
v -0.142211 1.180607 0.863501
v -0.127541 1.117879 0.864011
v -0.127541 1.227153 0.864011
v -0.120784 1.110535 0.864685
v -0.129586 1.178827 0.860759
v -0.131064 1.132805 0.862352
v -0.113929 1.238122 0.864694
v -0.110412 1.233210 0.862681
v -0.126164 1.211197 0.861502
v -0.113929 1.106909 0.864694
v 0.107152 1.239091 0.865360
v 0.107152 1.105908 0.864948
v 0.107757 1.233401 0.862590
v 0.110461 1.178565 0.859528
v 0.126341 1.124117 0.862325
v 0.106527 1.112373 0.862437
v 0.120279 1.210637 0.860963
v 0.138854 1.198367 0.863090
v 0.133018 1.159640 0.861347
v 0.137994 1.139796 0.863797
v 0.127366 1.117034 0.864750
v 0.120415 1.234771 0.864554
v 0.127540 1.227153 0.864011
v 0.142177 1.190406 0.864815
v 0.142007 1.153870 0.865657
v 0.134969 1.215906 0.864862
v 0.143611 1.167329 0.864577
v 0.135202 1.129569 0.865144
v 0.120415 1.110260 0.864554
v 0.113897 1.238131 0.864673
v 0.139435 1.200304 0.866344
v 0.113897 1.106900 0.864673
v 0.126679 1.227074 0.866201
v 0.130474 1.169795 0.869333
v 0.128921 1.122588 0.866836
v 0.115225 1.111635 0.866914
v 0.116149 1.212679 0.869220
v 0.109731 1.235274 0.867068
v 0.088628 1.169630 0.869719
v 0.086547 1.220486 0.867310
v 0.091726 1.125180 0.868252
v 0.104722 1.107271 0.866239
v 0.076289 1.203444 0.866432
v 0.074081 1.172671 0.867333
v 0.087624 1.117958 0.866201
v 0.086937 1.227998 0.865146
v 0.076309 1.139796 0.866100
v 0.071012 1.165939 0.865305
v 0.093520 1.110535 0.864685
v 0.079334 1.215906 0.865034
v 0.081359 1.125522 0.864948
v 0.076309 1.205235 0.863797
v 0.071728 1.188385 0.864576
v 0.075153 1.140881 0.864355
v 0.072238 1.164429 0.863377
v 0.086763 1.117879 0.864011
v 0.094050 1.235058 0.864948
v 0.083373 1.198359 0.861286
v 0.100375 1.238122 0.864694
v 0.090835 1.227247 0.862813
v 0.089030 1.132841 0.861422
v 0.100375 1.106909 0.864694
vn 0.0349 0.9892 0.1424
vn -0.0691 -0.9843 -0.1624
vn -0.0108 -0.0188 -0.9998
vn -0.0320 -0.2212 -0.9747
vn 0.1982 0.1497 -0.9687
vn 0.1524 0.0015 -0.9883
vn 0.1859 -0.1575 -0.9699
vn 0.8060 0.0231 -0.5914
vn 0.5707 0.6437 -0.5099
vn 0.7442 0.2146 -0.6326
vn 0.6247 -0.2094 -0.7523
vn 0.9864 0.1492 0.0685
vn 0.8757 0.4827 -0.0111
vn 0.9714 -0.1313 0.1981
vn 0.8465 -0.5177 -0.1242
vn 0.8947 -0.2253 0.3858
vn 0.5276 -0.8397 -0.1288
vn 0.3726 -0.9110 -0.1766
vn 0.3180 0.9414 -0.1125
vn 0.3860 0.0122 0.9224
vn 0.4283 -0.4009 0.8098
vn 0.4849 0.5297 0.6959
vn 0.4737 0.1573 0.8665
vn 0.1177 -0.0145 0.9929
vn 0.1273 -0.0824 0.9884
vn 0.0646 -0.4522 0.8896
vn -0.0529 0.2822 0.9579
vn 0.0004 0.0323 0.9995
vn -0.1153 -0.0152 0.9932
vn -0.1266 -0.0848 0.9883
vn -0.4133 -0.0069 0.9106
vn -0.5077 0.1549 0.8475
vn -0.4968 0.4119 0.7639
vn -0.7507 -0.2186 0.6234
vn -0.3977 -0.3953 0.8280
vn -0.9736 0.1328 0.1855
vn -0.9746 -0.1202 0.1888
vn -0.8955 0.4450 0.0100
vn -0.5510 -0.1174 -0.8262
vn -0.8977 -0.4405 -0.0061
vn -0.8082 0.2194 -0.5465
vn -0.5464 0.8341 -0.0762
vn -0.6103 0.0106 -0.7921
vn -0.7236 -0.5708 -0.3882
vn -0.6778 0.5447 -0.4938
vn -0.5330 -0.8274 -0.1769
vn -0.1329 0.0129 -0.9911
vn -0.2428 -0.1162 -0.9631
vn -0.3512 0.9318 -0.0916
vn -0.0304 0.2191 -0.9752
vn -0.1275 0.0819 -0.9885
vn -0.3112 -0.9480 -0.0668
vn -0.0451 0.9881 0.1471
vn 0.0737 -0.9825 -0.1709
vn 0.0038 0.2289 -0.9734
vn 0.0103 0.0049 -0.9999
vn 0.2213 -0.1556 -0.9627
vn -0.0075 -0.2111 -0.9774
vn 0.0776 0.0722 -0.9944
vn 0.5306 0.1438 -0.8353
vn 0.1845 -0.0255 -0.9825
vn 0.7374 -0.2120 -0.6413
vn 0.7353 -0.6707 -0.0978
vn 0.5385 0.8351 -0.1124
vn 0.6755 0.5407 -0.5014
vn 0.9965 0.0831 -0.0107
vn 0.9271 -0.1684 0.3348
vn 0.9020 0.4305 -0.0320
vn 0.9947 -0.0020 -0.1026
vn 0.9103 -0.4119 0.0406
vn 0.5663 -0.8144 -0.1270
vn 0.3580 0.9286 -0.0972
vn 0.7423 0.2090 0.6367
vn 0.3134 -0.9432 -0.1106
vn 0.5084 0.4211 0.7511
vn 0.1551 -0.0090 0.9879
vn 0.3727 -0.2602 0.8907
vn 0.1398 -0.2767 0.9507
vn 0.0558 0.0674 0.9962
vn 0.0505 0.2961 0.9538
vn -0.0840 -0.0070 0.9964
vn -0.2442 0.1722 0.9543
vn -0.1118 -0.1027 0.9884
vn -0.0756 -0.5030 0.8610
vn -0.6544 0.1789 0.7347
vn -0.3914 0.0167 0.9200
vn -0.5118 -0.4418 0.7368
vn -0.7651 0.6383 0.0849
vn -0.6134 -0.1980 0.7645
vn -0.9648 -0.0574 0.2565
vn -0.5472 -0.8314 -0.0965
vn -0.8887 0.4584 -0.0081
vn -0.8925 -0.4511 0.0027
vn -0.7768 0.2282 -0.5870
vn -0.9829 0.1232 -0.1366
vn -0.8897 -0.2340 -0.3920
vn -0.5815 -0.0568 -0.8116
vn -0.6647 -0.5536 -0.5016
vn -0.5047 0.8626 0.0353
vn -0.1629 0.0478 -0.9855
vn -0.3557 0.9306 -0.0868
vn -0.2412 0.2320 -0.9423
vn -0.1337 -0.0811 -0.9877
vn -0.3733 -0.9148 -0.1543
vt 0.973691 0.937500
vt 0.783464 0.858184
vt 0.977956 0.875000
vt 0.969862 0.194006
vt 0.902542 0.312500
vt 0.783463 0.141816
vt 0.542771 0.848333
vt 0.620817 0.761011
vt 0.863190 0.687500
vt 0.969861 0.805994
vt 0.537759 0.338157
vt 0.506731 0.213739
vt 0.620816 0.238990
vt 0.361948 0.468393
vt 0.356281 0.312500
vt 0.426367 0.500028
vt 0.005162 0.557056
vt 0.002983 0.412532
vt 0.073634 0.500028
vt 0.498532 0.727162
vt 0.537759 0.661843
vt 0.497017 0.587469
vt 0.533947 0.500548
vt 0.492954 0.467827
vt 0.037760 0.338156
vt 0.004720 0.250000
vt 0.053287 0.195759
vt 0.487147 0.343151
vt 0.427329 0.661194
vt 0.446713 0.195760
vt 0.514418 0.937500
vt 0.467072 0.851046
vt 0.525741 0.125000
vt 0.279856 0.086372
vt 0.159946 0.259501
vt 0.162907 0.478183
vt 0.073634 0.500028
vt 0.390625 0.000000
vt 0.514407 0.062500
vt 0.856243 0.312500
vt 0.960521 0.462466
vt 0.879267 0.627106
vt 0.363599 0.987981
vt 0.211055 0.860573
vt 0.973688 0.062500
vt 0.072671 0.661194
vt 0.136808 0.312500
vt 0.138053 0.468397
vt 0.019425 0.937500
vt 0.013046 0.875000
vt 0.955263 0.406726
vt 0.861948 0.531606
vt 0.109375 0.000000
vt 0.019448 0.062500
vt 0.084692 0.173877
vt 0.366180 0.489823
vt 0.491217 0.408159
vt 0.460459 0.637695
vt 0.350347 0.132308
vt 0.419371 0.235229
vt 0.053289 0.804241
vt 0.000000 0.812500
vt 0.004764 0.727162
vt 0.002995 0.272838
vt 0.000000 0.187500
vt 1.000000 0.412532
vt 0.961362 0.537559
vt 0.995056 0.272838
vt 0.987147 0.343150
vt 0.962240 0.661843
vt 0.530139 0.805994
vt 0.675458 0.687500
vt 0.751491 0.858586
vt 0.996825 0.727162
vt 1.000000 0.557056
vt 0.525741 0.125000
vt 0.703125 1.000000
vt 0.514421 0.937500
vt 0.973690 0.937500
vt 0.761883 0.152231
vt 0.514407 0.062500
vt 0.973688 0.062500
vt 0.250000 0.575832
vt 0.300530 0.687500
vt 0.102166 0.758113
vt 0.525739 0.875000
vt 0.619059 0.437500
vt 0.537759 0.338156
vt 0.603967 0.243681
vt 0.498582 0.276201
vt 0.446710 0.804240
vt 0.559213 0.624342
vt 0.501470 0.727162
vt 0.502982 0.587469
vt 0.222344 0.078493
vt 0.520884 0.474068
vt 0.288940 0.860573
vt 0.769169 0.437180
vt 0.892327 0.799040
vt 0.962240 0.661843
vt 0.022507 0.875000
vt 0.363599 0.987981
vt 0.019450 0.062500
vt 0.013047 0.125000
vt 0.010668 0.812500
vt 0.051679 0.652090
vt 0.002983 0.587468
vt 0.994997 0.250000
vt 0.969862 0.194006
vt 0.004764 0.727162
vt 0.007046 0.467826
vt 0.000000 0.345728
vt 0.994390 0.812500
vt 0.996825 0.727162
vt 0.988001 0.578910
vt 1.000000 0.467826
vt 0.972477 0.875000
vt 0.037760 0.338157
vt 0.743934 0.521618
vt 0.627272 0.491447
vt 0.796875 0.000000
vt 0.013047 0.125000
vt 0.977953 0.125000
vt 0.506642 0.187500
vt 0.019426 0.937500
vt 0.977953 0.125000
s 1
usemtl golddark
f 49/1/49 50/2/50 42/3/42
f 44/4/44 48/5/48 4/6/4
f 9/7/9 5/8/5 50/2/50
f 51/9/51 45/10/45 50/2/50
f 11/11/11 15/12/15 7/13/7
f 24/14/24 25/15/25 20/16/20
f 36/17/36 37/18/37 31/19/31
f 5/8/5 9/7/9 13/20/13
f 10/21/10 13/20/13 12/22/12
f 8/23/8 12/22/12 14/24/14
f 89/25/89 93/26/93 87/27/87
f 8/23/8 16/28/16 11/11/11
f 13/20/13 23/29/23 12/22/12
f 15/12/15 16/28/16 21/30/21
f 9/7/9 19/31/19 22/32/22
f 23/29/23 20/16/20 12/22/12
f 17/33/17 21/30/21 26/34/26
f 83/35/83 81/36/81 86/37/86
f 16/28/16 20/16/20 25/15/25
f 2/38/2 18/39/18 26/34/26
f 103/40/103 97/41/97 100/42/100
f 1/43/1 27/44/27 22/32/22
f 4/6/4 18/39/18 52/45/52
f 31/19/31 32/46/32 36/17/36
f 21/30/21 25/15/25 26/34/26
f 23/29/23 22/32/22 27/44/27
f 30/47/30 29/48/29 31/19/31
f 27/44/27 49/49/49 42/50/42
f 48/5/48 39/51/39 47/52/47
f 2/53/2 26/34/26 52/54/52
f 35/55/35 52/54/52 26/34/26
f 76/56/76 67/57/67 73/58/73
f 78/59/78 77/60/77 76/56/76
f 67/57/67 76/56/76 77/60/77
f 33/61/33 42/50/42 45/62/45
f 32/46/32 38/63/38 36/17/36
f 40/64/40 44/65/44 35/55/35
f 37/66/37 43/67/43 39/51/39
f 40/68/40 39/51/39 48/5/48
f 40/68/40 48/5/48 44/4/44
f 103/40/103 96/69/96 97/41/97
f 45/10/45 51/9/51 41/70/41
f 65/71/65 59/72/59 55/73/55
f 38/74/38 41/70/41 36/75/36
f 42/3/42 50/2/50 45/10/45
f 71/76/71 77/60/77 78/59/78
f 49/1/49 1/77/1 19/31/19
f 72/78/72 55/73/55 101/79/101
f 51/9/51 50/2/50 5/8/5
f 58/80/58 74/81/74 104/82/104
f 19/31/19 50/2/50 49/1/49
f 28/83/28 24/14/24 23/29/23
f 7/13/7 17/33/17 4/6/4
f 79/84/79 82/85/82 81/36/81
f 55/73/55 64/86/64 65/71/65
f 79/84/79 81/36/81 76/56/76
f 61/87/61 62/88/62 57/89/57
f 62/88/62 70/90/70 57/89/57
f 64/86/64 75/91/75 65/71/65
f 60/92/60 68/93/68 66/94/66
f 74/81/74 78/59/78 84/95/84
f 69/96/69 67/57/67 62/88/62
f 68/93/68 73/58/73 66/94/66
f 72/78/72 80/97/80 64/86/64
f 7/13/7 4/6/4 3/98/3
f 54/38/54 74/81/74 84/95/84
f 102/99/102 100/42/100 94/100/94
f 79/84/79 75/91/75 80/97/80
f 78/59/78 83/35/83 84/95/84
f 80/97/80 99/101/99 82/85/82
f 80/97/80 53/102/53 99/101/99
f 54/53/54 84/95/84 104/103/104
f 87/27/87 91/104/91 84/95/84
f 82/85/82 99/101/99 88/105/88
f 86/37/86 85/106/85 95/107/95
f 93/108/93 96/69/96 98/109/98
f 82/85/82 88/105/88 92/110/92
f 93/26/93 98/65/98 87/27/87
f 90/111/90 96/112/96 89/25/89
f 88/113/88 102/99/102 92/114/92
f 85/106/85 92/110/92 95/107/95
f 95/115/95 97/41/97 90/116/90
f 92/114/92 94/100/94 95/115/95
f 100/42/100 95/115/95 94/100/94
f 99/117/99 102/99/102 88/113/88
f 101/79/101 55/73/55 99/117/99
f 98/109/98 103/40/103 58/80/58
f 34/118/34 40/64/40 35/55/35
f 79/84/79 73/58/73 75/91/75
f 101/79/101 53/77/53 72/78/72
f 59/72/59 56/119/56 102/99/102
f 102/99/102 56/119/56 100/42/100
f 81/36/81 82/85/82 86/37/86
f 82/85/82 85/106/85 86/37/86
f 8/23/8 6/120/6 10/21/10
f 6/120/6 5/8/5 10/21/10
f 73/58/73 79/84/79 76/56/76
f 60/92/60 59/72/59 65/71/65
f 7/13/7 15/12/15 17/33/17
f 30/47/30 31/19/31 34/118/34
f 8/23/8 10/21/10 12/22/12
f 8/23/8 14/24/14 16/28/16
f 11/11/11 16/28/16 15/12/15
f 17/33/17 15/12/15 21/30/21
f 73/58/73 67/57/67 69/96/69
f 13/20/13 22/32/22 23/29/23
f 16/28/16 14/24/14 20/16/20
f 21/30/21 16/28/16 25/15/25
f 51/9/51 43/67/43 41/70/41
f 18/39/18 17/33/17 26/34/26
f 19/31/19 1/43/1 22/32/22
f 19/31/19 9/7/9 50/2/50
f 103/40/103 57/89/57 58/80/58
f 47/52/47 51/9/51 3/98/3
f 28/83/28 30/47/30 25/15/25
f 30/47/30 35/55/35 25/15/25
f 35/55/35 26/34/26 25/15/25
f 104/82/104 74/81/74 54/121/54
f 4/6/4 48/5/48 3/98/3
f 48/5/48 47/52/47 3/98/3
f 59/72/59 61/87/61 56/119/56
f 39/51/39 43/67/43 47/52/47
f 27/44/27 1/43/1 49/49/49
f 33/61/33 27/44/27 42/50/42
f 32/46/32 33/61/33 38/63/38
f 30/47/30 34/118/34 35/55/35
f 35/55/35 46/122/46 52/54/52
f 77/60/77 70/90/70 67/57/67
f 31/19/31 37/18/37 34/118/34
f 38/63/38 33/61/33 45/62/45
f 36/75/36 41/70/41 43/67/43
f 35/55/35 44/65/44 46/122/46
f 37/66/37 36/75/36 43/67/43
f 40/68/40 37/66/37 39/51/39
f 52/45/52 46/123/46 4/6/4
f 38/74/38 45/10/45 41/70/41
f 47/52/47 43/67/43 51/9/51
f 95/115/95 100/42/100 97/41/97
f 78/59/78 76/56/76 83/35/83
f 76/56/76 81/36/81 83/35/83
f 46/123/46 44/4/44 4/6/4
f 23/29/23 24/14/24 20/16/20
f 64/86/64 55/73/55 72/78/72
f 27/44/27 32/46/32 28/83/28
f 32/46/32 29/48/29 28/83/28
f 61/87/61 57/89/57 56/119/56
f 58/80/58 71/76/71 74/81/74
f 56/119/56 57/89/57 103/40/103
f 3/98/3 51/9/51 5/8/5
f 23/29/23 27/44/27 28/83/28
f 80/97/80 82/85/82 79/84/79
f 25/15/25 24/14/24 28/83/28
f 58/80/58 57/89/57 71/76/71
f 103/40/103 100/42/100 56/119/56
f 57/89/57 63/124/63 71/76/71
f 69/96/69 62/88/62 61/87/61
f 57/89/57 70/90/70 63/124/63
f 60/92/60 65/71/65 68/93/68
f 71/76/71 63/124/63 77/60/77
f 62/88/62 67/57/67 70/90/70
f 66/94/66 73/58/73 69/96/69
f 98/109/98 96/69/96 103/40/103
f 83/35/83 86/37/86 89/25/89
f 95/107/95 90/111/90 86/37/86
f 68/93/68 75/91/75 73/58/73
f 64/86/64 80/97/80 75/91/75
f 74/81/74 71/76/71 78/59/78
f 72/78/72 53/102/53 80/97/80
f 7/13/7 6/120/6 11/11/11
f 6/120/6 8/23/8 11/11/11
f 63/124/63 70/90/70 77/60/77
f 61/87/61 59/72/59 60/92/60
f 4/6/4 17/33/17 18/39/18
f 14/24/14 12/22/12 20/16/20
f 32/46/32 27/44/27 33/61/33
f 34/118/34 37/18/37 40/64/40
f 6/120/6 7/13/7 3/98/3
f 5/8/5 6/120/6 3/98/3
f 69/96/69 61/87/61 60/92/60
f 52/45/52 18/39/18 2/121/2
f 29/48/29 32/46/32 31/19/31
f 9/7/9 22/32/22 13/20/13
f 99/101/99 53/102/53 101/125/101
f 83/35/83 89/25/89 87/27/87
f 86/37/86 90/111/90 89/25/89
f 87/27/87 98/65/98 91/104/91
f 89/25/89 96/112/96 93/26/93
f 84/95/84 91/104/91 104/103/104
f 83/35/83 87/27/87 84/95/84
f 85/106/85 82/85/82 92/110/92
f 96/69/96 90/116/90 97/41/97
f 92/114/92 102/99/102 94/100/94
f 60/92/60 66/94/66 69/96/69
f 99/117/99 55/73/55 102/99/102
f 65/71/65 75/91/75 68/93/68
f 91/126/91 98/109/98 58/80/58
f 104/82/104 91/126/91 58/80/58
f 102/99/102 55/73/55 59/72/59
f 29/48/29 30/47/30 28/83/28
f 10/21/10 5/8/5 13/20/13
