# Blender 5.2.1 LTS
# www.blender.org
mtllib loot-bag-golddark.mtl
o GoldDark
v -0.000000 1.626040 0.810826
v -0.000000 1.623740 0.806851
v -0.000000 1.625424 0.808531
v -0.000000 1.626040 0.820770
v -0.000000 1.623740 0.824745
v -0.000000 1.625424 0.823065
v 0.059196 1.622160 0.810826
v 0.058188 1.619444 0.806483
v 0.059116 1.621549 0.808531
v 0.059346 1.619386 0.825053
v 0.059196 1.622160 0.820770
v 0.059116 1.621549 0.823065
v 0.117380 1.610587 0.810826
v 0.116785 1.608365 0.806851
v 0.117221 1.609991 0.808531
v 0.117380 1.610587 0.820770
v 0.116785 1.608365 0.824745
v 0.117221 1.609991 0.823065
v 0.173556 1.591518 0.810826
v 0.173073 1.588660 0.806483
v 0.173320 1.590948 0.808531
v 0.171796 1.587268 0.825360
v 0.173556 1.591518 0.820770
v 0.172676 1.589393 0.824745
v 0.173320 1.590948 0.823065
v 0.226762 1.565280 0.810826
v 0.225612 1.563288 0.806851
v 0.226454 1.564746 0.808531
v 0.226762 1.565280 0.820770
v 0.225612 1.563288 0.824745
v 0.226454 1.564746 0.823065
v 0.276088 1.532321 0.810826
v 0.274021 1.530464 0.806543
v 0.275713 1.531832 0.808531
v 0.274618 1.529981 0.825095
v 0.276088 1.532321 0.820770
v 0.275713 1.531832 0.823065
v 0.320690 1.493206 0.810826
v 0.319064 1.491580 0.806851
v 0.320254 1.492770 0.808531
v 0.320690 1.493206 0.820770
v 0.319064 1.491580 0.824745
v 0.320254 1.492770 0.823065
v 0.356156 1.445804 0.806236
v 0.359805 1.448604 0.810826
v 0.357980 1.447204 0.806851
v 0.359316 1.448229 0.808531
v 0.359805 1.448604 0.820770
v 0.357980 1.447204 0.824745
v 0.359316 1.448229 0.823065
v 0.392763 1.399278 0.810826
v 0.390772 1.398128 0.806851
v 0.392230 1.398970 0.808531
v 0.388780 1.396978 0.825360
v 0.392763 1.399278 0.820770
v 0.390772 1.398128 0.824745
v 0.392230 1.398970 0.823065
v 0.419002 1.346072 0.810826
v 0.416877 1.345192 0.806851
v 0.418432 1.345836 0.808531
v 0.419002 1.346072 0.820770
v 0.416877 1.345192 0.824745
v 0.418432 1.345836 0.823065
v 0.438071 1.289896 0.810826
v 0.435357 1.289250 0.806478
v 0.437476 1.289737 0.808531
v 0.435564 1.288697 0.825053
v 0.438071 1.289896 0.820770
v 0.437476 1.289737 0.823065
v 0.449644 1.231712 0.810826
v 0.447364 1.231412 0.806851
v 0.449033 1.231632 0.808531
v 0.449644 1.231712 0.820770
v 0.447364 1.231412 0.824745
v 0.449033 1.231632 0.823065
v 0.453524 1.172516 0.810826
v 0.450793 1.172006 0.806543
v 0.452908 1.172516 0.808531
v 0.450699 1.171868 0.825113
v 0.453524 1.172516 0.820770
v 0.452908 1.172516 0.823065
v 0.449644 1.113319 0.810826
v 0.447364 1.113619 0.806851
v 0.449033 1.113399 0.808531
v 0.449644 1.113319 0.820770
v 0.447364 1.113619 0.824745
v 0.449033 1.113399 0.823065
v 0.433628 1.056325 0.806236
v 0.438071 1.055135 0.810826
v 0.435849 1.055730 0.806851
v 0.437476 1.055294 0.808531
v 0.435510 1.056491 0.825113
v 0.438071 1.055135 0.820770
v 0.437476 1.055294 0.823065
v 0.419002 0.998959 0.810826
v 0.416877 0.999839 0.806851
v 0.418432 0.999195 0.808531
v 0.419002 0.998959 0.820770
v 0.416877 0.999839 0.824745
v 0.418432 0.999195 0.823065
v 0.392763 0.945753 0.810826
v 0.390653 0.947560 0.806543
v 0.392230 0.946062 0.808531
v 0.390037 0.946995 0.825182
v 0.392763 0.945753 0.820770
v 0.392230 0.946062 0.823065
v 0.359805 0.896427 0.810826
v 0.357980 0.897828 0.806851
v 0.359316 0.896803 0.808531
v 0.359805 0.896427 0.820770
v 0.357980 0.897828 0.824745
v 0.359316 0.896803 0.823065
v 0.317437 0.855078 0.806236
v 0.320690 0.851825 0.810826
v 0.319064 0.853452 0.806851
v 0.320254 0.852261 0.808531
v 0.320690 0.851825 0.820770
v 0.319064 0.853452 0.824745
v 0.320254 0.852261 0.823065
v 0.276088 0.812710 0.810826
v 0.274688 0.814535 0.806851
v 0.275713 0.813199 0.808531
v 0.274422 0.815092 0.825134
v 0.276088 0.812710 0.820770
v 0.275713 0.813199 0.823065
v 0.226762 0.779752 0.810826
v 0.225837 0.782372 0.806543
v 0.226454 0.780286 0.808531
v 0.226762 0.779752 0.820770
v 0.225612 0.781744 0.824745
v 0.226454 0.780286 0.823065
v 0.173556 0.753514 0.810826
v 0.172676 0.755638 0.806851
v 0.173320 0.754083 0.808531
v 0.172453 0.756177 0.825121
v 0.173556 0.753514 0.820770
v 0.173320 0.754083 0.823065
v 0.116190 0.738888 0.806236
v 0.117380 0.734445 0.810826
v 0.116785 0.736666 0.806851
v 0.117221 0.735040 0.808531
v 0.117380 0.734445 0.820770
v 0.116785 0.736666 0.824745
v 0.117221 0.735040 0.823065
v 0.059196 0.722871 0.810826
v 0.058896 0.725151 0.806851
v 0.059116 0.723482 0.808531
v 0.058846 0.725535 0.825045
v 0.059196 0.722871 0.820770
v 0.059116 0.723482 0.823065
v -0.000000 0.718991 0.810826
v 0.000509 0.721723 0.806543
v -0.000000 0.719607 0.808531
v -0.000000 0.718991 0.820770
v -0.000000 0.721291 0.824745
v -0.000000 0.719607 0.823065
v -0.059197 0.722871 0.810826
v -0.058897 0.725151 0.806851
v -0.059117 0.723482 0.808531
v -0.058597 0.727432 0.825360
v -0.059197 0.722871 0.820770
v -0.058897 0.725151 0.824745
v -0.059117 0.723482 0.823065
v -0.117381 0.734445 0.810826
v -0.117348 0.737426 0.806442
v -0.117222 0.735040 0.808531
v -0.117381 0.734445 0.820770
v -0.116786 0.736666 0.824745
v -0.117222 0.735040 0.823065
v -0.173557 0.753514 0.810826
v -0.172677 0.755638 0.806851
v -0.173321 0.754083 0.808531
v -0.173342 0.756463 0.825101
v -0.173557 0.753514 0.820770
v -0.173321 0.754083 0.823065
v -0.226763 0.779752 0.810826
v -0.225373 0.782160 0.806535
v -0.226454 0.780286 0.808531
v -0.226763 0.779752 0.820770
v -0.225613 0.781744 0.824745
v -0.226454 0.780286 0.823065
v -0.276089 0.812710 0.810826
v -0.274688 0.814535 0.806851
v -0.275713 0.813199 0.808531
v -0.276089 0.812710 0.820770
v -0.274688 0.814535 0.824745
v -0.275713 0.813199 0.823065
v -0.317438 0.855078 0.806236
v -0.320691 0.851825 0.810826
v -0.319064 0.853452 0.806851
v -0.320255 0.852261 0.808531
v -0.317438 0.855078 0.825360
v -0.320691 0.851825 0.820770
v -0.319064 0.853452 0.824745
v -0.320255 0.852261 0.823065
v -0.359806 0.896427 0.810826
v -0.357981 0.897828 0.806851
v -0.359317 0.896803 0.808531
v -0.359806 0.896427 0.820770
v -0.357981 0.897828 0.824745
v -0.359317 0.896803 0.823065
v -0.392764 0.945753 0.810826
v -0.390437 0.947097 0.806550
v -0.392230 0.946062 0.808531
v -0.390653 0.947560 0.825053
v -0.392764 0.945753 0.820770
v -0.392230 0.946062 0.823065
v -0.419002 0.998959 0.810826
v -0.416878 0.999839 0.806851
v -0.418433 0.999195 0.808531
v -0.419002 0.998959 0.820770
v -0.416878 0.999839 0.824745
v -0.418433 0.999195 0.823065
v -0.438071 1.055135 0.810826
v -0.435473 1.056597 0.806442
v -0.437476 1.055294 0.808531
v -0.433628 1.056325 0.825360
v -0.438071 1.055135 0.820770
v -0.435850 1.055730 0.824745
v -0.437476 1.055294 0.823065
v -0.449645 1.113319 0.810826
v -0.447365 1.113619 0.806851
v -0.449034 1.113399 0.808531
v -0.449645 1.113319 0.820770
v -0.447365 1.113619 0.824745
v -0.449034 1.113399 0.823065
v -0.453525 1.172516 0.810826
v -0.450793 1.172006 0.806543
v -0.452909 1.172516 0.808531
v -0.450731 1.172275 0.825102
v -0.453525 1.172516 0.820770
v -0.452909 1.172516 0.823065
v -0.449645 1.231712 0.810826
v -0.447365 1.231412 0.806851
v -0.449034 1.231632 0.808531
v -0.449645 1.231712 0.820770
v -0.447365 1.231412 0.824745
v -0.449034 1.231632 0.823065
v -0.433628 1.288706 0.806236
v -0.438071 1.289896 0.810826
v -0.435850 1.289301 0.806851
v -0.437476 1.289737 0.808531
v -0.438071 1.289896 0.820770
v -0.435850 1.289301 0.824745
v -0.437476 1.289737 0.823065
v -0.419002 1.346072 0.810826
v -0.416878 1.345192 0.806851
v -0.418433 1.345836 0.808531
v -0.416369 1.344842 0.825134
v -0.419002 1.346072 0.820770
v -0.418433 1.345836 0.823065
v -0.392764 1.399278 0.810826
v -0.390772 1.398128 0.806851
v -0.392230 1.398970 0.808531
v -0.392764 1.399278 0.820770
v -0.390772 1.398128 0.824745
v -0.392230 1.398970 0.823065
v -0.359806 1.448604 0.810826
v -0.358115 1.446088 0.806452
v -0.359317 1.448229 0.808531
v -0.357607 1.446917 0.825106
v -0.359806 1.448604 0.820770
v -0.359317 1.448229 0.823065
v -0.320691 1.493206 0.810826
v -0.319064 1.491580 0.806851
v -0.320255 1.492770 0.808531
v -0.320691 1.493206 0.820770
v -0.319064 1.491580 0.824745
v -0.320255 1.492770 0.823065
v -0.276089 1.532321 0.810826
v -0.274334 1.530033 0.806475
v -0.275713 1.531832 0.808531
v -0.273288 1.528672 0.825360
v -0.276089 1.532321 0.820770
v -0.274688 1.530496 0.824745
v -0.275713 1.531832 0.823065
v -0.226763 1.565280 0.810826
v -0.225613 1.563288 0.806851
v -0.226454 1.564746 0.808531
v -0.226763 1.565280 0.820770
v -0.225613 1.563288 0.824745
v -0.226454 1.564746 0.823065
v -0.173557 1.591518 0.810826
v -0.172983 1.588799 0.806543
v -0.173321 1.590948 0.808531
v -0.172529 1.589035 0.825046
v -0.173557 1.591518 0.820770
v -0.173321 1.590948 0.823065
v -0.117381 1.610587 0.810826
v -0.116786 1.608365 0.806851
v -0.117222 1.609991 0.808531
v -0.117381 1.610587 0.820770
v -0.116786 1.608365 0.824745
v -0.117222 1.609991 0.823065
v -0.058597 1.617600 0.806236
v -0.059197 1.622160 0.810826
v -0.058897 1.619880 0.806851
v -0.059117 1.621549 0.808531
v -0.058597 1.617600 0.825360
v -0.059197 1.622160 0.820770
v -0.058897 1.619880 0.824745
v -0.059117 1.621549 0.823065
vn 0.0502 0.9908 -0.1259
vn 0.2241 0.8363 -0.5004
vn 0.1095 0.8523 -0.5115
vn 0.4301 0.7543 0.4959
vn 0.2020 0.2490 0.9472
vn 0.5281 0.6819 0.5062
vn -0.1128 -0.8584 -0.5005
vn 0.0798 -0.9884 -0.1290
vn -0.1304 -0.9902 -0.0506
vn 0.0517 0.2995 -0.9527
vn -0.0047 0.8682 -0.4961
vn 0.4536 -0.0111 -0.8911
vn 0.4399 -0.0584 -0.8961
vn -0.0008 -0.0065 -1.0000
vn 0.2196 0.8399 0.4963
vn 0.3822 0.9227 0.0506
vn 0.1786 0.9754 0.1290
vn 0.1098 0.4109 -0.9050
vn -0.0192 0.3773 0.9259
vn 0.1098 0.8564 0.5045
vn -0.0795 0.9888 0.1259
vn 0.1304 0.9902 0.0506
vn -0.0000 0.9987 -0.0504
vn -0.4520 0.8831 -0.1259
vn -0.2241 0.8363 -0.5004
vn -0.3323 0.7943 -0.5086
vn 0.7555 0.6429 -0.1259
vn 0.5217 0.6849 -0.5086
vn 0.5383 0.8328 -0.1290
vn -0.1084 0.8617 0.4958
vn -0.1219 0.4189 0.8998
vn -0.0652 0.4954 0.8662
vn 0.1913 0.4618 0.8661
vn 0.3370 0.8003 0.4959
vn 0.3050 0.9440 -0.1258
vn 0.4327 0.7496 -0.5008
vn 0.3219 0.7967 -0.5115
vn 0.0677 0.3683 -0.9272
vn 0.4966 0.8665 0.0507
vn 0.2156 0.3718 0.9029
vn 0.1899 0.2546 -0.9482
vn 0.2088 0.3787 -0.9016
vn 0.8329 0.5389 -0.1259
vn 0.6105 0.6175 -0.4959
vn 0.4254 0.8962 -0.1259
vn 0.1964 -0.0058 -0.9805
vn 0.3632 -0.3646 -0.8574
vn 0.2598 -0.3406 -0.9036
vn 0.0005 0.0002 1.0000
vn -0.4926 -0.1230 0.8615
vn -0.4000 -0.1758 0.8995
vn 0.7040 0.7084 0.0507
vn 0.6120 0.6123 0.5005
vn 0.2889 0.2874 0.9132
vn 0.3267 0.2535 0.9105
vn 0.6920 0.5246 0.4959
vn -0.0652 0.4955 -0.8662
vn -0.1216 0.4187 -0.8999
vn 0.3019 0.3032 -0.9038
vn 0.7904 0.6105 0.0507
vn 0.7497 0.4330 -0.5004
vn 0.8649 0.4994 -0.0506
vn 0.8000 0.3308 -0.5006
vn 0.3640 0.2178 -0.9056
vn 0.2531 0.9446 -0.2090
vn -0.3859 0.0820 0.9189
vn -0.4361 -0.0480 0.8986
vn -0.4009 0.1146 0.9089
vn -0.4110 0.0642 0.9094
vn -0.9612 0.2712 0.0515
vn -0.9696 0.1276 -0.2088
vn -0.9698 0.1263 0.2087
vn 0.1030 -0.4193 0.9020
vn 0.2347 -0.3169 0.9189
vn -0.0120 -0.3983 0.9172
vn 0.7424 -0.4307 -0.5131
vn 0.9437 -0.3047 -0.1290
vn 0.8649 -0.4994 -0.0506
vn 0.8582 0.1131 -0.5006
vn 0.3577 0.1724 -0.9178
vn 0.8350 0.2230 -0.5031
vn 0.0001 0.0004 1.0000
vn -0.0748 -0.5022 0.8615
vn 0.0094 -0.4365 0.8997
vn 0.4351 0.2612 0.8617
vn 0.8042 0.3276 0.4959
vn 0.7541 0.4354 0.4917
vn 0.9700 0.2081 -0.1259
vn 0.8583 0.0020 -0.5131
vn 0.8325 0.2200 0.5084
vn 0.3998 0.1742 0.8999
vn 0.3123 0.0659 0.9477
vn 0.8633 0.5021 0.0507
vn 0.3842 0.1694 -0.9076
vn 0.8831 0.4520 -0.1258
vn 0.4269 0.0650 -0.9019
vn -0.3628 0.2842 -0.8875
vn -0.3119 0.3135 -0.8969
vn -0.1677 0.2280 -0.9591
vn 0.9898 0.1335 0.0507
vn 0.8582 0.1132 0.5006
vn 0.8594 -0.0027 0.5113
vn 0.4267 0.0653 0.9020
vn 0.3034 -0.0226 0.9526
vn 0.8400 -0.2199 -0.4959
vn 0.9754 -0.1786 -0.1290
vn 0.8583 -0.1130 -0.5005
vn 0.9987 0.0032 0.0508
vn 0.8602 -0.1183 0.4961
vn 0.4233 -0.0557 0.9043
vn -0.3722 0.2253 0.9004
vn -0.3892 0.0567 0.9194
vn -0.2629 0.2943 0.9188
vn 0.9908 -0.0501 -0.1258
vn 0.2986 -0.0566 0.9527
vn 0.8281 -0.2296 0.5115
vn 0.3955 -0.1647 -0.9036
vn 0.4926 -0.1230 -0.8615
vn 0.9702 -0.1232 0.2086
vn 0.9647 -0.2585 0.0504
vn 0.9239 -0.3793 0.0508
vn 0.7998 -0.3313 0.5005
vn 0.3958 -0.1637 0.9036
vn 0.7389 -0.4253 0.5226
vn 0.8649 -0.4994 0.0506
vn 0.6430 -0.7555 -0.1259
vn 0.6920 -0.5246 -0.4959
vn 0.8328 -0.5383 -0.1290
vn 0.9888 0.0797 -0.1259
vn -0.2458 0.9679 0.0517
vn -0.3755 0.9030 0.2089
vn 0.5268 -0.6870 -0.5006
vn 0.6175 -0.6105 -0.4959
vn -0.1732 -0.0940 -0.9804
vn -0.4969 0.1342 -0.8574
vn -0.3819 0.1608 -0.9101
vn 0.9341 0.3329 -0.1290
vn 0.3257 -0.2520 0.9113
vn 0.6858 -0.5326 0.4959
vn 0.3514 -0.2582 -0.8999
vn 0.7062 -0.7062 0.0506
vn 0.8328 -0.5383 0.1290
vn 0.3884 -0.1376 -0.9111
vn -0.2706 -0.3514 -0.8963
vn -0.0051 0.0043 -1.0000
vn -0.2387 -0.3945 -0.8874
vn -0.8043 0.3337 -0.4917
vn -0.3560 0.2042 -0.9119
vn -0.3158 0.3972 0.8617
vn -0.4296 0.7545 0.4961
vn -0.5301 0.6908 0.4917
vn 0.4929 -0.8447 0.2085
vn 0.3269 -0.7893 0.5198
vn 0.3822 -0.9227 0.0504
vn 0.1689 -0.4096 -0.8965
vn -0.0069 -0.0008 -1.0000
vn 0.2239 -0.3979 -0.8897
vn -0.9345 0.3329 -0.1259
vn -0.8616 0.1084 -0.4959
vn 0.3048 -0.9441 -0.1258
vn 0.4331 -0.7441 -0.5086
vn 0.5633 -0.8161 -0.1290
vn 0.6174 -0.6104 0.4961
vn 0.6080 -0.7923 0.0506
vn -0.8617 0.1084 0.4958
vn -0.8375 0.2296 0.4959
vn 0.2249 -0.3725 0.9004
vn 0.5251 -0.6769 0.5158
vn 0.4297 -0.7546 0.4959
vn -0.9440 0.3050 -0.1258
vn -0.7495 0.4331 -0.5006
vn 0.3026 -0.2886 0.9084
vn 0.3327 -0.8047 -0.4917
vn 0.1294 -0.4828 -0.8661
vn 0.2294 -0.8376 0.4959
vn 0.1076 -0.8565 0.5049
vn 0.2249 -0.8412 -0.4917
vn 0.0551 -0.4249 -0.9036
vn 0.1204 0.4198 0.8996
vn 0.1770 0.0756 0.9813
vn 0.2616 -0.9639 0.0507
vn -0.2187 -0.8271 -0.5178
vn -0.2585 -0.9647 -0.0506
vn 0.1128 -0.8633 -0.4919
vn 0.0035 -0.3182 -0.9480
vn 0.1304 -0.9902 0.0506
vn -0.0048 -0.8683 0.4961
vn 0.2079 -0.9700 -0.1259
vn -0.0020 -0.8583 -0.5131
vn -0.0000 -0.9987 0.0508
vn 0.3329 -0.9341 -0.1290
vn -0.1184 -0.8603 0.4959
vn -0.1304 -0.9902 0.0506
vn -0.0477 -0.4300 -0.9016
vn -0.1694 0.4208 -0.8912
vn 0.0067 0.0005 -1.0000
vn -0.4283 -0.7415 -0.5165
vn -0.1581 -0.4044 -0.9008
vn -0.3331 -0.8044 -0.4919
vn -0.0120 -0.3708 -0.9286
vn -0.2487 -0.9458 0.2086
vn -0.3245 -0.7928 0.5159
vn -0.3822 -0.9227 0.0506
vn -0.4296 -0.7546 0.4959
vn -0.2501 -0.3295 0.9104
vn -0.5326 -0.6859 0.4959
vn -0.3046 -0.9437 -0.1290
vn -0.4994 -0.8649 -0.0506
vn -0.1055 -0.4248 0.8991
vn -0.1482 -0.2748 0.9500
vn -0.5325 -0.6857 -0.4962
vn -0.7555 -0.6430 -0.1259
vn -0.5383 -0.8328 -0.1290
vn -0.7472 -0.4279 0.5085
vn -0.3411 -0.2717 0.8999
vn -0.2871 -0.1464 0.9466
vn -0.4851 -0.8492 0.2086
vn -0.6080 -0.7924 0.0504
vn -0.9908 -0.0501 -0.1258
vn -0.8269 -0.2295 -0.5133
vn -0.9340 -0.3331 -0.1290
vn -0.8962 -0.4254 -0.1259
vn -0.6859 -0.5323 -0.4961
vn -0.7355 -0.6651 -0.1290
vn -0.3534 -0.3534 -0.8661
vn -0.0005 -0.0006 1.0000
vn -0.3651 -0.3529 0.8615
vn -0.2241 -0.8363 0.5004
vn -0.6884 -0.6948 0.2085
vn -0.6869 -0.5271 0.5004
vn -0.7923 -0.6080 0.0504
vn -0.8832 -0.4519 -0.1259
vn -0.8001 -0.3372 -0.4961
vn 0.3813 -0.0976 0.9193
vn -0.6161 -0.6153 -0.4918
vn -0.3401 -0.2599 -0.9038
vn -0.7450 -0.4360 -0.5049
vn -0.6176 -0.6105 0.4958
vn -0.3094 -0.2525 -0.9168
vn -0.3963 -0.1741 -0.9015
vn -0.9215 -0.3851 0.0508
vn -0.7997 -0.3315 0.5006
vn -0.8400 -0.2199 0.4959
vn 0.8042 -0.3337 -0.4918
vn -0.0000 -0.0002 1.0000
vn -0.3167 0.3038 0.8986
vn -0.2858 -0.0667 -0.9560
vn -0.9888 0.0797 -0.1259
vn -0.8600 -0.1184 -0.4963
vn 0.0618 0.1925 0.9793
vn -0.9898 -0.1335 0.0507
vn -0.8583 -0.1126 0.5006
vn -0.3182 -0.0042 -0.9480
vn -0.4295 -0.0651 -0.9007
vn -0.8605 0.0058 0.5095
vn -0.9647 -0.2585 0.0504
vn -0.8634 0.0025 -0.5044
vn -0.4242 0.0554 -0.9039
vn -0.9987 -0.0032 0.0508
vn -0.8409 0.2259 -0.4917
vn -0.9239 0.3793 0.0507
vn -0.7887 0.3273 0.5204
vn -0.7492 0.4388 0.4961
vn -0.8633 -0.5021 0.0507
vn -0.6106 0.6172 0.4961
vn -0.6858 0.5263 0.5027
vn -0.8665 0.4966 0.0508
vn -0.7555 0.6429 -0.1258
vn -0.5200 0.6777 -0.5198
vn -0.6176 0.6105 -0.4959
vn 0.9215 0.3851 0.0508
vn -0.0001 0.0006 1.0000
vn -0.2201 0.8400 0.4959
vn -0.2111 0.3415 0.9159
vn -0.8330 0.5388 -0.1259
vn -0.6818 0.5213 -0.5133
vn -0.6080 0.7923 0.0508
vn -0.7554 0.6424 0.1290
vn -0.8962 0.4254 -0.1259
vn -0.7786 0.5918 0.2086
vn 0.9443 0.2544 0.2089
vn -0.4994 0.8649 0.0506
vn -0.2114 0.3674 -0.9057
vn -0.0078 0.4390 -0.8984
vn -0.4256 0.8961 -0.1259
vn -0.6651 0.7355 -0.1290
vn -0.2101 0.3827 0.8997
vn 0.6651 -0.7355 -0.1290
vn -0.3257 0.7994 0.5048
vn -0.4383 0.7495 -0.4961
vn 0.0091 0.4360 0.8999
vn -0.0003 0.8708 0.4917
vn -0.1133 0.8634 -0.4917
vn -0.2079 0.9696 -0.1290
vn 0.6055 0.7943 0.0507
vn -0.1335 0.9898 0.0507
vn -0.3330 0.9340 -0.1290
vn 0.3975 0.3159 -0.8615
vn 0.6910 0.5298 -0.4917
vn 0.2318 0.0300 -0.9723
vn 0.3092 -0.2437 0.9192
vn -0.2016 -0.3645 0.9091
vt 0.979167 0.620000
vt 0.958333 0.500000
vt 0.979167 0.500000
vt 0.369999 0.457845
vt 0.395198 0.439226
vt 0.396102 0.440404
vt 0.479167 0.500000
vt 0.500000 0.620000
vt 0.479167 0.620000
vt 0.781127 0.486435
vt 0.750000 0.489999
vt 0.781326 0.487945
vt 0.988529 0.250000
vt 0.986740 0.218832
vt 0.979471 0.188514
vt 0.958333 1.000000
vt 0.937500 0.880000
vt 0.958333 0.880000
vt 0.811801 0.480646
vt 0.812116 0.481821
vt 0.281134 0.486488
vt 0.312116 0.481821
vt 0.281326 0.487945
vt 1.000000 0.880000
vt 0.979167 1.000000
vt 0.979167 0.880000
vt 0.999986 0.500000
vt 1.000000 0.620000
vt 0.062500 0.620000
vt 0.041667 0.500000
vt 0.062500 0.500000
vt 0.875000 0.620000
vt 0.895833 0.500000
vt 0.895833 0.620000
vt 0.218674 0.487945
vt 0.188198 0.480646
vt 0.218832 0.486740
vt 0.341378 0.470607
vt 0.341843 0.471730
vt 0.937500 0.620000
vt 0.916667 0.500000
vt 0.937500 0.500000
vt 0.869999 0.457845
vt 0.841260 0.470322
vt 0.841843 0.471730
vt 0.916667 0.880000
vt 0.937500 1.000000
vt 0.916667 1.000000
vt 0.369391 0.456792
vt 0.895207 0.439238
vt 0.869391 0.456792
vt 0.854167 0.620000
vt 0.875000 0.500000
vt 0.916667 0.620000
vt 0.917984 0.082016
vt 0.918845 0.081155
vt 0.895362 0.060561
vt 0.020529 0.188514
vt 0.019353 0.188198
vt 0.029393 0.158622
vt 0.875000 0.880000
vt 0.895833 1.000000
vt 0.875000 1.000000
vt 0.419705 0.419705
vt 0.418845 0.418845
vt 0.439439 0.395362
vt 0.440404 0.396102
vt 0.687884 0.481821
vt 0.718832 0.486740
vt 0.688199 0.480647
vt 0.918845 0.418845
vt 0.896102 0.440404
vt 0.919705 0.419705
vt 0.854167 0.880000
vt 0.854167 1.000000
vt 0.833333 0.500000
vt 0.833333 0.620000
vt 0.971730 0.341843
vt 0.956792 0.369391
vt 0.957845 0.369999
vt 0.958333 0.620000
vt 0.011508 0.250000
vt 0.013260 0.218832
vt 0.019353 0.311801
vt 0.013260 0.281167
vt 0.208334 0.880000
vt 0.229167 0.620000
vt 0.229167 0.880000
vt 0.311801 0.019353
vt 0.341249 0.029705
vt 0.281137 0.013489
vt 0.666667 0.500000
vt 0.687500 0.620000
vt 0.666667 0.620000
vt 0.812500 0.500000
vt 0.987945 0.281326
vt 0.980366 0.311726
vt 0.981821 0.312116
vt 0.218991 0.014467
vt 0.218832 0.013260
vt 0.250000 0.011217
vt 0.456792 0.369391
vt 0.471730 0.341843
vt 0.457845 0.369999
vt 0.770834 0.620000
vt 0.750000 0.500000
vt 0.770834 0.500000
vt 0.481821 0.312116
vt 0.470607 0.341378
vt 0.480402 0.311736
vt 0.833333 0.880000
vt 0.833333 1.000000
vt 0.970606 0.341378
vt 0.812500 0.620000
vt 0.791667 0.500000
vt 0.989999 0.250000
vt 0.986740 0.281167
vt 0.560827 0.395158
vt 0.581155 0.418845
vt 0.604844 0.439171
vt 0.770834 0.880000
vt 0.791667 1.000000
vt 0.770834 1.000000
vt 0.487945 0.281326
vt 0.489999 0.250000
vt 0.486740 0.281167
vt 0.488475 0.250000
vt 0.708334 0.500000
vt 0.708334 0.620000
vt 0.987945 0.218674
vt 0.750000 0.880000
vt 0.750000 1.000000
vt 0.487945 0.218674
vt 0.486740 0.218833
vt 0.043208 0.369391
vt 0.029716 0.341245
vt 0.060783 0.395191
vt 0.729167 0.620000
vt 0.729167 0.500000
vt 0.480349 0.188278
vt 0.481821 0.187884
vt 0.981821 0.187884
vt 0.970606 0.158622
vt 0.980646 0.188198
vt 0.729167 0.880000
vt 0.708334 1.000000
vt 0.708334 0.880000
vt 0.687500 0.880000
vt 0.687500 1.000000
vt 0.729167 1.000000
vt 0.470607 0.158622
vt 0.471730 0.158156
vt 0.666667 1.000000
vt 0.666667 0.880000
vt 0.625000 0.620000
vt 0.645834 0.500000
vt 0.645834 0.620000
vt 0.750000 0.620000
vt 0.041667 0.880000
vt 0.062500 0.880000
vt 0.604167 0.500000
vt 0.625000 0.500000
vt 0.520529 0.311487
vt 0.519353 0.311801
vt 0.529393 0.341378
vt 0.791667 0.620000
vt 0.457845 0.130001
vt 0.439439 0.104638
vt 0.440404 0.103898
vt 0.919705 0.080295
vt 0.939439 0.104638
vt 0.940404 0.103898
vt 0.645834 1.000000
vt 0.625000 0.880000
vt 0.645834 0.880000
vt 0.957845 0.130001
vt 0.956572 0.130735
vt 0.604638 0.060561
vt 0.582016 0.082016
vt 0.630748 0.043449
vt 0.528270 0.341843
vt 0.543208 0.369391
vt 0.104638 0.439439
vt 0.130001 0.457845
vt 0.103898 0.440404
vt 0.583334 0.880000
vt 0.562500 1.000000
vt 0.562500 0.880000
vt 0.841378 0.029393
vt 0.811487 0.020529
vt 0.869264 0.043428
vt 0.208334 0.620000
vt 0.229167 0.500000
vt 0.562500 0.620000
vt 0.583334 0.500000
vt 0.583334 0.620000
vt 0.869999 0.042155
vt 0.625000 1.000000
vt 0.604167 0.880000
vt 0.012055 0.281326
vt 0.018179 0.312116
vt 0.341843 0.028270
vt 0.369391 0.043208
vt 0.396102 0.059596
vt 0.369999 0.042155
vt 0.604167 1.000000
vt 0.187500 0.620000
vt 0.166667 0.500000
vt 0.187500 0.500000
vt 0.418845 0.081155
vt 0.419705 0.080295
vt 0.841843 0.028270
vt 0.811801 0.019353
vt 0.312116 0.018179
vt 0.281326 0.012055
vt 0.896102 0.059596
vt 0.812116 0.018179
vt 0.781167 0.013260
vt 0.311801 0.480646
vt 0.340913 0.469482
vt 0.541667 0.880000
vt 0.541667 1.000000
vt 0.458334 0.500000
vt 0.458334 0.620000
vt 0.781326 0.012055
vt 0.750000 0.011471
vt 0.520834 0.880000
vt 0.250000 0.010001
vt 0.520834 0.620000
vt 0.500000 0.500000
vt 0.520834 0.500000
vt 0.520834 1.000000
vt 0.500000 0.880000
vt 0.541667 0.500000
vt 0.541667 0.620000
vt 0.218674 0.012055
vt 0.479167 1.000000
vt 0.479167 0.880000
vt 0.687884 0.018179
vt 0.718832 0.013260
vt 0.718674 0.012055
vt 0.658719 0.470372
vt 0.718992 0.485534
vt 0.750000 0.010001
vt 0.630001 0.042155
vt 0.658621 0.029393
vt 0.658157 0.028270
vt 0.208334 1.000000
vt 0.688287 0.019686
vt 0.437500 0.500000
vt 0.458334 0.880000
vt 0.437500 1.000000
vt 0.437500 0.880000
vt 0.130001 0.042155
vt 0.104638 0.060561
vt 0.103898 0.059596
vt 0.416667 0.500000
vt 0.437500 0.620000
vt 0.416667 0.620000
vt 0.158156 0.028270
vt 0.188198 0.019353
vt 0.158735 0.029668
vt 0.603898 0.059596
vt 0.375000 0.620000
vt 0.395834 0.500000
vt 0.395834 0.620000
vt 0.042155 0.130001
vt 0.060561 0.104638
vt 0.043428 0.130735
vt 0.416667 0.880000
vt 0.395834 1.000000
vt 0.395834 0.880000
vt 0.270834 0.620000
vt 0.291667 0.500000
vt 0.291667 0.620000
vt 0.333334 0.620000
vt 0.354167 0.500000
vt 0.354167 0.620000
vt 0.581155 0.081155
vt 0.082016 0.082016
vt 0.081155 0.081155
vt 0.458334 1.000000
vt 0.375000 0.880000
vt 0.354167 1.000000
vt 0.354167 0.880000
vt 0.312500 0.620000
vt 0.312500 0.500000
vt 0.456451 0.130806
vt 0.580295 0.080295
vt 0.560561 0.104638
vt 0.333334 0.500000
vt 0.059596 0.103898
vt 0.080295 0.080295
vt 0.528270 0.158156
vt 0.543408 0.130724
vt 0.542155 0.130001
vt 0.518179 0.187884
vt 0.529393 0.158622
vt 0.312500 0.880000
vt 0.333334 1.000000
vt 0.312500 1.000000
vt 0.018179 0.187884
vt 0.028270 0.158157
vt 0.971730 0.158157
vt 0.105379 0.438474
vt 0.081155 0.418845
vt 0.519686 0.188288
vt 0.250000 0.620000
vt 0.270834 0.500000
vt 0.455738 0.368783
vt 0.270834 0.880000
vt 0.291667 1.000000
vt 0.270834 1.000000
vt 0.512055 0.218674
vt 0.416667 1.000000
vt 0.511471 0.250000
vt 0.513260 0.218833
vt 0.012055 0.218674
vt 0.010001 0.250000
vt 0.291667 0.880000
vt 0.510001 0.250000
vt 0.513260 0.281167
vt 0.250000 0.880000
vt 0.250000 1.000000
vt 0.229167 1.000000
vt 0.250000 0.500000
vt 0.187884 0.018179
vt 0.518179 0.312116
vt 0.208334 0.500000
vt 0.512055 0.281326
vt 0.187500 0.880000
vt 0.187500 1.000000
vt 0.028270 0.341843
vt 0.042155 0.369999
vt 0.562500 0.500000
vt 0.333334 0.880000
vt 0.080295 0.419705
vt 0.059596 0.396102
vt 0.166667 0.880000
vt 0.166667 1.000000
vt 0.125000 0.620000
vt 0.104167 0.500000
vt 0.125000 0.500000
vt 0.812500 0.880000
vt 0.812500 1.000000
vt 0.218992 0.485534
vt 0.187884 0.481821
vt 0.158710 0.470393
vt 0.145834 0.620000
vt 0.145834 0.500000
vt 0.559596 0.396102
vt 0.125000 1.000000
vt 0.104167 0.880000
vt 0.125000 0.880000
vt 0.166667 0.620000
vt 0.145834 0.880000
vt 0.791667 0.880000
vt 0.083334 1.000000
vt 0.083334 0.880000
vt 0.603898 0.440404
vt 0.630609 0.456792
vt 0.750000 0.488783
vt 0.083334 0.620000
vt 0.104167 0.620000
vt 0.130608 0.456792
vt 0.604167 0.620000
vt 0.559596 0.103898
vt 0.158157 0.471730
vt 0.083334 0.500000
vt 0.062500 1.000000
vt 0.250000 0.488783
vt 0.250000 0.489999
vt 0.630001 0.457845
vt 0.000000 0.880000
vt 0.020834 1.000000
vt 0.000015 1.000000
vt 0.658157 0.471730
vt 0.718674 0.487945
vt 0.041667 1.000000
vt 0.000015 0.500000
vt 0.020834 0.620000
vt 0.000000 0.620000
vt 0.895833 0.880000
vt 0.020834 0.880000
vt 0.580295 0.419705
vt 0.041667 0.620000
vt 0.939439 0.395362
vt 0.940404 0.396102
vt 0.375000 1.000000
vt 0.542155 0.369999
vt 0.938474 0.394621
vt 0.145834 1.000000
vt 0.999986 1.000000
vt 0.854167 0.500000
vt 0.687500 0.500000
vt 0.583334 1.000000
vt 0.395149 0.060838
vt 0.500000 1.000000
vt 0.130608 0.043208
vt 0.375000 0.500000
vt 0.104167 1.000000
vt 0.020834 0.500000
s 1
usemtl golddark
f 7/1/1 15/2/2 9/3/3
f 31/4/4 35/5/5 37/6/6
f 159/7/7 151/8/8 157/9/9
f 8/10/10 3/11/11 9/12/3
f 77/13/12 83/14/13 88/15/14
f 18/16/15 23/17/16 16/18/17
f 14/19/18 9/12/3 15/20/2
f 10/21/19 18/22/15 12/23/20
f 4/24/21 12/25/20 11/26/22
f 7/1/1 3/27/11 1/28/23
f 283/29/24 291/30/25 285/31/26
f 38/32/27 34/33/28 32/34/29
f 302/35/30 293/36/31 301/37/32
f 18/22/15 24/38/33 25/39/34
f 19/40/35 28/41/36 21/42/37
f 28/43/36 20/44/38 21/45/37
f 29/46/39 25/47/34 31/48/4
f 31/4/4 24/38/33 30/49/40
f 28/43/36 33/50/41 27/51/42
f 45/52/43 40/53/44 38/32/27
f 26/54/45 34/33/28 28/41/36
f 113/55/46 115/56/47 121/57/48
f 217/58/49 219/59/50 212/60/51
f 41/61/52 37/62/6 43/63/53
f 43/64/53 35/5/5 42/65/54
f 43/64/53 49/66/55 50/67/56
f 291/68/25 297/69/57 290/70/58
f 39/71/59 34/72/28 40/73/44
f 21/45/37 14/19/18 15/20/2
f 48/74/60 43/63/53 50/75/56
f 53/76/61 45/52/43 51/77/62
f 60/78/63 52/79/64 53/80/61
f 23/17/16 13/81/65 16/18/17
f 230/82/66 225/83/67 217/58/49
f 244/84/68 237/85/69 230/82/66
f 243/86/70 233/87/71 236/88/72
f 143/89/73 135/90/74 148/91/75
f 103/92/76 95/93/77 101/94/78
f 51/77/62 60/95/63 53/76/61
f 72/96/79 65/97/80 66/98/81
f 160/99/82 162/100/83 155/101/84
f 56/102/85 63/103/86 57/104/87
f 70/105/88 78/106/89 72/107/79
f 69/108/90 62/109/91 67/110/92
f 55/111/93 50/75/56 57/112/87
f 60/78/63 65/97/80 59/113/94
f 58/114/95 66/115/81 60/95/63
f 78/116/89 71/117/96 72/96/79
f 259/118/97 265/119/98 271/120/99
f 73/121/100 69/122/90 75/123/101
f 67/110/92 75/124/101 69/108/90
f 81/125/102 74/126/103 79/127/104
f 95/93/77 91/128/105 89/129/106
f 84/130/107 77/13/12 78/116/89
f 80/131/108 75/123/101 81/132/102
f 87/133/109 79/127/104 86/134/110
f 256/135/111 249/136/112 261/137/113
f 82/138/114 91/128/105 84/139/107
f 87/133/109 92/140/115 94/141/116
f 91/142/105 96/143/117 90/144/118
f 85/145/119 94/146/116 93/147/120
f 98/148/121 94/146/116 100/149/122
f 84/130/107 90/144/118 83/14/13
f 20/44/38 27/51/42 33/50/41
f 80/131/108 87/150/109 85/145/119
f 94/141/116 99/151/123 100/152/122
f 98/148/121 106/153/124 105/154/125
f 114/155/126 109/156/127 107/157/128
f 76/158/129 84/139/107 78/106/89
f 292/159/130 283/29/24 287/160/131
f 114/155/126 122/161/132 116/162/133
f 239/163/134 241/164/135 247/165/136
f 72/107/79 64/166/137 70/105/88
f 106/167/124 111/168/138 112/169/139
f 116/170/133 108/171/140 109/172/127
f 112/173/139 117/174/141 110/175/142
f 105/154/125 112/173/139 110/175/142
f 103/176/76 108/171/140 102/177/143
f 183/178/144 188/179/145 177/180/146
f 248/181/147 253/182/148 247/165/136
f 275/183/149 282/184/150 276/185/151
f 129/186/152 137/187/153 136/188/154
f 133/189/155 138/190/156 127/191/157
f 240/192/158 235/193/159 233/87/71
f 132/194/160 128/195/161 126/196/162
f 128/197/161 133/189/155 127/191/157
f 119/198/163 124/199/164 117/174/141
f 238/200/165 244/84/68 245/201/166
f 137/202/153 130/203/167 135/90/74
f 125/204/168 130/203/167 131/205/169
f 125/206/168 129/186/152 124/199/164
f 246/207/170 254/208/171 248/209/147
f 118/210/172 125/204/168 119/211/163
f 134/212/173 140/213/174 133/189/155
f 144/214/175 148/91/75 150/215/176
f 122/216/132 115/56/47 116/170/133
f 141/217/177 146/218/178 140/213/174
f 111/168/138 119/211/163 112/169/139
f 137/202/153 143/89/73 144/214/175
f 17/219/179 10/21/19 22/220/180
f 142/221/181 137/187/153 144/222/175
f 166/223/182 157/9/9 164/224/183
f 147/225/184 152/226/185 146/218/178
f 144/222/175 149/227/186 142/221/181
f 148/91/75 156/228/187 150/215/176
f 145/229/188 153/230/189 147/231/184
f 150/232/176 154/233/190 149/227/186
f 145/229/188 141/234/177 139/235/191
f 101/94/78 109/156/127 103/92/76
f 156/228/187 162/100/83 163/236/192
f 154/233/190 163/237/192 161/238/193
f 166/239/182 158/240/194 159/241/7
f 284/242/195 290/70/58 295/243/196
f 158/240/194 153/244/189 159/241/7
f 178/245/197 171/246/198 172/247/199
f 236/88/72 245/248/166 243/86/70
f 172/247/199 165/249/200 166/239/182
f 164/224/183 172/250/199 166/223/182
f 167/251/201 175/252/202 174/253/203
f 181/254/204 186/255/205 187/256/206
f 178/257/197 170/258/207 176/259/208
f 175/260/202 168/261/209 173/262/210
f 183/178/144 178/245/197 184/263/211
f 189/264/212 184/265/211 182/266/213
f 207/267/214 200/268/215 205/269/216
f 176/259/208 184/265/211 178/257/197
f 173/262/210 181/254/204 175/260/202
f 179/270/217 187/271/206 185/272/218
f 221/273/219 216/274/220 214/275/221
f 202/276/222 198/277/223 196/278/224
f 184/263/211 190/279/225 183/178/144
f 192/280/226 194/281/227 186/255/205
f 161/238/193 169/282/228 167/251/201
f 193/283/229 201/284/230 199/285/231
f 198/277/223 189/264/212 196/278/224
f 208/286/232 216/274/220 210/287/233
f 108/171/140 113/55/46 102/177/143
f 118/210/172 111/168/138 104/288/234
f 191/289/235 197/290/236 190/279/225
f 208/286/232 204/291/237 202/276/222
f 99/151/123 92/140/115 104/288/234
f 201/292/230 194/281/227 200/268/215
f 195/293/238 186/255/205 194/281/227
f 210/294/233 203/295/239 204/296/237
f 216/297/220 209/298/240 210/294/233
f 211/299/241 207/300/214 213/301/242
f 29/46/39 19/40/35 23/17/16
f 212/60/51 220/302/243 213/303/242
f 102/177/143 97/304/244 103/176/76
f 273/305/245 275/183/149 268/306/246
f 209/298/240 215/307/247 203/295/239
f 136/188/154 126/196/162 129/186/152
f 227/308/248 223/309/249 221/273/219
f 62/109/91 54/310/250 67/110/92
f 224/311/251 220/312/243 226/313/252
f 223/314/249 215/307/247 216/297/220
f 174/253/203 181/315/204 179/270/217
f 223/314/249 228/316/253 222/317/254
f 226/318/252 219/59/50 225/83/67
f 79/127/104 74/126/103 67/110/92
f 226/318/252 230/82/66 232/319/255
f 211/299/241 220/312/243 218/320/256
f 229/321/257 234/322/258 228/316/253
f 231/323/259 226/313/252 232/324/255
f 231/323/259 238/325/165 236/88/72
f 233/87/71 229/326/257 227/308/248
f 232/319/255 237/85/69 238/200/165
f 169/327/228 162/100/83 168/261/209
f 242/328/260 247/165/136 241/164/135
f 246/207/170 242/329/260 240/192/158
f 122/216/132 127/191/157 121/57/48
f 241/164/135 235/330/159 242/328/260
f 49/66/55 42/65/54 35/5/5
f 250/331/261 245/248/166 251/332/262
f 251/333/262 256/135/111 257/334/263
f 139/235/191 134/335/173 132/194/160
f 228/316/253 234/322/258 239/163/134
f 206/336/264 201/284/230 207/300/214
f 261/137/113 269/337/265 263/338/266
f 255/339/267 251/332/262 257/340/263
f 264/341/268 272/342/269 266/343/270
f 61/344/271 57/112/87 63/345/86
f 188/179/145 190/279/225 197/290/236
f 299/346/272 301/37/32 293/36/31
f 294/347/273 286/348/274 293/36/31
f 258/349/275 266/343/270 260/350/276
f 260/351/276 265/119/98 259/118/97
f 276/185/151 268/306/246 275/183/149
f 257/334/263 261/137/113 263/338/266
f 269/352/265 274/353/277 267/354/278
f 252/355/279 260/350/276 254/208/171
f 262/356/280 269/352/265 267/354/278
f 73/121/100 64/166/137 68/357/281
f 274/353/277 282/358/150 280/359/282
f 272/360/269 278/361/283 271/120/99
f 2/362/284 8/10/10 295/243/196
f 277/363/285 272/342/269 270/364/286
f 286/348/274 281/365/287 273/305/245
f 126/196/162 122/161/132 120/366/288
f 198/367/223 203/295/239 197/290/236
f 282/184/150 286/348/274 288/368/289
f 277/363/285 285/31/26 279/369/290
f 280/359/282 288/370/289 287/160/131
f 302/35/30 5/371/291 6/372/292
f 279/373/290 284/242/195 278/361/283
f 4/374/21 302/375/30 6/376/292
f 285/377/26 290/70/58 284/242/195
f 2/362/284 298/378/293 3/11/11
f 292/159/130 288/370/289 294/379/273
f 57/104/87 49/66/55 56/102/85
f 61/344/271 51/77/62 55/111/93
f 3/380/11 296/381/294 1/382/23
f 36/383/295 31/48/4 37/62/6
f 61/344/271 69/122/90 68/357/281
f 300/384/296 294/379/273 302/375/30
f 272/360/269 265/119/98 266/385/270
f 296/381/294 291/30/25 289/386/297
f 168/261/209 160/99/82 173/262/210
f 224/311/251 214/275/221 218/320/256
f 11/26/22 1/28/23 4/24/21
f 68/357/281 58/114/95 61/344/271
f 4/374/21 296/381/294 300/384/296
f 105/154/125 95/93/77 98/148/121
f 274/353/277 264/341/268 267/354/278
f 53/80/61 46/387/298 47/388/299
f 48/74/60 38/32/27 41/61/52
f 255/339/267 246/207/170 250/331/261
f 36/383/295 26/54/45 29/46/39
f 193/283/229 187/271/206 195/389/238
f 93/147/120 82/138/114 85/145/119
f 167/251/201 157/9/9 161/238/193
f 206/336/264 196/278/224 199/285/231
f 85/145/119 76/158/129 80/131/108
f 98/148/121 89/129/106 93/147/120
f 80/131/108 70/105/88 73/121/100
f 110/175/142 101/94/78 105/154/125
f 193/283/229 182/266/213 185/272/218
f 254/390/171 259/118/97 253/182/148
f 199/285/231 189/264/212 193/283/229
f 154/233/190 145/229/188 149/227/186
f 149/227/186 139/235/191 142/221/181
f 161/238/193 151/8/8 154/233/190
f 142/221/181 132/194/160 136/188/154
f 185/272/218 176/259/208 179/270/217
f 287/160/131 277/363/285 280/359/282
f 46/387/298 40/73/44 47/388/299
f 174/253/203 164/224/183 167/251/201
f 231/323/259 221/273/219 224/311/251
f 250/331/261 240/192/158 243/86/70
f 117/174/141 107/157/128 110/175/142
f 218/320/256 208/286/232 211/299/241
f 55/111/93 45/52/43 48/74/60
f 129/186/152 120/366/288 124/199/164
f 280/359/282 270/364/286 274/353/277
f 106/167/124 99/151/123 104/288/234
f 236/88/72 227/308/248 231/323/259
f 262/356/280 252/355/279 255/339/267
f 124/199/164 114/155/126 117/174/141
f 300/384/296 289/386/297 292/159/130
f 11/26/22 18/16/15 16/18/17
f 267/354/278 258/349/275 262/356/280
f 19/40/35 15/2/2 13/81/65
f 295/243/196 44/391/300 138/190/156
f 211/299/241 202/276/222 206/336/264
f 179/270/217 170/258/207 174/253/203
f 5/371/291 12/23/20 6/372/292
f 255/339/267 263/392/266 262/356/280
f 41/61/52 32/34/29 36/383/295
f 160/99/82 104/288/234 54/310/250
f 251/333/262 244/84/68 249/136/112
f 16/18/17 7/1/1 11/26/22
f 205/269/216 213/303/242 207/267/214
f 7/1/1 13/81/65 15/2/2
f 31/4/4 30/49/40 35/5/5
f 159/7/7 153/230/189 151/8/8
f 8/10/10 2/362/284 3/11/11
f 24/38/33 22/220/180 30/49/40
f 22/220/180 35/5/5 30/49/40
f 83/14/13 90/144/118 88/15/14
f 18/16/15 25/47/34 23/17/16
f 14/19/18 8/10/10 9/12/3
f 10/21/19 17/219/179 18/22/15
f 102/177/143 88/15/14 96/143/117
f 88/15/14 90/144/118 96/143/117
f 4/24/21 6/393/292 12/25/20
f 7/1/1 9/3/3 3/27/11
f 283/29/24 289/386/297 291/30/25
f 38/32/27 40/53/44 34/33/28
f 302/35/30 294/347/273 293/36/31
f 152/226/185 138/190/156 146/218/178
f 138/190/156 140/213/174 146/218/178
f 18/22/15 17/219/179 24/38/33
f 19/40/35 26/54/45 28/41/36
f 28/43/36 27/51/42 20/44/38
f 29/46/39 23/17/16 25/47/34
f 31/4/4 25/39/34 24/38/33
f 28/43/36 34/72/28 33/50/41
f 45/52/43 47/394/299 40/53/44
f 26/54/45 32/34/29 34/33/28
f 127/191/157 113/55/46 121/57/48
f 205/269/216 217/58/49 212/60/51
f 41/61/52 36/383/295 37/62/6
f 43/64/53 37/6/6 35/5/5
f 43/64/53 42/65/54 49/66/55
f 291/68/25 298/378/293 297/69/57
f 5/371/291 301/37/32 299/346/272
f 299/346/272 10/21/19 5/371/291
f 39/71/59 33/50/41 34/72/28
f 21/45/37 20/44/38 14/19/18
f 48/74/60 41/61/52 43/63/53
f 53/76/61 47/394/299 45/52/43
f 60/78/63 59/113/94 52/79/64
f 23/17/16 19/40/35 13/81/65
f 225/83/67 219/59/50 217/58/49
f 230/82/66 249/136/112 244/84/68
f 243/86/70 240/192/158 233/87/71
f 103/92/76 97/395/244 95/93/77
f 51/77/62 58/114/95 60/95/63
f 72/96/79 71/117/96 65/97/80
f 148/91/75 160/99/82 155/101/84
f 56/102/85 62/109/91 63/103/86
f 70/105/88 76/158/129 78/106/89
f 69/108/90 63/103/86 62/109/91
f 55/111/93 48/74/60 50/75/56
f 60/78/63 66/98/81 65/97/80
f 58/114/95 64/166/137 66/115/81
f 78/116/89 77/13/12 71/117/96
f 73/121/100 68/357/281 69/122/90
f 67/110/92 74/126/103 75/124/101
f 81/125/102 75/124/101 74/126/103
f 95/93/77 97/395/244 91/128/105
f 84/130/107 83/14/13 77/13/12
f 80/131/108 73/121/100 75/123/101
f 39/71/59 46/387/298 44/391/300
f 44/391/300 33/50/41 39/71/59
f 87/133/109 81/125/102 79/127/104
f 79/127/104 92/140/115 86/134/110
f 82/138/114 89/129/106 91/128/105
f 87/133/109 86/134/110 92/140/115
f 91/142/105 97/304/244 96/143/117
f 85/145/119 87/150/109 94/146/116
f 98/148/121 93/147/120 94/146/116
f 84/130/107 91/142/105 90/144/118
f 80/131/108 81/132/102 87/150/109
f 94/141/116 92/140/115 99/151/123
f 98/148/121 100/149/122 106/153/124
f 114/155/126 116/162/133 109/156/127
f 76/158/129 82/138/114 84/139/107
f 292/159/130 289/386/297 283/29/24
f 20/44/38 8/10/10 14/19/18
f 114/155/126 120/366/288 122/161/132
f 247/165/136 253/182/148 259/118/97
f 259/118/97 239/163/134 247/165/136
f 72/107/79 66/115/81 64/166/137
f 106/167/124 104/288/234 111/168/138
f 116/170/133 115/56/47 108/171/140
f 112/173/139 119/198/163 117/174/141
f 105/154/125 106/153/124 112/173/139
f 103/176/76 109/172/127 108/171/140
f 183/178/144 190/279/225 188/179/145
f 248/181/147 254/390/171 253/182/148
f 284/242/195 271/120/99 278/361/283
f 275/183/149 281/365/287 282/184/150
f 129/186/152 131/396/169 137/187/153
f 133/189/155 140/213/174 138/190/156
f 240/192/158 242/329/260 235/193/159
f 132/194/160 134/335/173 128/195/161
f 128/197/161 134/212/173 133/189/155
f 119/198/163 125/206/168 124/199/164
f 123/397/301 135/90/74 130/203/167
f 238/200/165 237/85/69 244/84/68
f 137/202/153 131/205/169 130/203/167
f 125/204/168 123/397/301 130/203/167
f 125/206/168 131/396/169 129/186/152
f 246/207/170 252/355/279 254/208/171
f 118/210/172 123/397/301 125/204/168
f 165/249/200 152/226/185 158/240/194
f 134/212/173 141/217/177 140/213/174
f 144/214/175 143/89/73 148/91/75
f 122/216/132 121/57/48 115/56/47
f 141/217/177 147/225/184 146/218/178
f 111/168/138 118/210/172 119/211/163
f 137/202/153 135/90/74 143/89/73
f 22/220/180 24/38/33 17/219/179
f 142/221/181 136/188/154 137/187/153
f 166/223/182 159/7/7 157/9/9
f 147/225/184 153/244/189 152/226/185
f 144/222/175 150/232/176 149/227/186
f 148/91/75 155/101/84 156/228/187
f 145/229/188 151/8/8 153/230/189
f 150/232/176 156/398/187 154/233/190
f 145/229/188 147/231/184 141/234/177
f 101/94/78 107/157/128 109/156/127
f 156/228/187 155/101/84 162/100/83
f 154/233/190 156/398/187 163/237/192
f 166/239/182 165/249/200 158/240/194
f 290/70/58 297/69/57 295/243/196
f 158/240/194 152/226/185 153/244/189
f 200/268/215 194/281/227 192/280/226
f 192/280/226 205/269/216 200/268/215
f 178/245/197 177/180/146 171/246/198
f 236/88/72 238/325/165 245/248/166
f 172/247/199 171/246/198 165/249/200
f 164/224/183 170/258/207 172/250/199
f 177/180/146 165/249/200 171/246/198
f 167/251/201 169/282/228 175/252/202
f 181/254/204 180/399/302 186/255/205
f 178/257/197 172/250/199 170/258/207
f 175/260/202 169/327/228 168/261/209
f 183/178/144 177/180/146 178/245/197
f 189/264/212 191/400/235 184/265/211
f 207/267/214 201/292/230 200/268/215
f 176/259/208 182/266/213 184/265/211
f 173/262/210 180/399/302 181/254/204
f 179/270/217 181/315/204 187/271/206
f 221/273/219 223/309/249 216/274/220
f 202/276/222 204/291/237 198/277/223
f 184/263/211 191/289/235 190/279/225
f 186/255/205 180/399/302 173/262/210
f 173/262/210 192/280/226 186/255/205
f 161/238/193 163/237/192 169/282/228
f 193/283/229 195/389/238 201/284/230
f 198/277/223 191/400/235 189/264/212
f 208/286/232 214/275/221 216/274/220
f 108/171/140 115/56/47 113/55/46
f 104/288/234 123/397/301 118/210/172
f 191/289/235 198/367/223 197/290/236
f 208/286/232 210/287/233 204/291/237
f 201/292/230 195/293/238 194/281/227
f 195/293/238 187/256/206 186/255/205
f 210/294/233 209/298/240 203/295/239
f 216/297/220 215/307/247 209/298/240
f 211/299/241 206/336/264 207/300/214
f 29/46/39 26/54/45 19/40/35
f 212/60/51 219/59/50 220/302/243
f 102/177/143 96/143/117 97/304/244
f 261/137/113 273/305/245 268/306/246
f 136/188/154 132/194/160 126/196/162
f 227/308/248 229/326/257 223/309/249
f 62/109/91 56/102/85 54/310/250
f 224/311/251 218/320/256 220/312/243
f 223/314/249 222/317/254 215/307/247
f 174/253/203 175/252/202 181/315/204
f 223/314/249 229/321/257 228/316/253
f 65/97/80 44/391/300 59/113/94
f 44/391/300 46/387/298 52/79/64
f 59/113/94 44/391/300 52/79/64
f 226/318/252 220/302/243 219/59/50
f 226/318/252 225/83/67 230/82/66
f 211/299/241 213/301/242 220/312/243
f 229/321/257 235/330/159 234/322/258
f 231/323/259 224/311/251 226/313/252
f 231/323/259 232/324/255 238/325/165
f 233/87/71 235/193/159 229/326/257
f 232/319/255 230/82/66 237/85/69
f 169/327/228 163/236/192 162/100/83
f 242/328/260 248/181/147 247/165/136
f 246/207/170 248/209/147 242/329/260
f 228/316/253 215/307/247 222/317/254
f 122/216/132 128/197/161 127/191/157
f 241/164/135 234/322/258 235/330/159
f 35/5/5 54/310/250 49/66/55
f 54/310/250 56/102/85 49/66/55
f 250/331/261 243/86/70 245/248/166
f 251/333/262 249/136/112 256/135/111
f 139/235/191 141/234/177 134/335/173
f 234/322/258 241/164/135 239/163/134
f 206/336/264 199/285/231 201/284/230
f 261/137/113 268/306/246 269/337/265
f 77/13/12 65/97/80 71/117/96
f 255/339/267 250/331/261 251/332/262
f 264/341/268 270/364/286 272/342/269
f 61/344/271 55/111/93 57/112/87
f 203/295/239 188/179/145 197/290/236
f 286/348/274 299/346/272 293/36/31
f 294/347/273 288/368/289 286/348/274
f 258/349/275 264/341/268 266/343/270
f 260/351/276 266/385/270 265/119/98
f 276/185/151 269/337/265 268/306/246
f 257/334/263 256/135/111 261/137/113
f 269/352/265 276/401/151 274/353/277
f 252/355/279 258/349/275 260/350/276
f 262/356/280 263/392/266 269/352/265
f 73/121/100 70/105/88 64/166/137
f 274/353/277 276/401/151 282/358/150
f 272/360/269 279/373/290 278/361/283
f 295/243/196 297/69/57 2/362/284
f 277/363/285 279/369/290 272/342/269
f 281/365/287 275/183/149 273/305/245
f 126/196/162 128/195/161 122/161/132
f 198/367/223 204/296/237 203/295/239
f 282/184/150 281/365/287 286/348/274
f 277/363/285 283/29/24 285/31/26
f 280/359/282 282/358/150 288/370/289
f 302/35/30 301/37/32 5/371/291
f 279/373/290 285/377/26 284/242/195
f 4/374/21 300/384/296 302/375/30
f 285/377/26 291/68/25 290/70/58
f 2/362/284 297/69/57 298/378/293
f 292/159/130 287/160/131 288/370/289
f 57/104/87 50/67/56 49/66/55
f 61/344/271 58/114/95 51/77/62
f 3/380/11 298/402/293 296/381/294
f 36/383/295 29/46/39 31/48/4
f 61/344/271 63/345/86 69/122/90
f 300/384/296 292/159/130 294/379/273
f 272/360/269 271/120/99 265/119/98
f 296/381/294 298/402/293 291/30/25
f 168/261/209 162/100/83 160/99/82
f 224/311/251 221/273/219 214/275/221
f 11/26/22 7/1/1 1/28/23
f 68/357/281 64/166/137 58/114/95
f 4/374/21 1/382/23 296/381/294
f 105/154/125 101/94/78 95/93/77
f 274/353/277 270/364/286 264/341/268
f 53/80/61 52/79/64 46/387/298
f 48/74/60 45/52/43 38/32/27
f 255/339/267 252/355/279 246/207/170
f 36/383/295 32/34/29 26/54/45
f 193/283/229 185/272/218 187/271/206
f 93/147/120 89/129/106 82/138/114
f 167/251/201 164/224/183 157/9/9
f 206/336/264 202/276/222 196/278/224
f 85/145/119 82/138/114 76/158/129
f 98/148/121 95/93/77 89/129/106
f 80/131/108 76/158/129 70/105/88
f 110/175/142 107/157/128 101/94/78
f 193/283/229 189/264/212 182/266/213
f 254/390/171 260/351/276 259/118/97
f 199/285/231 196/278/224 189/264/212
f 154/233/190 151/8/8 145/229/188
f 149/227/186 145/229/188 139/235/191
f 161/238/193 157/9/9 151/8/8
f 142/221/181 139/235/191 132/194/160
f 185/272/218 182/266/213 176/259/208
f 287/160/131 283/29/24 277/363/285
f 46/387/298 39/71/59 40/73/44
f 174/253/203 170/258/207 164/224/183
f 231/323/259 227/308/248 221/273/219
f 250/331/261 246/207/170 240/192/158
f 117/174/141 114/155/126 107/157/128
f 218/320/256 214/275/221 208/286/232
f 55/111/93 51/77/62 45/52/43
f 129/186/152 126/196/162 120/366/288
f 280/359/282 277/363/285 270/364/286
f 106/167/124 100/152/122 99/151/123
f 236/88/72 233/87/71 227/308/248
f 262/356/280 258/349/275 252/355/279
f 124/199/164 120/366/288 114/155/126
f 300/384/296 296/381/294 289/386/297
f 11/26/22 12/25/20 18/16/15
f 267/354/278 264/341/268 258/349/275
f 19/40/35 21/42/37 15/2/2
f 65/97/80 77/13/12 88/15/14
f 88/15/14 102/177/143 113/55/46
f 113/55/46 127/191/157 138/190/156
f 138/190/156 152/226/185 165/249/200
f 165/249/200 177/180/146 188/179/145
f 188/179/145 203/295/239 215/307/247
f 215/307/247 228/316/253 239/163/134
f 239/163/134 259/118/97 295/243/196
f 259/118/97 271/120/99 295/243/196
f 271/120/99 284/242/195 295/243/196
f 295/243/196 8/10/10 44/391/300
f 8/10/10 20/44/38 44/391/300
f 20/44/38 33/50/41 44/391/300
f 44/391/300 65/97/80 88/15/14
f 88/15/14 113/55/46 44/391/300
f 113/55/46 138/190/156 44/391/300
f 138/190/156 165/249/200 188/179/145
f 188/179/145 215/307/247 239/163/134
f 138/190/156 188/179/145 239/163/134
f 239/163/134 295/243/196 138/190/156
f 211/299/241 208/286/232 202/276/222
f 179/270/217 176/259/208 170/258/207
f 5/371/291 10/21/19 12/23/20
f 255/339/267 257/340/263 263/392/266
f 41/61/52 38/32/27 32/34/29
f 22/220/180 10/21/19 299/346/272
f 299/346/272 286/348/274 273/305/245
f 273/305/245 261/137/113 217/58/49
f 261/137/113 249/136/112 217/58/49
f 249/136/112 230/82/66 217/58/49
f 217/58/49 205/269/216 192/280/226
f 192/280/226 173/262/210 160/99/82
f 160/99/82 148/91/75 135/90/74
f 135/90/74 123/397/301 160/99/82
f 123/397/301 104/288/234 160/99/82
f 104/288/234 92/140/115 54/310/250
f 92/140/115 79/127/104 54/310/250
f 79/127/104 67/110/92 54/310/250
f 54/310/250 35/5/5 22/220/180
f 22/220/180 299/346/272 54/310/250
f 299/346/272 273/305/245 54/310/250
f 217/58/49 192/280/226 160/99/82
f 273/305/245 217/58/49 54/310/250
f 217/58/49 160/99/82 54/310/250
f 251/333/262 245/201/166 244/84/68
f 16/18/17 13/81/65 7/1/1
f 205/269/216 212/60/51 213/303/242
